var fontJSON3=
{"glyphs":{"0":{"ha":683,"x_min":8,"x_max":675,"o":"m 344 853 q 456 831 407 853 q 541 774 504 810 q 603 692 578 739 q 645 594 629 644 q 668 492 661 543 q 675 397 675 442 q 658 250 675 326 q 601 110 640 174 q 497 6 561 47 q 339 -35 433 -35 q 182 5 246 -35 q 80 106 118 44 q 25 244 42 168 q 8 390 8 319 q 25 539 8 458 q 81 690 42 619 q 185 806 121 760 q 344 853 249 853 m 538 401 q 526 510 538 454 q 491 613 515 567 q 430 688 467 658 q 342 717 393 717 q 253 688 290 717 q 193 615 217 660 q 158 515 169 571 q 147 407 147 460 q 156 290 147 346 q 188 192 165 235 q 249 125 210 150 q 347 100 288 100 q 435 127 399 100 q 494 197 471 154 q 527 294 517 240 q 538 401 538 349 m 43 390 q 60 244 43 314 q 113 119 76 174 q 204 33 149 65 q 339 0 260 0 q 478 35 421 0 q 572 128 535 71 q 624 256 608 185 q 640 397 640 326 q 615 582 640 503 q 547 713 589 661 q 453 792 506 765 q 344 818 400 818 q 233 791 288 818 q 137 710 179 764 q 69 577 94 657 q 43 390 43 497 m 347 65 q 233 93 278 64 q 161 169 188 122 q 124 276 135 215 q 113 397 113 336 q 131 552 111 486 q 182 663 150 618 q 256 729 214 707 q 342 751 299 751 q 426 730 385 751 q 500 665 468 708 q 552 555 532 621 q 572 401 572 489 q 559 278 572 339 q 519 171 546 218 q 449 94 492 124 q 347 65 406 65 z "},"1":{"ha":246,"x_min":49,"x_max":197,"o":"m 118 847 q 168 826 150 847 q 186 776 186 804 l 197 21 q 190 -10 197 3 q 172 -31 183 -22 q 149 -42 161 -39 q 126 -46 136 -46 q 103 -42 115 -46 q 79 -31 90 -39 q 61 -10 68 -22 q 54 21 54 3 l 49 776 q 67 826 49 804 q 118 847 86 847 m 89 21 q 100 -3 89 6 q 126 -11 111 -11 q 151 -3 140 -11 q 163 21 163 6 l 151 776 q 141 803 151 794 q 118 813 131 813 q 94 803 104 813 q 83 776 83 794 l 89 21 z "},"2":{"ha":556,"x_min":-7,"x_max":561,"o":"m -7 28 q -1 59 -7 43 q 13 90 6 75 q 32 123 21 106 q 57 160 43 140 q 115 238 82 196 q 182 324 147 279 q 248 415 217 369 q 303 500 279 460 q 342 576 328 540 q 356 640 356 613 q 335 702 356 679 q 278 725 314 725 q 202 692 229 725 q 147 607 175 660 q 125 579 139 590 q 88 568 111 568 q 65 572 78 568 q 42 583 53 575 q 23 603 31 590 q 15 633 15 615 q 21 657 15 646 q 58 732 35 694 q 115 799 82 769 q 189 848 147 829 q 279 867 231 867 q 365 849 326 867 q 433 801 404 832 q 476 731 461 771 q 492 646 492 690 q 479 563 492 604 q 447 483 467 522 q 404 406 428 443 q 357 335 381 368 q 282 230 319 282 q 204 126 244 178 q 196 115 200 119 q 189 103 192 110 l 493 106 q 523 98 510 106 q 544 79 536 90 q 557 56 553 68 q 561 32 561 43 q 545 -13 561 8 q 497 -35 529 -35 l 56 -40 q 25 -33 38 -40 q 6 -15 13 -25 q -4 8 -1 -4 q -7 28 -7 19 m 497 0 q 520 11 513 0 q 526 35 528 22 q 517 58 525 47 q 493 71 508 69 l 128 68 q 173 138 139 92 q 249 243 207 185 q 336 367 292 301 q 414 493 381 432 q 457 630 454 568 q 437 737 460 692 q 372 807 414 782 q 279 832 329 832 q 154 788 217 832 q 53 644 92 744 q 59 614 46 625 q 88 603 72 603 q 106 607 97 603 q 117 622 114 611 q 188 727 143 694 q 278 760 233 760 q 341 742 313 760 q 382 690 369 724 q 388 608 394 656 q 343 500 381 560 q 265 381 308 444 q 178 260 221 318 q 99 155 135 203 q 44 81 63 107 q 32 54 36 69 q 28 26 28 39 q 35 3 29 13 q 56 -6 42 -6 l 497 0 z "},"3":{"ha":618,"x_min":7,"x_max":611,"o":"m 288 -37 q 219 -33 265 -37 q 125 -15 172 -28 q 42 21 78 -1 q 7 78 7 43 q 28 127 7 106 q 76 149 49 149 q 93 146 86 149 q 106 140 100 143 q 274 103 185 103 q 348 110 311 103 q 413 132 385 117 q 458 170 440 147 q 475 225 475 193 q 449 285 475 263 q 385 319 422 307 q 309 335 349 332 q 242 339 269 339 q 203 338 222 339 q 164 336 183 336 q 145 338 157 336 q 122 347 133 340 q 101 365 110 353 q 93 397 93 378 q 115 447 93 426 q 164 468 136 468 q 246 474 199 468 q 335 495 293 479 q 408 540 378 511 q 438 614 438 568 q 424 660 438 640 q 385 694 410 681 q 331 714 361 707 q 267 721 300 721 q 126 686 192 721 q 114 681 121 683 q 96 678 107 678 q 67 685 79 678 q 47 704 54 693 q 35 727 39 715 q 32 749 32 739 q 61 802 32 781 q 131 838 90 824 q 212 857 171 851 q 278 863 253 863 q 385 847 332 863 q 479 801 438 832 q 547 722 521 769 q 574 608 574 674 q 550 508 574 554 q 489 429 526 463 q 576 346 542 397 q 611 228 611 294 q 582 105 611 156 q 506 22 553 54 q 401 -24 458 -10 q 288 -37 344 -37 m 576 228 q 564 293 576 263 q 530 349 551 324 q 480 394 508 375 q 419 422 451 413 q 506 499 472 450 q 539 608 539 549 q 517 706 539 664 q 458 774 494 747 q 375 815 422 801 q 278 828 328 828 q 178 815 228 828 q 83 776 128 801 q 69 759 72 769 q 68 738 65 749 q 78 720 71 728 q 96 713 86 713 q 110 717 104 713 q 185 746 144 736 q 267 756 226 756 q 344 747 307 756 q 410 719 382 738 q 456 675 439 701 q 472 614 472 649 q 453 544 472 576 q 397 486 435 511 q 301 447 358 461 q 164 433 243 433 q 140 424 150 433 q 128 402 129 414 q 135 381 126 390 q 164 371 143 371 l 171 371 q 208 373 190 372 q 242 374 225 374 q 442 334 374 374 q 510 225 510 294 q 490 156 510 185 q 437 107 469 126 q 362 78 404 88 q 274 68 319 68 q 178 78 225 68 q 90 110 131 89 q 76 114 85 114 q 57 107 67 114 q 44 90 47 100 q 44 68 40 79 q 64 49 49 57 q 172 10 114 24 q 288 -3 229 -3 q 397 11 344 -3 q 488 53 449 25 q 552 124 528 81 q 576 228 576 168 z "},"4":{"ha":547,"x_min":7,"x_max":553,"o":"m 469 301 l 474 17 q 466 -10 474 1 q 448 -31 458 -22 q 425 -43 438 -39 q 404 -47 413 -47 q 383 -43 394 -47 q 360 -31 371 -39 q 343 -10 350 -22 q 336 17 336 1 l 332 303 l 111 299 q 10 400 10 299 l 7 794 q 26 843 7 821 q 76 865 44 865 q 126 843 108 865 q 144 794 144 821 l 147 438 l 332 440 q 328 617 331 529 q 326 793 326 704 q 347 842 326 821 q 396 864 367 864 q 446 842 429 864 q 464 796 463 819 q 465 733 467 764 q 465 669 464 701 q 467 556 467 611 q 469 443 468 500 q 528 430 503 443 q 553 376 553 417 q 536 326 553 343 q 496 304 519 310 q 483 302 489 303 q 469 301 476 301 m 361 793 q 362 695 361 742 q 363 603 363 649 q 365 510 364 557 q 367 407 367 463 l 113 401 l 110 794 q 98 822 108 814 q 76 831 88 831 q 53 822 64 831 q 42 794 43 814 l 44 400 q 57 352 44 371 q 111 333 69 333 l 367 338 l 371 17 q 383 -6 374 1 q 404 -12 393 -12 q 426 -6 415 -12 q 439 17 436 1 l 435 338 l 486 338 q 510 349 501 338 q 518 374 518 361 q 511 398 518 388 q 488 408 504 408 l 435 407 q 433 509 435 461 q 431 603 432 557 q 430 695 431 649 q 429 793 429 742 q 418 820 428 811 q 396 829 408 829 q 374 820 383 829 q 361 793 364 811 z "},"5":{"ha":585,"x_min":8,"x_max":576,"o":"m 61 383 q 43 426 43 401 q 37 583 36 504 q 38 740 38 663 q 47 791 38 772 q 70 819 56 810 q 103 832 85 829 q 142 836 122 835 q 249 840 196 839 q 357 842 303 842 q 377 842 365 842 q 403 843 389 843 q 417 843 410 843 q 431 842 424 843 q 454 837 442 840 q 478 826 467 833 q 500 805 492 818 q 508 772 508 792 q 484 720 508 738 q 435 703 460 703 q 326 706 381 703 q 217 708 271 708 q 194 708 206 708 q 172 707 183 708 q 171 682 171 694 q 171 657 171 669 q 173 576 171 617 q 176 494 175 535 l 182 494 q 319 487 249 494 q 447 453 389 479 q 540 376 504 426 q 576 239 576 325 q 549 117 576 167 q 478 38 522 68 q 378 -6 435 7 q 265 -19 322 -19 q 215 -17 243 -19 q 159 -10 188 -15 q 103 1 131 -6 q 53 18 75 8 q 22 40 36 25 q 8 82 8 56 q 24 128 8 104 q 74 151 40 151 q 101 146 88 151 q 261 114 178 114 q 331 121 297 114 q 389 142 364 128 q 428 177 414 156 q 443 229 443 199 q 422 299 443 274 q 367 336 400 324 q 297 352 335 349 q 226 357 260 356 l 188 357 l 118 357 q 90 362 107 357 q 61 383 74 367 m 118 392 l 174 392 q 280 388 226 392 q 376 369 333 385 q 448 323 419 354 q 478 236 476 292 q 462 165 479 194 q 414 116 444 135 q 344 88 383 97 q 261 79 304 79 q 169 89 214 79 q 88 114 124 99 q 74 117 82 117 q 53 108 61 117 q 44 89 46 100 q 47 67 42 78 q 67 50 53 56 q 265 15 164 15 q 371 27 321 15 q 459 66 421 39 q 519 135 497 93 q 542 239 542 178 q 517 347 542 304 q 446 414 492 389 q 333 449 400 439 q 182 460 267 460 l 143 460 q 141 521 143 485 q 138 595 139 557 q 136 672 136 633 q 140 740 136 710 q 174 742 156 742 q 217 743 193 743 q 324 741 265 743 q 435 738 382 739 q 463 747 453 738 q 474 769 472 757 q 467 792 475 781 q 442 806 460 803 q 401 807 422 807 q 357 807 379 807 q 244 806 300 807 q 143 801 189 804 q 90 791 108 800 q 72 740 72 782 q 73 663 72 706 q 74 578 74 621 q 76 497 75 536 q 78 429 76 458 q 88 406 78 413 q 118 392 94 392 z "},"6":{"ha":540,"x_min":8,"x_max":546,"o":"m 410 258 q 382 347 410 315 q 301 379 354 379 q 214 351 254 379 q 147 281 174 324 q 177 148 150 199 q 276 97 204 97 q 330 110 306 97 q 372 147 354 124 q 399 199 389 169 q 410 258 410 228 m 279 803 q 276 784 279 792 q 271 769 274 776 q 201 621 226 690 q 160 471 175 551 q 228 501 192 490 q 303 511 264 511 q 405 492 360 511 q 481 438 450 472 q 529 358 513 404 q 546 258 546 311 q 526 148 546 201 q 472 53 507 94 q 385 -15 436 11 q 271 -40 335 -40 q 139 -6 190 -40 q 58 80 88 28 q 19 194 29 132 q 8 313 8 256 q 18 435 8 363 q 47 584 28 508 q 92 728 65 660 q 154 840 119 797 q 176 860 163 851 q 210 868 189 868 q 256 851 233 868 q 279 803 279 835 m 276 63 q 201 78 232 63 q 151 125 171 94 q 122 197 131 156 q 113 289 113 239 q 185 373 140 339 q 281 413 229 407 q 291 413 286 413 q 301 414 296 414 q 363 402 338 414 q 406 371 389 390 q 433 326 424 351 q 444 274 443 301 q 438 201 447 239 q 406 133 428 164 q 352 83 385 103 q 276 63 319 64 m 181 818 q 133 731 157 785 q 90 612 108 676 q 58 476 71 547 q 43 335 44 404 q 52 203 42 265 q 90 93 63 140 q 165 19 118 46 q 281 -6 211 -8 q 390 26 343 -4 q 467 103 438 57 q 506 203 496 149 q 507 308 517 257 q 485 372 501 342 q 444 426 469 403 q 384 463 419 449 q 303 476 349 476 l 285 476 q 192 449 236 472 q 111 390 147 425 q 128 490 118 442 q 152 587 138 539 q 188 684 167 635 q 240 786 210 733 q 240 819 251 806 q 210 833 228 833 q 181 818 192 833 z "},"7":{"ha":438,"x_min":-21,"x_max":457,"o":"m 50 715 q 3 731 28 715 q -21 781 -21 746 q 2 830 -21 813 q 49 847 25 847 l 388 850 q 422 841 408 850 q 444 819 436 832 q 454 792 451 806 q 457 769 457 778 q 453 739 457 754 l 233 13 q 208 -24 226 -8 q 164 -40 190 -40 q 119 -24 140 -40 q 99 24 99 -7 q 108 64 99 31 q 131 147 117 97 q 165 258 146 197 q 203 382 183 319 q 233 481 218 432 q 261 574 247 529 q 286 656 275 618 q 306 719 297 693 l 50 715 m 353 754 l 136 38 q 139 6 129 17 q 164 -6 149 -6 q 185 1 175 -6 q 200 22 196 7 l 419 749 q 419 793 426 771 q 388 815 411 815 l 49 813 q 22 801 31 811 q 15 780 14 792 q 24 759 15 768 q 50 750 33 750 l 353 754 z "},"8":{"ha":604,"x_min":7,"x_max":596,"o":"m 293 354 q 185 319 226 354 q 143 222 143 285 q 188 133 143 164 q 299 101 232 101 q 360 110 331 101 q 411 133 389 118 q 447 171 433 149 q 460 221 460 193 q 447 276 460 251 q 410 319 433 301 q 357 345 388 336 q 293 354 326 354 m 282 735 q 183 702 221 735 q 146 611 146 669 q 188 521 146 553 q 292 489 229 489 q 396 519 353 489 q 439 601 439 549 q 426 656 439 631 q 392 698 414 681 q 342 725 371 715 q 282 735 314 735 m 93 421 q 31 502 53 454 q 10 606 10 550 q 31 715 10 667 q 88 796 51 763 q 173 847 124 829 q 279 865 222 865 q 383 849 331 865 q 478 799 436 832 q 548 717 521 765 q 575 607 575 669 q 552 503 575 549 q 489 425 529 457 q 566 342 536 392 q 596 228 596 292 q 568 111 596 161 q 497 28 540 61 q 398 -22 453 -6 q 288 -37 343 -37 q 178 -20 229 -37 q 90 31 128 -3 q 29 115 51 65 q 7 226 7 164 q 28 335 7 285 q 93 421 50 385 m 494 221 q 478 155 494 183 q 433 106 461 126 q 370 76 406 86 q 299 67 335 67 q 226 76 261 67 q 165 107 192 86 q 122 159 138 128 q 108 232 107 190 q 126 301 110 272 q 167 350 142 331 q 226 379 193 369 q 293 389 258 389 q 367 378 331 389 q 431 346 403 367 q 477 294 460 325 q 494 221 494 263 m 474 601 q 458 538 474 565 q 417 492 443 511 q 359 464 392 474 q 292 454 326 454 q 226 464 258 454 q 167 493 193 474 q 126 542 142 513 q 111 611 111 572 q 126 681 111 651 q 164 731 140 711 q 218 760 188 750 q 282 769 249 769 q 351 758 317 769 q 413 726 386 747 q 457 673 440 704 q 474 601 474 642 m 42 226 q 61 126 42 169 q 115 55 81 83 q 195 12 149 26 q 294 -3 242 -3 q 392 13 344 -3 q 478 58 440 29 q 538 130 515 88 q 561 228 561 172 q 520 348 560 299 q 421 424 481 397 q 508 494 474 449 q 540 607 542 540 q 515 703 539 661 q 456 773 492 744 q 373 816 419 801 q 279 831 326 831 q 192 817 235 831 q 117 776 150 804 q 65 706 85 749 q 44 606 44 664 q 76 490 44 536 q 157 421 108 444 q 74 347 107 394 q 42 226 42 300 z "},"9":{"ha":544,"x_min":-7,"x_max":510,"o":"m 253 849 q 375 818 317 849 q 395 854 381 838 q 442 871 410 871 q 491 849 472 871 q 510 800 510 828 l 508 15 q 485 -34 508 -18 q 440 -50 463 -50 q 394 -34 417 -50 q 371 15 371 -18 l 371 358 q 250 329 315 329 q 147 348 194 329 q 65 401 100 367 q 12 482 31 435 q -7 586 -7 529 q 12 692 -7 643 q 65 775 31 740 q 147 829 100 810 q 253 849 194 849 m 250 364 q 334 380 294 364 q 406 425 374 396 l 406 15 q 416 -8 406 0 q 440 -15 426 -15 q 463 -8 453 -15 q 474 15 474 0 l 475 800 q 465 827 475 818 q 442 836 454 836 q 417 827 428 836 q 407 800 407 818 l 407 756 q 335 798 375 783 q 253 814 294 813 q 170 800 211 814 q 98 758 129 786 q 47 688 67 731 q 28 586 28 644 q 47 489 28 531 q 97 419 65 447 q 168 377 128 390 q 250 364 208 364 m 406 610 l 406 554 q 351 462 397 494 q 247 429 306 429 q 190 440 218 429 q 141 472 163 451 q 107 522 119 492 q 94 590 94 551 q 108 663 94 632 q 142 713 121 693 q 190 743 163 733 q 246 753 217 753 q 353 713 310 753 q 406 610 397 672 m 129 590 q 162 499 129 535 q 247 464 194 464 q 292 472 269 464 q 331 492 314 479 q 360 521 349 504 q 371 554 371 538 l 371 610 q 360 650 371 631 q 333 685 350 669 q 293 709 315 700 q 249 718 271 718 q 161 683 193 718 q 129 590 129 649 z "}," ":{"ha":389,"x_min":0,"x_max":0,"o":""},"a":{"ha":508,"x_min":8,"x_max":474,"o":"m 321 204 q 326 215 321 207 q 326 254 326 235 q 325 292 326 274 q 294 338 322 315 q 236 361 267 361 q 169 329 194 361 q 144 249 144 297 q 169 173 144 204 q 233 142 193 142 q 283 159 260 142 q 321 204 307 176 m 333 24 q 242 6 292 6 q 72 69 135 6 q 8 239 8 132 q 24 335 8 289 q 70 419 40 382 q 144 478 100 456 q 246 500 189 500 q 284 495 265 500 q 321 483 303 490 q 337 542 321 515 q 390 569 353 569 q 440 547 425 569 q 458 501 456 524 q 464 372 465 438 q 464 240 463 306 q 470 129 467 185 q 474 18 474 74 q 466 -11 474 1 q 448 -31 458 -24 q 426 -42 438 -39 q 404 -46 414 -46 q 374 -39 386 -46 q 353 -22 361 -32 q 340 -1 344 -12 q 335 21 336 11 q 333 24 335 22 m 110 242 q 119 308 108 279 q 147 357 129 338 q 188 386 165 376 q 236 396 211 396 q 311 371 276 396 q 360 294 346 346 l 363 217 q 315 140 350 172 q 233 107 279 107 q 183 118 206 107 q 144 148 161 129 q 119 191 128 167 q 110 242 110 215 m 356 499 q 356 457 356 478 q 358 417 357 436 q 307 451 335 438 q 246 465 279 464 q 163 448 200 465 q 101 401 126 431 q 60 333 75 371 q 43 254 46 294 q 49 186 42 219 q 72 125 56 153 q 115 76 89 97 q 179 47 142 56 q 211 42 196 43 q 242 40 226 40 q 313 53 282 40 q 367 86 343 65 l 371 18 q 383 -4 372 3 q 404 -11 393 -11 q 427 -4 417 -11 q 439 18 438 3 q 429 263 431 144 q 424 499 428 381 q 413 526 422 517 q 390 535 403 535 q 368 526 378 535 q 356 499 358 517 z "},"g":{"ha":549,"x_min":8,"x_max":513,"o":"m 364 239 q 334 324 364 292 q 254 357 304 357 q 178 322 208 357 q 149 236 149 286 q 181 154 149 188 q 261 121 214 121 q 337 153 310 121 q 364 239 364 186 m 357 474 q 378 519 360 503 q 424 535 397 535 q 447 531 435 535 q 469 521 458 528 q 488 501 481 514 q 497 472 496 489 q 501 392 500 432 q 504 311 501 351 q 513 -71 513 119 q 496 -173 511 -122 q 450 -265 481 -224 q 373 -331 419 -306 q 263 -357 326 -357 q 172 -338 222 -357 q 90 -292 121 -319 q 69 -265 79 -281 q 60 -228 60 -249 q 82 -178 60 -196 q 129 -161 104 -161 q 155 -167 144 -161 q 172 -176 165 -172 q 186 -186 179 -181 q 201 -199 193 -192 q 231 -216 217 -210 q 261 -222 244 -222 q 322 -204 301 -222 q 354 -154 343 -186 q 369 -76 367 -118 q 371 6 371 -35 l 371 10 q 313 -8 343 -3 q 253 -14 283 -14 q 151 6 197 -14 q 74 59 106 25 q 26 139 43 93 q 8 239 8 185 q 27 338 8 292 q 78 418 46 383 q 157 473 111 453 q 257 493 203 493 q 308 489 282 493 q 357 474 333 485 m 261 86 q 153 134 190 89 q 114 236 115 179 q 123 292 114 265 q 149 341 132 319 q 193 376 167 363 q 254 392 219 390 q 317 379 290 392 q 362 345 343 367 q 390 296 381 324 q 399 239 399 268 q 390 182 399 210 q 365 133 382 154 q 322 99 347 111 q 261 86 296 86 m 392 469 q 392 440 392 454 q 393 413 393 426 q 334 446 368 433 q 257 458 300 458 q 165 438 206 457 q 98 389 125 419 q 57 319 71 358 q 43 239 43 281 q 102 80 42 139 q 261 21 163 21 q 343 36 307 21 q 404 76 379 51 q 406 6 406 40 q 404 -71 406 -29 q 395 -140 403 -107 q 372 -198 388 -172 q 331 -240 357 -224 q 269 -257 306 -256 q 208 -244 235 -257 q 157 -207 181 -231 q 129 -196 146 -196 q 99 -214 110 -196 q 104 -251 88 -232 q 179 -306 136 -289 q 271 -322 222 -322 q 364 -295 325 -318 q 428 -237 403 -272 q 465 -158 453 -201 q 478 -69 478 -115 q 478 47 479 -6 q 476 159 478 100 q 470 292 474 218 q 463 469 467 365 q 449 492 461 485 q 424 500 438 500 q 401 492 411 500 q 392 469 392 485 z "},"h":{"ha":567,"x_min":35,"x_max":547,"o":"m 104 844 q 126 841 114 844 q 150 830 139 838 q 169 810 161 822 q 176 779 176 797 q 176 622 176 700 q 178 465 176 544 q 303 497 235 497 q 423 467 376 497 q 496 388 469 436 q 533 280 522 340 q 544 161 543 219 q 547 89 547 124 q 546 24 546 54 q 537 -8 546 4 q 517 -26 528 -19 q 494 -35 506 -33 q 475 -37 482 -37 q 457 -35 468 -37 q 435 -26 446 -33 q 416 -8 424 -19 q 408 22 408 4 q 409 70 408 43 q 410 128 410 97 q 407 197 410 157 q 394 275 404 238 q 361 339 383 313 q 300 365 339 365 q 233 340 257 365 q 197 277 208 314 q 183 199 185 240 q 181 125 181 157 q 182 67 181 94 q 183 18 183 39 q 175 -14 183 -1 q 155 -33 167 -26 q 131 -41 143 -39 q 113 -43 119 -43 q 93 -41 104 -43 q 72 -33 82 -39 q 53 -17 61 -28 q 42 10 44 -7 q 40 32 40 21 q 40 54 40 43 q 41 74 40 65 q 40 93 42 83 l 39 265 q 36 522 38 394 q 35 778 35 649 q 58 828 35 811 q 104 844 81 844 m 69 778 q 70 583 69 676 q 72 397 71 489 q 74 212 74 306 q 76 15 75 118 q 88 -3 76 3 q 113 -8 99 -8 q 138 -2 126 -8 q 149 18 150 4 l 146 182 q 194 349 154 299 q 300 400 235 400 q 391 358 354 400 q 435 257 428 315 q 442 140 442 200 q 443 22 443 81 q 453 3 443 10 q 475 -3 464 -3 q 500 4 489 -3 q 511 24 511 11 q 510 140 511 78 q 500 263 508 203 q 480 342 494 306 q 442 405 465 378 q 384 447 418 432 q 303 463 350 463 q 208 442 247 461 q 143 390 169 422 q 142 512 143 461 q 142 605 142 563 q 142 688 142 647 q 142 779 142 729 q 131 802 142 794 q 104 810 119 810 q 81 802 92 810 q 69 778 69 794 z "},"d":{"ha":567,"x_min":8,"x_max":532,"o":"m 261 394 q 178 358 208 394 q 147 263 147 321 q 178 164 147 201 q 264 126 208 126 q 352 160 317 126 q 388 247 388 194 q 353 351 388 308 q 261 394 318 394 m 388 497 q 388 567 388 531 q 388 642 388 604 q 389 716 388 679 q 394 783 390 753 q 399 804 396 793 q 411 826 403 815 q 432 843 419 836 q 463 850 444 850 q 513 828 494 850 q 532 779 532 806 q 528 627 532 703 q 525 474 525 551 q 528 251 525 361 q 531 28 531 140 q 507 -20 531 -3 q 463 -37 483 -37 q 433 -31 444 -37 q 413 -16 421 -25 q 401 3 406 -7 q 394 24 397 14 q 265 -8 333 -8 q 159 13 207 -8 q 78 71 111 35 q 26 156 44 107 q 8 261 8 206 q 25 364 8 315 q 74 449 42 413 q 152 508 106 486 q 258 529 199 529 q 388 497 326 529 m 422 247 q 409 181 422 210 q 374 133 396 153 q 322 102 351 113 q 264 92 293 92 q 167 126 211 92 q 114 235 122 160 q 119 319 108 283 q 152 380 131 356 q 202 417 174 404 q 261 429 231 429 q 319 418 290 429 q 370 384 347 407 q 407 327 393 361 q 422 247 421 293 m 429 779 q 423 598 425 683 q 422 428 421 513 q 346 478 389 461 q 258 494 303 494 q 175 479 215 494 q 105 433 135 464 q 58 354 75 401 q 43 243 40 307 q 67 147 47 188 q 119 79 88 106 q 188 40 150 53 q 265 26 226 26 q 352 42 310 26 q 426 89 394 57 q 427 58 426 74 q 428 28 428 43 q 441 5 431 13 q 463 -3 451 -3 q 483 5 474 -3 q 496 28 493 13 q 493 222 494 131 q 491 404 492 314 q 492 586 490 494 q 497 779 493 678 q 485 807 496 799 q 463 815 475 815 q 441 807 451 815 q 429 779 431 799 z "},"i":{"ha":243,"x_min":49,"x_max":194,"o":"m 117 675 q 166 655 146 675 q 186 606 186 635 q 165 556 186 575 q 117 538 143 538 q 69 558 89 538 q 49 606 49 578 q 67 653 49 632 q 117 675 86 675 m 119 536 q 169 516 149 536 q 189 465 189 496 q 192 238 189 351 q 194 10 194 124 q 187 -21 194 -8 q 169 -41 179 -33 q 146 -52 158 -49 q 124 -56 133 -56 q 101 -52 114 -56 q 78 -41 89 -49 q 60 -21 68 -33 q 53 10 53 -8 q 51 238 53 124 q 49 465 49 351 q 69 516 49 496 q 119 536 89 536 m 83 606 q 93 582 83 592 q 117 572 103 572 q 142 582 132 572 q 151 606 151 592 q 142 631 151 621 q 117 640 132 640 q 93 631 103 640 q 83 606 83 621 m 83 465 q 84 347 83 403 q 85 238 85 292 q 87 128 86 183 q 88 10 88 72 q 99 -13 88 -6 q 124 -21 110 -21 q 149 -13 138 -21 q 160 10 160 -6 q 159 128 160 72 q 157 238 158 183 q 155 347 156 292 q 154 465 154 403 q 143 492 154 483 q 119 501 132 501 q 94 492 106 501 q 83 465 83 483 z "},"j":{"ha":231,"x_min":-229,"x_max":194,"o":"m 129 540 q 174 517 157 538 q 190 469 190 497 q 192 251 190 360 q 194 32 194 142 q 188 -93 194 -25 q 159 -219 182 -161 q 92 -317 136 -278 q -28 -357 49 -357 q -92 -345 -61 -357 q -147 -314 -122 -333 q -192 -269 -172 -294 q -224 -217 -211 -244 q -229 -186 -229 -204 q -208 -137 -229 -157 q -160 -118 -187 -118 q -128 -128 -140 -118 q -108 -146 -115 -139 q -97 -162 -103 -153 q -83 -181 -90 -171 q -58 -207 -72 -197 q -22 -217 -44 -217 q 17 -194 3 -217 q 38 -142 31 -172 q 48 -80 46 -111 q 51 -31 50 -49 l 51 47 q 50 258 51 153 q 49 469 49 364 q 65 516 49 497 q 107 540 81 535 q 66 563 83 543 q 49 607 49 582 q 67 655 49 633 q 117 676 86 676 q 166 656 146 676 q 186 607 186 636 q 169 563 186 581 q 129 540 153 544 m 83 607 q 93 583 83 593 q 117 574 103 574 q 142 583 132 574 q 151 607 151 593 q 142 632 151 622 q 117 642 132 642 q 93 632 103 642 q 83 607 83 622 m 83 469 q 84 355 83 404 q 85 259 85 306 q 85 163 85 213 q 86 47 86 114 q 84 -58 86 -6 q 72 -152 82 -110 q 40 -222 61 -194 q -22 -251 18 -249 q -89 -228 -62 -251 q -132 -171 -115 -206 q -160 -153 -140 -153 q -189 -167 -176 -153 q -192 -203 -201 -181 q -125 -288 -169 -253 q -28 -322 -81 -324 q 74 -288 36 -322 q 131 -201 111 -254 q 155 -81 150 -147 q 160 47 160 -15 q 158 163 158 114 q 156 259 157 213 q 156 355 156 306 q 156 469 156 404 q 144 497 156 489 q 119 506 133 506 q 94 497 106 506 q 83 469 83 489 z "},"k":{"ha":522,"x_min":35,"x_max":542,"o":"m 107 857 q 157 838 136 857 q 179 786 178 818 l 186 382 l 329 500 q 349 513 338 507 q 375 518 360 518 q 424 497 403 518 q 446 447 446 475 q 424 401 446 419 l 235 244 l 503 101 q 528 81 515 94 q 542 42 542 67 q 523 -7 542 14 q 474 -28 504 -28 q 467 -28 471 -28 q 456 -25 463 -28 q 449 -23 453 -24 q 442 -19 446 -22 q 426 -12 435 -17 q 406 -1 417 -8 q 298 53 351 26 q 192 111 244 81 q 193 66 193 88 q 193 22 193 44 q 172 -28 193 -10 q 122 -47 150 -47 q 74 -29 94 -47 q 51 21 53 -11 l 36 786 q 57 838 35 818 q 107 857 79 857 m 86 21 q 99 -5 88 3 q 122 -12 110 -12 q 148 -3 136 -12 q 158 25 160 6 l 156 169 l 460 10 q 474 7 465 7 q 494 15 485 7 q 506 33 503 22 q 506 53 510 43 q 486 71 501 64 l 172 239 l 401 428 q 410 444 410 435 q 407 463 411 454 q 394 477 403 471 q 375 483 386 483 q 351 474 363 483 l 153 308 l 144 786 q 133 813 144 804 q 107 822 122 822 q 82 813 93 822 q 71 786 71 804 l 86 21 z "},"l":{"ha":246,"x_min":49,"x_max":197,"o":"m 118 847 q 168 826 150 847 q 186 776 186 804 l 197 21 q 190 -10 197 3 q 172 -31 183 -22 q 149 -42 161 -39 q 126 -46 136 -46 q 103 -42 115 -46 q 79 -31 90 -39 q 61 -10 68 -22 q 54 21 54 3 l 49 776 q 67 826 49 804 q 118 847 86 847 m 89 21 q 100 -3 89 6 q 126 -11 111 -11 q 151 -3 140 -11 q 163 21 163 6 l 151 776 q 141 803 151 794 q 118 813 131 813 q 94 803 104 813 q 83 776 83 794 l 89 21 z "},"m":{"ha":865,"x_min":35,"x_max":844,"o":"m 172 469 q 229 506 197 492 q 301 519 261 519 q 401 485 363 519 q 464 400 440 451 q 529 478 489 444 q 625 513 569 513 q 735 476 694 513 q 799 385 776 439 q 831 268 822 331 q 843 153 840 206 q 844 83 844 117 q 844 25 844 50 q 822 -24 844 -8 q 776 -39 799 -39 q 730 -24 747 -39 q 707 19 713 -8 q 705 60 706 35 q 703 115 704 85 q 701 178 703 144 q 696 244 700 211 q 691 281 694 258 q 681 324 688 303 q 661 362 674 346 q 629 378 649 378 q 588 356 604 378 q 560 299 571 333 q 543 222 549 264 q 535 139 538 179 q 531 65 532 99 q 531 17 531 32 q 523 -14 531 -1 q 504 -33 515 -26 q 481 -44 493 -40 q 460 -47 468 -47 q 412 -28 426 -47 q 393 13 397 -10 q 389 53 390 28 q 386 110 388 79 q 382 176 385 142 q 375 244 379 211 q 369 282 374 258 q 355 328 364 306 q 333 367 346 350 q 300 383 319 383 q 258 363 275 383 q 228 311 240 343 q 209 240 215 279 q 199 161 203 200 q 194 88 194 122 q 193 32 193 53 q 194 22 193 25 q 174 -30 194 -10 q 121 -50 154 -50 q 81 -40 101 -50 q 54 -1 61 -31 q 49 44 51 10 q 44 126 46 79 q 40 227 42 174 q 38 328 39 281 q 35 414 36 376 q 35 465 35 451 q 55 515 35 493 q 104 536 75 536 q 138 526 124 536 q 160 503 151 517 q 172 469 168 486 m 138 465 q 126 492 136 483 q 104 501 117 501 q 82 492 92 501 q 69 465 72 483 q 78 226 76 343 q 88 7 79 110 q 98 -10 88 -4 q 121 -15 108 -15 q 144 -10 133 -15 q 158 7 156 -4 q 159 80 158 38 q 164 168 160 122 q 176 258 168 214 q 201 338 185 303 q 241 396 217 374 q 300 418 265 418 q 365 383 342 419 q 401 288 389 346 q 419 158 414 229 q 428 18 424 88 q 438 -6 428 1 q 460 -12 449 -12 q 485 -5 474 -12 q 496 17 497 3 q 499 172 492 100 q 523 297 506 244 q 567 381 540 350 q 629 413 593 411 q 693 376 671 414 q 726 282 715 339 q 738 156 736 225 q 742 25 740 88 q 752 3 742 10 q 776 -4 763 -4 q 799 3 789 -4 q 810 25 810 10 q 806 181 810 100 q 783 327 801 261 q 728 435 765 393 q 625 478 692 478 q 566 461 593 478 q 518 418 539 444 q 483 361 497 392 q 461 303 468 331 q 440 366 453 333 q 409 425 428 399 q 364 468 390 451 q 301 485 338 485 q 205 451 243 483 q 142 371 167 419 l 138 465 z "},"n":{"ha":554,"x_min":35,"x_max":533,"o":"m 171 486 q 283 517 219 517 q 385 495 343 517 q 454 438 426 474 q 498 356 482 403 q 522 259 514 310 q 531 158 529 208 q 533 64 533 107 q 533 44 533 54 q 532 25 533 35 q 526 4 531 15 q 515 -17 522 -7 q 494 -35 507 -28 q 463 -42 482 -42 q 411 -15 425 -42 q 394 43 397 11 q 394 88 392 65 q 396 124 396 110 q 393 192 396 149 q 380 277 390 235 q 349 350 369 319 q 292 381 328 381 q 220 349 244 381 q 185 256 196 317 q 178 194 179 225 q 178 132 178 163 q 179 72 178 100 q 181 24 181 44 q 161 -26 181 -6 q 113 -46 142 -46 q 63 -26 82 -46 q 43 24 43 -6 q 39 250 43 138 q 35 476 35 363 q 53 525 35 504 q 103 546 72 546 q 152 526 138 546 q 171 486 167 506 m 146 24 l 146 172 q 150 255 146 213 q 169 332 154 297 q 211 390 183 367 q 286 415 239 413 q 355 392 328 415 q 398 335 382 369 q 421 261 414 300 q 429 189 428 222 q 431 101 432 144 q 431 24 429 58 q 441 1 431 8 q 463 -7 451 -7 q 485 2 475 -7 q 497 29 496 11 q 499 105 499 63 q 496 192 499 147 q 482 294 493 243 q 446 388 471 346 q 380 456 421 429 q 278 482 339 482 q 196 460 229 479 q 139 410 163 442 l 138 476 q 126 503 138 494 q 103 511 115 511 q 80 503 90 511 q 69 476 69 494 q 74 255 69 365 q 78 24 78 144 q 88 -2 78 7 q 113 -11 99 -11 q 135 -2 125 -11 q 146 24 146 7 z "},"o":{"ha":511,"x_min":8,"x_max":503,"o":"m 8 239 q 27 338 8 292 q 78 418 46 383 q 157 473 111 453 q 257 493 203 493 q 360 473 315 493 q 438 418 406 453 q 486 337 469 383 q 503 236 503 290 q 485 136 503 182 q 433 57 467 90 q 354 5 400 24 q 253 -14 308 -14 q 151 6 197 -14 q 74 59 106 25 q 26 139 43 93 q 8 239 8 185 m 364 239 q 334 324 364 292 q 254 357 304 357 q 178 322 208 357 q 149 236 149 286 q 181 154 149 188 q 261 121 214 121 q 337 153 310 121 q 364 239 364 186 m 468 236 q 456 318 468 278 q 417 390 443 358 q 350 440 390 421 q 257 458 310 458 q 165 438 206 457 q 98 389 125 419 q 57 319 71 358 q 43 239 43 281 q 56 158 43 197 q 94 89 68 119 q 159 40 119 58 q 253 21 199 21 q 408 81 350 21 q 468 236 467 140 m 261 86 q 153 134 190 89 q 114 236 115 179 q 123 292 114 265 q 149 341 132 319 q 193 376 167 363 q 254 392 219 390 q 317 379 290 392 q 362 345 343 367 q 390 296 381 324 q 399 239 399 268 q 390 182 399 210 q 365 133 382 154 q 322 99 347 111 q 261 86 296 86 z "},"p":{"ha":544,"x_min":35,"x_max":536,"o":"m 292 104 q 374 139 343 104 q 404 226 404 174 q 376 310 404 278 q 300 343 347 343 q 214 309 247 343 q 181 221 181 275 q 211 136 181 168 q 292 104 242 104 m 178 444 q 237 467 206 460 q 300 474 268 474 q 398 454 354 474 q 472 401 442 435 q 519 322 503 367 q 536 226 536 276 q 517 124 536 171 q 465 44 499 78 q 384 -9 431 10 q 282 -28 338 -28 q 226 -22 254 -28 q 174 -4 199 -17 l 172 -286 q 154 -335 172 -314 q 104 -356 136 -356 q 53 -334 72 -356 q 35 -285 35 -312 l 39 447 q 57 496 39 474 q 108 518 75 518 q 141 510 128 518 q 162 491 154 503 q 173 467 169 479 q 178 444 176 454 m 293 378 l 300 378 q 377 355 346 378 q 424 298 408 332 q 439 224 439 264 q 422 150 439 185 q 373 92 406 115 q 292 69 340 69 q 211 92 243 69 q 163 147 179 114 q 146 220 146 181 q 162 294 146 260 q 211 352 178 328 q 293 378 244 376 m 293 7 q 410 43 364 10 q 478 124 456 76 q 501 227 501 172 q 478 329 501 282 q 411 408 456 376 q 300 439 367 439 q 213 424 254 439 q 140 374 172 408 l 142 447 q 131 475 142 467 q 108 483 121 483 q 84 475 94 483 q 74 447 74 467 l 69 -285 q 81 -312 69 -303 q 104 -321 92 -321 q 127 -312 117 -321 q 138 -286 138 -304 l 139 61 q 210 18 172 29 q 293 7 249 7 z "},"q":{"ha":539,"x_min":8,"x_max":722,"o":"m 147 239 q 177 153 147 186 q 257 119 207 119 q 333 155 303 119 q 363 240 363 190 q 330 322 363 288 q 250 356 297 356 q 174 324 201 356 q 147 239 147 292 m 368 467 q 372 488 369 475 q 383 513 375 500 q 403 533 390 525 q 438 542 417 542 q 487 518 469 542 q 504 471 504 494 q 503 260 504 365 q 501 50 501 156 q 501 19 501 38 q 501 -24 501 0 q 503 -74 501 -47 q 508 -125 504 -100 q 513 -150 510 -133 q 521 -183 515 -167 q 534 -212 526 -200 q 553 -225 542 -225 q 569 -219 561 -225 q 588 -197 576 -212 q 592 -190 590 -193 q 597 -182 594 -186 q 611 -165 606 -171 q 630 -149 618 -157 q 661 -140 642 -140 q 689 -147 678 -140 q 708 -164 700 -154 q 719 -185 715 -174 q 722 -207 722 -197 q 703 -267 722 -239 q 658 -314 685 -294 q 600 -344 631 -333 q 546 -356 569 -356 q 444 -316 481 -356 q 390 -219 408 -276 q 369 -100 372 -162 q 365 10 365 -37 q 312 -10 340 -4 q 254 -17 283 -17 q 151 3 196 -17 q 74 58 106 24 q 25 140 42 93 q 8 240 8 186 q 26 340 8 294 q 77 419 44 386 q 156 472 110 453 q 256 490 201 490 q 368 465 317 490 l 368 467 m 250 390 q 358 342 321 388 q 397 240 394 297 q 388 184 397 211 q 362 135 379 157 q 318 100 344 114 q 257 85 292 86 q 195 97 222 85 q 149 131 168 110 q 122 181 131 153 q 113 239 113 210 q 121 295 113 268 q 147 344 129 322 q 190 378 164 365 q 250 390 215 390 m 404 397 q 333 442 372 429 q 250 456 294 456 q 160 437 199 456 q 95 388 121 418 q 56 319 69 357 q 43 240 43 281 q 56 158 43 199 q 94 87 68 118 q 161 37 121 56 q 254 18 201 18 q 337 34 300 18 q 401 75 374 50 q 401 -12 401 33 q 404 -99 401 -57 q 414 -180 407 -142 q 435 -244 421 -218 q 484 -303 454 -285 q 546 -321 514 -321 q 624 -296 586 -321 q 683 -226 663 -271 q 685 -190 693 -206 q 661 -175 676 -175 q 643 -181 653 -175 q 626 -201 633 -186 q 592 -245 611 -231 q 553 -260 572 -260 q 510 -240 529 -260 q 483 -183 492 -221 q 468 -49 469 -117 q 467 85 467 19 q 467 167 467 126 q 467 251 467 207 q 469 349 468 296 q 469 471 469 403 q 458 499 468 490 q 438 507 449 507 q 415 499 425 507 q 404 471 406 490 l 404 397 z "},"r":{"ha":376,"x_min":35,"x_max":396,"o":"m 174 474 q 244 489 208 489 q 288 482 261 489 q 338 460 314 475 q 378 424 361 446 q 396 371 396 401 q 381 328 396 351 q 335 306 367 306 q 310 310 319 306 q 293 321 300 314 q 281 332 289 324 l 272 340 q 258 353 264 349 q 240 357 251 357 q 189 314 207 357 q 177 264 181 290 q 174 214 174 238 l 175 24 q 168 -6 175 6 q 151 -26 161 -18 q 128 -37 140 -33 q 106 -40 115 -40 q 83 -37 96 -40 q 60 -26 71 -33 q 43 -6 50 -18 q 36 24 36 6 l 35 474 q 53 523 35 501 q 104 544 72 544 q 136 537 124 544 q 156 519 149 529 q 168 496 164 508 q 174 474 172 483 m 71 24 q 82 1 71 8 q 106 -6 93 -6 q 130 1 119 -6 q 140 24 140 8 l 139 214 q 143 269 139 238 q 158 327 147 300 q 188 373 168 354 q 240 392 207 392 q 304 357 276 392 q 335 340 317 340 q 359 358 351 340 q 353 397 367 376 q 303 441 331 428 q 244 454 275 454 q 188 442 215 454 q 138 410 160 431 l 138 474 q 127 501 138 492 q 104 510 117 510 q 80 501 90 510 q 69 474 69 492 l 71 24 z "},"s":{"ha":456,"x_min":8,"x_max":447,"o":"m 311 126 q 306 145 311 138 q 286 160 301 153 q 194 186 242 176 q 132 206 163 194 q 78 234 101 217 q 40 278 54 251 q 26 343 26 304 q 47 425 26 390 q 99 482 67 460 q 169 515 131 504 q 243 526 207 526 q 299 518 267 526 q 358 494 331 510 q 406 457 386 479 q 425 406 425 435 q 405 360 425 378 q 360 342 385 342 q 336 347 346 342 q 321 356 326 353 q 283 382 301 371 q 239 393 265 393 q 184 379 204 393 q 164 347 164 365 q 172 340 167 344 q 186 333 178 336 q 230 319 206 325 q 281 306 254 313 q 336 285 307 297 q 390 253 365 274 q 431 203 415 233 q 447 129 447 174 q 424 45 447 78 q 365 -7 400 13 q 290 -34 329 -26 q 219 -42 251 -42 q 158 -36 194 -42 q 89 -17 122 -31 q 32 18 56 -4 q 8 74 8 40 q 28 125 8 101 q 81 149 49 149 q 103 142 90 149 q 108 139 106 140 q 115 135 111 138 q 130 128 122 132 q 147 118 138 124 q 190 103 167 110 q 240 96 213 96 q 260 97 247 96 q 283 101 272 99 q 303 110 294 104 q 311 126 311 117 m 103 104 q 81 114 93 114 q 61 108 71 114 q 47 91 51 101 q 43 69 42 81 q 54 47 44 58 q 126 7 81 21 q 219 -7 171 -7 q 290 1 256 -7 q 351 24 324 8 q 394 65 378 40 q 413 122 411 89 q 394 198 414 169 q 342 244 374 226 q 274 271 311 261 q 205 290 238 281 q 151 312 172 300 q 129 347 129 324 q 157 403 128 383 q 225 428 186 424 q 283 421 254 428 q 332 390 311 414 q 360 376 344 376 q 386 392 376 376 q 383 425 396 407 q 316 477 357 463 q 231 492 275 492 q 166 479 197 490 q 110 448 135 468 q 72 399 86 428 q 61 331 58 369 q 87 272 64 293 q 141 239 110 251 q 208 219 172 226 q 275 201 244 211 q 326 174 306 190 q 346 126 346 157 q 313 76 344 92 q 240 61 282 61 q 161 73 200 61 q 103 104 122 85 z "},"t":{"ha":386,"x_min":-19,"x_max":406,"o":"m 263 18 q 239 -30 263 -14 q 194 -46 215 -46 q 173 -42 185 -46 q 151 -31 161 -39 q 133 -10 140 -22 q 125 18 125 1 l 119 382 l 53 381 q 28 384 42 381 q 5 396 15 388 q -12 417 -6 404 q -19 447 -19 429 q -12 476 -19 464 q 4 496 -6 489 q 26 507 14 503 q 47 511 38 511 l 118 513 l 115 725 q 133 774 115 753 q 183 796 151 796 q 234 774 215 796 q 253 725 253 753 l 256 517 l 336 518 q 385 499 365 519 q 406 450 406 479 q 388 406 406 422 q 344 388 369 389 l 257 386 l 263 18 m 343 422 q 365 433 358 422 q 371 454 372 443 q 361 474 369 465 q 338 483 353 483 l 221 481 l 218 725 q 207 752 218 743 q 183 761 196 761 q 160 752 171 761 q 150 725 150 743 l 153 479 l 49 476 q 22 467 31 476 q 15 445 14 457 q 26 424 17 433 q 53 415 36 415 l 154 417 l 160 18 q 173 -4 163 3 q 194 -11 183 -11 q 217 -4 207 -11 q 228 18 226 3 l 222 419 l 343 422 z "},"u":{"ha":542,"x_min":21,"x_max":507,"o":"m 369 6 q 247 -29 315 -29 q 133 4 176 -29 q 67 88 90 38 q 34 200 43 139 q 22 315 25 261 q 22 384 21 351 q 22 444 22 417 q 44 494 22 476 q 92 513 65 513 q 141 493 126 513 q 160 451 156 474 q 163 408 163 433 q 164 352 164 382 q 165 290 164 322 q 169 226 165 258 q 251 103 186 103 q 309 131 288 103 q 342 199 331 160 q 356 280 353 238 q 361 349 360 322 q 363 405 363 379 q 363 450 363 431 q 385 501 363 483 q 433 518 408 518 q 479 503 461 518 q 501 461 497 488 q 504 426 504 444 q 504 389 504 408 q 503 356 504 372 q 504 324 503 339 q 506 172 506 247 q 507 21 507 97 q 485 -30 507 -12 q 438 -47 463 -47 q 390 -31 406 -47 q 369 6 375 -14 m 467 456 q 456 477 465 471 q 433 483 446 483 q 408 475 419 483 q 397 450 397 467 l 397 392 q 363 153 396 238 q 251 68 329 68 q 196 85 218 68 q 160 130 174 101 q 140 197 146 158 q 131 276 133 235 q 127 362 128 318 q 125 446 126 406 q 115 469 125 461 q 92 478 104 478 q 68 469 79 478 q 57 444 57 460 q 60 294 57 372 q 81 151 63 215 q 137 45 99 86 q 247 6 175 4 q 339 28 301 6 q 401 89 376 50 l 401 18 q 413 -5 401 3 q 438 -12 424 -12 q 461 -4 450 -12 q 472 21 472 4 q 472 122 472 83 q 471 186 471 160 q 471 234 471 213 q 470 283 471 256 q 469 350 469 310 q 467 456 468 390 z "},"v":{"ha":447,"x_min":-7,"x_max":454,"o":"m 61 518 q 105 502 89 518 q 128 468 121 486 l 232 188 l 317 456 q 324 472 319 463 q 338 491 329 482 q 358 506 346 500 q 386 513 369 513 q 436 489 418 513 q 454 440 454 465 q 454 434 454 438 q 451 425 454 431 q 447 408 451 419 q 441 388 444 400 q 433 363 438 376 q 413 302 425 335 q 390 233 401 269 q 366 165 378 199 q 344 101 354 131 q 326 51 333 72 q 317 21 319 29 q 299 -6 311 4 q 274 -23 288 -17 q 248 -31 261 -29 q 226 -33 235 -33 q 187 -24 210 -33 q 153 13 164 -15 q 140 44 149 22 q 120 97 132 67 q 94 162 108 126 q 67 233 81 197 q 40 304 53 269 q 17 367 28 339 q 8 394 11 382 q 1 415 4 406 q -2 425 -1 421 q -4 432 -3 429 q -6 443 -6 439 q -7 450 -7 447 q 13 498 -7 478 q 61 518 32 518 m 185 25 q 201 7 190 13 q 226 1 213 1 q 263 10 246 1 q 283 32 279 18 l 417 425 q 413 463 424 449 q 386 478 401 478 q 365 470 375 478 q 350 444 356 463 l 235 81 l 96 456 q 81 477 90 471 q 61 483 72 483 q 33 469 44 483 q 32 431 22 454 l 185 25 z "},"w":{"ha":696,"x_min":-7,"x_max":701,"o":"m 65 524 q 103 510 86 524 q 126 474 121 497 l 181 228 q 222 350 201 290 q 264 471 242 410 q 290 504 272 494 q 328 514 308 514 q 368 504 346 514 q 400 468 390 494 l 501 196 l 565 463 q 589 501 571 486 q 633 517 607 517 q 681 498 661 517 q 701 449 701 479 q 694 408 701 439 q 677 334 688 376 q 653 243 667 292 q 628 150 640 194 q 606 71 615 106 q 592 21 596 36 q 576 -8 588 3 q 550 -26 564 -19 q 523 -34 536 -32 q 503 -36 510 -36 q 463 -27 486 -36 q 428 10 439 -18 l 333 263 l 253 17 q 215 -25 242 -14 q 169 -36 189 -36 q 124 -24 146 -36 q 94 19 101 -11 q 88 50 93 28 q 74 103 82 72 q 58 169 67 133 q 40 243 49 206 q 24 313 32 278 q 8 378 15 349 q -3 428 1 407 q -7 456 -7 450 q 17 506 -7 488 q 65 524 40 524 m 128 28 q 142 6 131 13 q 169 -1 154 -1 q 199 6 185 -1 q 219 28 214 14 l 332 368 l 460 22 q 476 4 465 10 q 503 -1 488 -1 q 538 7 521 -1 q 558 29 556 15 l 665 436 q 660 470 672 458 q 633 482 649 482 q 612 476 622 482 q 599 454 601 469 l 508 76 l 368 456 q 352 473 364 467 q 328 479 340 479 q 308 474 317 479 q 296 458 299 469 q 272 388 288 433 q 240 292 257 343 q 205 189 222 240 q 174 100 188 138 l 93 467 q 83 483 90 478 q 65 489 75 489 q 37 477 50 489 q 29 446 24 465 l 128 28 z "},"x":{"ha":457,"x_min":-7,"x_max":463,"o":"m 290 494 q 316 518 300 508 q 351 528 332 528 q 396 511 375 528 q 417 465 417 494 q 410 436 417 451 q 403 423 407 429 q 396 408 400 417 q 349 333 372 371 q 299 260 325 296 q 368 166 335 214 q 433 69 401 118 q 444 52 440 60 q 453 38 449 44 q 458 24 456 32 q 461 17 460 21 q 463 6 463 13 q 439 -45 463 -26 q 390 -64 415 -64 q 358 -56 372 -64 q 335 -35 344 -47 l 219 135 l 121 -18 q 97 -40 111 -32 q 65 -49 83 -49 q 17 -30 42 -49 q -7 21 -7 -11 q 3 51 -7 32 q 18 81 6 61 q 65 156 36 111 q 103 210 85 183 q 135 257 122 238 q 107 295 124 272 q 74 342 90 318 q 50 376 61 360 q 31 407 39 392 q 23 422 26 415 q 17 435 19 428 q 10 452 11 444 q 8 464 8 460 q 30 513 8 496 q 75 529 51 529 q 110 519 94 529 q 136 496 125 510 l 215 381 l 290 494 m 107 476 q 75 494 94 494 q 46 479 57 494 q 50 443 35 464 l 176 257 l 33 38 q 33 2 21 18 q 65 -14 46 -14 q 92 1 82 -14 l 218 197 l 364 -15 q 390 -29 374 -29 q 422 -13 410 -29 q 422 22 435 3 l 257 260 l 375 443 q 379 478 389 464 q 351 493 369 493 q 319 475 333 493 l 217 318 l 107 476 z "},"y":{"ha":468,"x_min":-7,"x_max":474,"o":"m 104 -285 q 104 -278 104 -282 q 106 -271 104 -275 q 107 -265 107 -268 q 108 -258 107 -261 q 113 -242 111 -251 q 118 -224 115 -233 q 131 -181 124 -204 q 146 -133 139 -157 q 172 -55 160 -93 q 192 4 185 -17 q 174 41 185 18 q 149 92 163 64 q 120 153 136 121 q 89 218 104 185 q 53 291 69 256 q 25 356 38 326 q 9 388 17 371 q -3 424 1 406 q -7 443 -7 436 q 13 490 -7 471 q 60 510 32 510 q 100 496 83 510 q 125 467 117 482 l 253 196 l 340 467 q 363 501 347 483 q 408 519 379 519 q 456 500 438 519 q 474 453 474 481 q 464 410 474 444 q 438 324 454 375 q 403 209 422 272 q 363 82 383 146 q 320 -48 342 17 q 281 -167 299 -112 q 251 -259 264 -221 q 235 -311 239 -297 q 213 -343 228 -331 q 175 -356 197 -356 q 125 -335 146 -356 q 104 -285 104 -314 m 436 436 q 434 472 444 458 q 408 485 424 485 q 388 478 397 485 q 374 456 378 471 l 260 103 l 93 451 q 60 475 82 475 q 33 460 43 475 q 33 422 22 446 l 229 7 l 142 -269 q 147 -307 133 -293 q 175 -321 160 -321 q 191 -316 183 -321 q 201 -300 199 -311 l 436 436 z "},"z":{"ha":451,"x_min":7,"x_max":472,"o":"m 89 383 q 41 401 63 383 q 19 450 19 419 q 42 500 19 482 q 90 518 64 518 l 344 517 q 379 508 365 517 q 403 486 393 499 q 417 459 413 474 q 421 432 421 444 q 417 401 421 417 q 401 372 413 386 l 197 104 q 303 110 250 107 q 410 113 357 113 q 439 106 426 113 q 458 88 451 99 q 469 66 465 78 q 472 44 472 54 q 456 -1 472 21 q 407 -25 439 -24 l 74 -35 q 40 -26 53 -35 q 19 -4 26 -17 q 9 22 11 8 q 7 42 7 35 q 13 76 7 61 q 29 106 18 92 l 238 385 l 89 383 m 307 421 l 57 85 q 44 58 47 74 q 42 30 40 43 q 52 8 44 17 q 72 0 60 0 l 406 10 q 430 22 422 11 q 437 46 438 33 q 428 69 436 58 q 406 78 421 79 l 125 67 l 374 393 q 385 422 383 407 q 383 451 388 438 q 369 473 379 464 q 344 482 360 482 l 90 483 q 63 473 72 483 q 54 451 54 463 q 63 428 54 439 q 89 418 72 418 l 307 421 z "},"A":{"ha":614,"x_min":-21,"x_max":635,"o":"m 300 606 l 221 344 l 382 351 l 300 606 m 179 210 l 113 -15 q 51 -60 99 -60 q 3 -43 28 -60 q -21 8 -21 -26 q -17 28 -21 11 q -14 39 -15 32 q -10 53 -12 46 q 2 91 -4 69 q 17 140 8 113 q 53 263 32 194 q 96 403 74 331 q 140 545 118 475 q 180 673 163 615 q 210 771 197 731 q 226 824 222 811 q 251 861 233 846 q 294 876 269 876 q 340 862 321 876 q 368 824 360 847 q 385 771 372 811 q 418 673 399 731 q 461 545 438 615 q 508 404 485 475 q 554 265 532 332 q 594 144 576 197 q 610 95 603 117 q 622 57 617 74 q 631 32 626 40 q 635 11 635 14 q 627 -19 635 -7 q 608 -40 619 -32 q 585 -51 597 -47 q 563 -54 572 -54 q 525 -44 544 -54 q 499 -11 506 -35 l 424 221 q 365 217 397 219 q 301 214 333 215 q 237 211 268 213 q 179 210 206 210 m 429 318 l 174 308 l 299 722 l 429 318 m 449 257 l 532 0 q 563 -19 540 -19 q 591 -8 578 -19 q 597 22 604 3 l 335 813 q 319 834 331 826 q 294 842 307 842 q 274 835 283 842 q 260 814 264 829 l 15 17 q 23 -14 10 -3 q 51 -25 36 -25 q 79 -6 74 -25 l 154 244 l 156 244 l 446 257 l 449 257 z "},"B":{"ha":625,"x_min":35,"x_max":618,"o":"m 179 104 q 260 106 219 106 q 340 106 300 106 q 444 136 403 106 q 485 221 485 167 q 471 273 485 250 q 434 311 457 296 q 380 334 411 326 q 314 342 349 342 q 245 341 279 342 q 176 339 211 340 l 179 104 m 172 724 l 175 479 q 233 480 204 479 q 292 482 263 481 q 347 495 321 483 q 392 526 372 507 q 423 569 411 544 q 435 622 435 594 q 392 698 435 671 q 292 725 350 725 q 232 724 261 725 q 172 724 203 724 m 111 853 q 203 855 157 854 q 297 856 250 856 q 401 842 351 856 q 488 798 450 828 q 549 722 526 768 q 572 613 572 676 q 547 515 572 561 q 486 433 522 468 q 583 349 547 403 q 618 219 618 296 q 594 108 618 156 q 529 30 569 61 q 438 -17 489 -1 q 332 -33 386 -33 l 111 -33 q 65 -17 86 -33 q 43 32 43 0 l 35 783 q 43 816 35 803 q 63 838 51 829 q 88 849 74 846 q 111 853 101 853 m 307 376 q 381 369 343 376 q 450 342 419 361 q 500 294 481 324 q 519 221 519 265 q 509 167 519 194 q 477 119 499 140 q 422 84 456 97 q 340 71 388 71 l 144 69 l 142 372 l 307 376 m 292 760 q 424 718 379 760 q 469 622 468 676 q 457 561 469 592 q 422 506 444 531 q 366 465 399 481 q 293 447 333 449 l 140 443 l 138 757 l 292 760 m 78 32 q 88 9 78 17 q 111 1 97 1 l 332 1 q 434 17 388 1 q 514 61 481 32 q 565 131 547 90 q 583 219 583 171 q 541 348 583 294 q 415 422 499 401 q 461 457 439 436 q 501 504 483 478 q 529 560 519 531 q 538 621 539 590 q 515 713 536 675 q 461 776 494 751 q 383 810 428 800 q 289 821 339 821 l 111 818 q 83 810 97 818 q 69 783 69 803 l 78 32 z "},"C":{"ha":593,"x_min":8,"x_max":600,"o":"m 449 554 q 402 572 417 554 q 382 608 388 590 q 344 683 368 653 q 283 713 319 713 q 217 674 243 713 q 174 584 190 636 q 152 479 158 532 q 146 397 146 426 q 153 312 146 363 q 178 215 160 261 q 226 135 196 168 q 304 103 257 103 q 381 131 343 103 q 443 200 418 160 q 455 222 450 211 q 467 244 460 233 q 490 272 475 257 q 532 286 504 286 q 580 267 560 286 q 600 218 600 247 q 596 193 600 206 q 551 106 581 147 q 483 34 522 65 q 396 -16 443 3 q 296 -35 349 -35 q 194 -12 238 -35 q 118 47 150 10 q 65 131 86 83 q 31 227 43 178 q 13 324 18 276 q 8 407 8 371 q 14 499 8 450 q 33 598 19 549 q 67 693 46 647 q 119 774 88 739 q 192 831 150 810 q 286 853 233 853 q 367 832 326 853 q 442 778 408 811 q 496 705 475 746 q 517 624 517 664 q 499 575 517 596 q 449 554 481 554 m 482 629 q 458 697 476 664 q 414 758 440 731 q 355 801 388 785 q 286 818 322 818 q 269 817 275 818 q 167 771 210 808 q 97 677 125 733 q 56 551 69 621 q 43 407 43 481 q 56 276 43 347 q 97 143 68 204 q 175 41 126 82 q 296 0 224 0 q 383 16 342 0 q 460 60 425 32 q 522 126 496 89 q 563 204 549 163 q 558 238 569 225 q 532 251 547 251 q 497 226 510 251 q 465 169 485 197 q 419 118 444 140 q 364 82 394 96 q 299 68 333 68 q 205 107 242 68 q 147 201 168 146 q 117 315 125 256 q 111 413 110 374 q 124 524 113 467 q 155 631 135 582 q 206 711 175 679 q 276 747 236 743 q 326 736 303 747 q 367 708 349 725 q 399 667 386 690 q 415 618 411 643 q 428 596 418 603 q 449 589 438 589 q 474 599 463 589 q 482 629 485 610 z "},"D":{"ha":683,"x_min":35,"x_max":675,"o":"m 172 719 q 177 410 174 564 q 178 101 181 257 q 317 129 251 108 q 431 188 382 150 q 508 281 479 225 q 536 415 536 338 q 505 540 536 485 q 423 633 474 594 q 307 694 372 672 q 172 719 242 715 m 140 864 q 327 835 232 864 q 499 749 422 806 q 626 608 576 692 q 675 415 675 524 q 624 206 675 293 q 490 65 572 119 q 306 -15 408 10 q 104 -40 204 -40 q 57 -19 71 -40 q 40 21 43 1 q 36 143 35 78 q 36 267 38 208 q 35 529 35 399 q 35 792 35 660 q 44 831 35 817 q 68 852 53 844 q 102 862 83 860 q 140 864 121 864 m 571 415 q 536 259 571 324 q 442 152 501 194 q 306 89 383 110 q 143 64 228 68 q 144 243 144 158 q 142 410 143 328 q 139 577 140 493 q 138 756 138 661 q 294 734 217 756 q 434 669 372 713 q 533 562 496 625 q 571 415 571 499 m 69 792 q 69 592 69 686 q 70 406 69 497 q 72 222 71 315 q 75 25 74 129 q 104 -6 78 -6 q 335 31 235 -1 q 503 117 435 63 q 607 248 572 172 q 640 415 642 324 q 594 592 639 515 q 478 722 549 669 q 319 802 407 775 q 140 829 231 829 q 123 829 132 829 q 106 828 114 829 q 80 819 90 826 q 69 792 69 811 z "},"E":{"ha":618,"x_min":35,"x_max":610,"o":"m 35 29 l 40 779 q 56 828 40 804 q 108 851 72 851 l 538 856 q 587 833 569 856 q 604 786 604 811 q 588 740 604 761 q 539 718 571 718 l 178 714 l 174 475 l 518 482 q 547 476 535 482 q 568 459 560 469 q 581 436 576 449 q 585 413 585 424 q 568 366 585 386 q 519 344 551 346 l 174 338 l 171 100 l 543 104 q 593 81 576 104 q 610 33 610 57 q 592 -13 610 7 q 544 -33 575 -33 l 107 -37 q 59 -23 83 -37 q 35 29 35 -8 m 544 1 q 568 12 561 1 q 575 35 575 22 q 567 59 575 49 q 543 69 558 69 l 136 65 l 139 372 l 519 379 q 542 390 535 379 q 549 413 550 400 q 541 437 549 426 q 518 447 533 447 l 139 440 l 143 749 l 539 753 q 563 764 556 753 q 570 788 571 775 q 561 810 569 800 q 538 821 553 821 l 108 817 q 83 806 90 817 q 75 779 75 794 l 69 29 q 81 4 69 11 q 107 -3 92 -3 l 544 1 z "},"F":{"ha":553,"x_min":35,"x_max":558,"o":"m 558 783 q 541 736 558 758 q 492 714 524 714 l 171 713 l 174 468 l 468 472 q 517 451 500 472 q 533 406 533 431 q 517 358 533 381 q 467 335 500 335 l 174 331 l 178 32 q 160 -18 178 4 q 108 -40 142 -40 q 60 -19 79 -40 q 40 29 40 1 l 35 783 q 60 835 35 821 q 107 850 85 850 l 493 851 q 542 831 525 851 q 558 783 558 810 m 107 815 q 69 783 69 815 l 75 29 q 85 3 75 11 q 108 -6 96 -6 q 133 4 122 -6 q 143 32 144 14 l 139 365 l 467 369 q 490 380 482 369 q 499 403 499 390 q 492 427 499 417 q 468 438 485 438 l 139 433 l 136 747 l 492 749 q 515 759 507 749 q 524 783 524 769 q 517 806 525 796 q 493 817 510 817 l 107 815 z "},"G":{"ha":678,"x_min":8,"x_max":671,"o":"m 551 588 q 518 598 532 588 q 493 622 504 608 q 476 645 485 633 q 456 671 467 657 q 410 711 436 694 q 346 728 385 728 q 255 702 293 728 q 192 635 217 676 q 157 540 168 593 q 146 431 146 486 q 157 313 146 374 q 193 203 168 253 q 257 121 218 153 q 351 89 296 89 q 425 111 393 89 q 479 169 457 133 q 515 251 501 206 q 532 344 528 297 l 321 343 q 298 347 311 343 q 274 358 285 350 q 255 379 263 367 q 247 410 247 392 q 271 458 247 442 q 315 474 294 474 l 604 478 q 641 469 628 478 q 660 447 654 460 q 669 422 667 435 q 671 400 671 408 q 655 251 671 329 q 600 107 639 172 q 497 -1 561 42 q 336 -43 432 -43 q 228 -20 276 -43 q 144 41 181 3 q 83 128 108 79 q 40 230 57 178 q 16 333 24 282 q 8 425 8 383 q 26 575 8 497 q 83 717 43 653 q 189 822 124 781 q 349 863 254 863 q 499 819 433 863 q 603 703 565 775 q 612 681 608 693 q 615 656 615 669 q 599 610 615 632 q 551 588 583 588 m 572 686 q 481 790 536 753 q 349 828 425 828 q 208 792 267 828 q 113 698 150 756 q 60 568 76 640 q 43 425 43 496 q 61 283 44 358 q 114 142 78 207 q 207 35 150 78 q 344 -8 264 -8 q 452 15 407 -7 q 529 70 497 36 q 582 147 561 104 q 615 235 603 190 q 631 322 626 279 q 636 400 635 365 q 631 429 636 415 q 604 443 625 443 l 315 439 q 290 428 297 438 q 283 407 282 418 q 293 387 283 396 q 321 378 303 378 l 568 379 q 555 274 567 331 q 518 168 543 217 q 452 87 493 119 q 351 54 411 54 q 235 93 281 54 q 162 189 189 132 q 124 311 135 246 q 111 431 113 376 q 124 551 111 492 q 166 657 138 610 q 239 733 194 704 q 346 763 283 763 l 360 763 q 447 728 408 758 q 514 649 486 697 q 531 628 521 635 q 551 622 542 622 q 578 640 569 622 q 572 686 588 657 z "},"H":{"ha":697,"x_min":35,"x_max":663,"o":"m 106 853 q 128 849 117 853 q 151 838 140 846 q 169 818 163 831 q 176 788 176 806 q 176 631 176 708 q 178 475 176 554 l 524 481 l 525 779 q 544 828 525 806 q 594 850 563 850 q 644 827 626 850 q 663 779 663 804 l 661 28 q 645 -20 661 4 q 593 -44 629 -44 q 542 -22 560 -44 q 524 28 524 1 l 524 343 l 178 338 l 183 28 q 160 -23 185 -4 q 111 -42 136 -42 q 65 -25 86 -42 q 42 21 44 -8 q 38 147 36 83 q 39 274 40 211 q 36 530 38 403 q 35 786 35 657 q 58 836 35 819 q 106 853 81 853 m 69 786 q 70 591 69 685 q 72 406 71 497 q 74 220 74 314 q 76 24 75 126 q 88 1 78 8 q 111 -7 99 -7 q 135 1 125 -7 q 149 28 146 10 l 143 372 l 558 378 l 558 28 q 569 -1 558 8 q 593 -10 581 -10 q 616 -1 606 -10 q 626 28 626 8 l 628 779 q 617 807 626 799 q 594 815 607 815 q 572 807 582 815 q 560 779 563 799 l 558 446 l 143 440 q 142 544 143 500 q 142 627 142 589 q 142 703 142 665 q 142 788 142 742 q 131 810 142 803 q 106 818 119 818 q 81 810 92 818 q 69 786 69 803 z "},"I":{"ha":511,"x_min":-6,"x_max":517,"o":"m 181 713 l 63 713 q 15 732 35 713 q -6 781 -6 751 q 16 831 -6 813 q 65 850 38 850 l 451 851 q 500 831 483 851 q 517 785 517 810 q 500 738 517 761 q 450 714 483 714 l 315 713 l 322 104 l 447 106 q 497 83 479 106 q 515 36 515 61 q 499 -10 515 13 q 450 -32 482 -32 l 63 -35 q 15 -16 35 -35 q -6 32 -6 3 q 15 83 -6 64 q 65 103 36 103 l 185 104 l 181 713 m 65 68 q 39 58 49 68 q 28 35 29 47 q 36 11 28 22 q 63 0 44 0 l 450 3 q 473 13 465 3 q 480 37 481 24 q 472 60 479 50 q 447 71 464 71 l 288 69 l 281 747 l 450 749 q 474 759 465 749 q 482 783 482 769 q 475 806 482 796 q 451 817 468 817 l 65 815 q 39 805 49 815 q 28 782 29 794 q 36 758 28 769 q 63 747 44 747 l 215 747 l 219 69 l 65 68 z "},"J":{"ha":549,"x_min":-19,"x_max":514,"o":"m 440 872 q 490 851 471 872 q 508 801 508 829 q 511 603 508 701 q 514 406 514 506 q 506 258 514 338 q 472 112 499 179 q 392 0 444 44 q 249 -44 339 -44 q 160 -28 201 -44 q 85 15 119 -12 q 26 78 51 42 q -15 153 0 114 q -19 165 -18 160 q -19 176 -19 171 q 2 227 -19 206 q 53 249 24 249 q 88 237 76 249 q 107 214 100 225 q 121 188 114 200 q 136 163 128 175 q 181 108 156 131 q 247 86 207 86 q 315 114 290 86 q 353 181 340 142 q 369 265 365 221 q 374 340 372 308 q 375 401 375 372 q 375 451 375 429 q 373 626 375 539 q 371 801 371 714 q 390 851 371 829 q 440 872 408 872 m 406 801 q 408 610 407 693 q 410 463 410 528 q 408 347 410 399 q 401 250 406 296 q 389 179 399 215 q 361 115 379 143 q 315 69 343 88 q 247 51 288 51 q 145 92 186 53 q 76 197 104 132 q 53 214 68 214 q 24 199 38 214 q 17 165 10 185 q 112 37 50 83 q 264 -10 174 -10 q 352 17 315 -7 q 414 77 389 42 q 453 156 439 113 q 472 242 467 200 q 478 345 476 290 q 478 467 479 400 q 476 616 478 533 q 474 801 474 699 q 463 828 474 819 q 440 838 453 838 q 416 828 426 838 q 406 801 406 819 z "},"K":{"ha":611,"x_min":35,"x_max":632,"o":"m 171 38 q 151 -14 171 10 q 99 -37 132 -37 q 51 -16 67 -37 q 35 29 35 6 l 40 783 q 59 831 40 811 q 108 851 78 851 q 160 829 143 851 q 178 779 178 807 l 176 581 l 406 832 q 428 847 415 843 q 451 851 440 851 q 501 831 479 851 q 522 781 522 810 q 514 751 522 764 q 501 736 511 746 l 210 417 l 608 92 q 632 42 632 72 q 613 -8 632 17 q 561 -32 594 -32 q 538 -28 549 -32 q 521 -17 528 -24 l 174 269 l 171 38 m 543 10 q 561 3 550 3 q 580 10 571 3 q 593 26 589 17 q 597 46 597 35 q 586 65 596 57 l 160 413 l 476 760 q 487 778 486 768 q 483 796 488 788 q 470 810 479 804 q 451 817 461 817 q 431 808 442 817 l 140 490 l 143 779 q 133 808 144 799 q 108 817 122 817 q 85 808 96 817 q 75 783 75 800 l 69 29 q 78 5 69 13 q 99 -3 88 -3 q 124 8 113 -3 q 136 38 136 18 l 139 342 l 543 10 z "},"L":{"ha":539,"x_min":35,"x_max":558,"o":"m 35 29 l 40 783 q 59 831 40 811 q 108 851 78 851 q 160 829 143 851 q 178 779 178 807 l 171 100 l 492 104 q 541 81 524 104 q 558 35 558 58 q 541 -13 558 7 q 493 -33 524 -33 l 107 -37 q 59 -23 83 -37 q 35 29 35 -8 m 493 1 q 517 12 510 1 q 524 35 525 22 q 515 59 524 49 q 492 69 507 69 l 136 65 l 143 779 q 133 808 144 799 q 108 817 122 817 q 85 808 96 817 q 75 783 75 800 l 69 29 q 81 4 69 11 q 107 -3 92 -3 l 493 1 z "},"M":{"ha":872,"x_min":8,"x_max":864,"o":"m 499 13 q 466 -24 488 -15 q 428 -33 444 -33 q 390 -24 413 -33 q 356 13 367 -15 l 175 515 l 144 14 q 122 -31 142 -15 q 78 -46 101 -46 q 56 -42 68 -46 q 34 -31 44 -39 q 16 -11 24 -24 q 8 18 8 1 l 8 24 l 58 804 q 85 855 61 839 q 135 871 110 871 q 152 869 142 871 q 174 862 163 867 q 197 848 186 857 q 213 825 207 839 l 426 222 l 635 807 q 711 861 654 861 q 760 847 735 861 q 789 796 786 832 l 864 24 l 864 18 q 840 -32 864 -17 q 796 -47 817 -47 q 752 -33 775 -47 q 726 13 729 -19 l 678 517 l 499 13 m 761 15 q 773 -6 763 1 q 796 -12 783 -12 q 821 -4 810 -12 q 829 21 832 4 l 754 793 q 739 818 751 810 q 711 826 726 826 q 683 819 696 826 q 668 796 671 811 l 426 119 l 179 814 q 160 831 172 825 q 135 836 147 836 q 107 828 119 836 q 93 801 94 819 l 43 22 q 53 -2 42 7 q 78 -11 64 -11 q 100 -5 90 -11 q 110 17 110 1 l 151 685 l 389 24 q 404 7 393 13 q 428 1 415 1 q 451 7 440 1 q 465 24 463 13 l 697 675 l 761 15 z "},"N":{"ha":660,"x_min":35,"x_max":625,"o":"m 172 36 q 156 -12 172 13 q 104 -36 140 -36 q 53 -13 71 -36 q 35 36 35 10 l 35 788 q 52 834 35 813 q 101 856 69 856 q 139 844 122 856 q 165 818 156 833 l 486 286 q 486 463 486 374 q 488 639 486 551 q 486 719 488 679 q 488 797 485 758 q 507 844 489 821 q 557 867 525 867 q 607 844 589 867 q 625 796 625 821 l 625 39 q 600 -14 625 4 q 550 -32 575 -32 q 524 -26 539 -32 q 499 -4 508 -21 l 172 540 l 172 36 m 528 14 q 550 3 535 3 q 577 13 564 3 q 590 39 590 22 l 590 796 q 579 824 589 815 q 557 832 569 832 q 535 824 544 832 q 522 796 525 815 q 522 627 522 707 q 521 472 521 547 q 521 320 521 396 q 521 161 521 244 l 136 800 q 101 821 124 821 q 79 813 89 821 q 69 788 69 804 l 69 36 q 81 8 69 17 q 104 -1 92 -1 q 127 8 117 -1 q 138 36 138 17 l 138 665 l 528 14 z "},"O":{"ha":718,"x_min":8,"x_max":710,"o":"m 361 853 q 522 808 456 853 q 631 697 589 764 q 691 549 672 629 q 710 397 710 468 q 689 247 710 324 q 624 107 668 169 q 514 5 581 44 q 356 -35 447 -35 q 197 3 263 -35 q 89 103 131 42 q 28 240 47 164 q 8 390 8 315 q 27 545 8 464 q 88 694 46 626 q 198 808 131 763 q 361 853 265 853 m 572 401 q 560 515 572 458 q 521 615 547 571 q 454 688 494 660 q 358 717 414 717 q 265 689 304 717 q 199 617 225 661 q 160 517 174 572 q 147 407 147 463 q 158 290 147 346 q 196 192 169 235 q 264 125 222 150 q 365 100 306 100 q 456 127 417 100 q 520 197 494 154 q 559 294 546 240 q 572 401 572 349 m 43 390 q 63 244 43 314 q 121 119 82 174 q 218 33 160 65 q 356 0 276 0 q 496 35 436 0 q 596 127 556 71 q 656 255 636 183 q 675 397 675 326 q 648 582 675 503 q 576 713 621 661 q 476 792 532 765 q 361 818 419 818 q 244 791 301 818 q 142 710 188 764 q 70 577 97 657 q 43 390 43 497 m 365 65 q 248 93 296 64 q 170 169 200 122 q 126 276 140 215 q 113 397 113 336 q 132 552 111 486 q 188 663 153 618 q 267 729 222 707 q 358 751 311 751 q 450 730 406 751 q 529 665 494 708 q 585 555 564 621 q 607 401 607 489 q 591 278 607 339 q 544 171 575 218 q 469 94 514 124 q 365 65 424 65 z "},"P":{"ha":600,"x_min":35,"x_max":607,"o":"m 172 717 l 176 440 l 304 440 q 426 478 381 440 q 472 589 472 517 q 453 664 472 638 q 402 703 433 690 q 333 717 371 715 q 257 719 294 719 q 215 719 236 719 q 172 717 194 718 m 110 851 q 183 854 146 853 q 257 856 221 856 q 382 845 319 856 q 494 805 444 835 q 576 722 544 775 q 607 583 607 669 q 582 460 607 511 q 515 376 557 408 q 419 327 474 343 q 303 310 364 311 l 176 307 l 181 21 q 156 -29 181 -14 q 111 -44 132 -44 q 65 -28 88 -44 q 43 21 43 -11 l 35 781 q 42 813 35 800 q 61 835 50 826 q 85 847 72 843 q 110 851 99 851 m 257 754 q 347 750 301 754 q 428 728 392 746 q 486 676 464 711 q 507 582 508 642 q 490 506 506 539 q 447 450 474 472 q 383 417 419 428 q 304 406 346 406 l 142 406 l 138 750 l 257 754 m 78 21 q 88 -2 78 6 q 111 -10 99 -10 q 135 -2 124 -10 q 146 21 146 6 l 142 340 l 301 344 q 406 358 357 344 q 492 401 456 372 q 551 476 529 431 q 572 583 572 521 q 548 700 572 654 q 481 773 524 746 q 380 810 438 800 q 257 821 322 821 l 111 817 q 83 808 96 817 q 69 781 69 800 l 78 21 z "},"R":{"ha":653,"x_min":35,"x_max":644,"o":"m 172 721 l 176 442 l 257 442 q 344 448 304 442 q 412 469 383 454 q 456 513 440 485 q 472 583 472 540 q 427 688 472 656 q 304 721 382 721 l 172 721 m 176 306 l 181 21 q 156 -29 181 -14 q 111 -44 132 -44 q 65 -28 86 -44 q 43 21 43 -11 l 35 781 q 58 833 35 814 q 108 851 82 851 l 301 851 q 415 838 360 851 q 513 792 471 824 q 581 711 556 761 q 607 589 607 661 q 572 442 607 504 q 463 344 536 379 q 502 282 479 318 q 549 208 525 246 q 592 137 571 172 q 633 65 613 101 q 638 58 636 61 q 640 51 639 54 q 644 40 643 44 q 644 32 644 35 q 623 -19 644 3 q 574 -40 601 -40 q 541 -31 554 -40 q 521 -10 528 -22 l 319 308 q 277 306 299 306 q 235 306 256 306 l 176 306 m 304 756 q 383 747 346 756 q 447 717 419 738 q 490 666 474 697 q 507 590 506 635 q 486 494 508 531 q 428 439 464 458 q 347 413 392 419 q 257 407 301 407 l 142 407 l 138 756 l 304 756 m 550 8 q 574 -6 558 -6 q 603 12 590 -6 q 606 47 617 29 l 411 361 q 528 438 483 385 q 572 589 572 492 q 551 694 572 651 q 492 765 529 738 q 406 804 456 792 q 301 817 357 817 l 108 817 q 83 808 96 817 q 69 781 71 800 l 78 21 q 88 -2 78 6 q 111 -10 99 -10 q 135 -2 124 -10 q 146 21 146 6 l 142 340 l 257 340 q 338 344 300 340 l 550 8 z "},"Q":{"ha":717,"x_min":8,"x_max":710,"o":"m 361 853 q 522 808 456 853 q 631 697 589 764 q 691 549 672 629 q 710 397 710 468 q 688 238 710 318 q 614 93 665 158 q 631 66 621 81 q 653 36 642 51 q 669 10 661 22 q 683 -12 676 -1 q 694 -33 693 -26 q 700 -49 699 -42 q 701 -58 701 -56 q 680 -109 701 -87 q 631 -131 658 -131 q 601 -121 615 -131 q 578 -100 588 -111 q 507 1 538 -50 q 356 -35 439 -35 q 197 3 263 -35 q 89 103 131 42 q 28 240 47 164 q 8 390 8 315 q 27 545 8 464 q 88 694 46 626 q 198 808 131 763 q 361 853 265 853 m 396 164 q 379 190 388 178 q 364 214 371 203 q 358 226 361 221 q 353 235 356 231 q 349 247 351 239 q 347 261 347 254 q 368 311 347 290 q 417 332 389 332 q 436 328 428 332 q 450 321 444 324 q 481 290 468 307 q 507 254 494 274 q 519 235 514 244 q 531 218 524 226 q 562 306 551 258 q 572 401 572 353 q 560 515 572 458 q 521 615 547 571 q 454 688 494 660 q 358 717 414 717 q 265 689 304 717 q 199 617 225 661 q 160 517 174 572 q 147 407 147 463 q 158 292 147 347 q 194 194 169 238 q 260 126 219 151 q 358 100 300 100 q 431 115 400 100 q 415 139 424 126 q 396 164 406 151 m 43 390 q 63 244 43 314 q 121 119 82 174 q 218 33 160 65 q 356 0 276 0 q 441 11 401 0 q 518 49 481 22 l 607 -82 q 631 -96 615 -96 q 660 -78 647 -96 q 663 -43 674 -61 l 569 94 q 649 231 622 151 q 675 397 675 310 q 648 582 675 503 q 576 713 621 661 q 476 792 532 765 q 361 818 419 818 q 244 791 301 818 q 142 710 188 764 q 70 577 97 657 q 43 390 43 497 m 358 65 q 244 94 290 65 q 168 170 197 124 q 126 276 139 217 q 113 397 113 336 q 132 552 111 486 q 188 663 153 618 q 267 729 222 707 q 358 751 311 751 q 450 730 406 751 q 529 665 494 708 q 585 555 564 621 q 607 401 607 489 q 587 266 607 331 q 529 153 567 201 l 444 281 q 417 297 435 297 q 386 280 399 297 q 388 242 374 263 l 481 104 q 424 75 453 85 q 358 65 394 65 z "},"S":{"ha":651,"x_min":8,"x_max":643,"o":"m 443 294 q 409 307 428 301 q 371 318 390 313 q 326 328 349 324 q 281 339 304 333 q 188 367 236 350 q 99 412 139 383 q 34 485 60 440 q 8 597 8 529 q 37 715 8 667 q 110 796 65 764 q 211 842 156 828 q 321 857 267 857 q 449 837 381 857 q 565 771 517 817 q 578 752 572 764 q 585 725 585 740 q 560 673 585 692 q 511 654 535 654 q 497 656 503 654 q 488 661 490 658 q 472 669 481 664 q 401 704 435 690 q 324 718 368 718 q 256 710 289 718 q 200 687 224 703 q 162 648 176 671 q 147 594 147 625 q 160 551 147 568 q 193 521 174 533 q 235 501 213 508 q 279 488 258 493 q 322 476 300 481 q 368 464 344 471 q 461 438 413 453 q 550 395 510 422 q 617 326 590 368 q 643 218 643 283 q 608 98 643 146 q 520 21 572 50 q 408 -21 468 -8 q 300 -33 349 -33 q 229 -27 275 -33 q 139 -6 183 -21 q 62 34 94 10 q 29 93 29 58 q 51 144 29 122 q 103 167 74 167 q 126 162 117 167 q 143 151 136 157 q 217 115 176 125 q 304 104 258 104 q 377 111 342 104 q 440 133 413 118 q 483 172 467 149 q 500 225 500 194 q 487 265 500 249 q 443 294 474 281 m 535 225 q 516 156 536 185 q 463 107 496 126 q 389 78 431 88 q 304 69 347 69 q 202 83 251 69 q 122 124 153 96 q 103 132 114 132 q 83 126 93 132 q 69 110 74 119 q 64 90 64 101 q 74 71 64 79 q 174 19 114 36 q 300 1 233 1 q 412 15 357 1 q 510 55 467 28 q 581 123 554 82 q 608 218 608 164 q 587 308 608 272 q 530 367 565 343 q 449 405 494 390 q 356 432 403 419 q 264 456 308 444 q 185 487 219 468 q 130 533 150 506 q 113 604 110 561 q 134 670 115 642 q 182 717 153 699 q 249 744 211 735 q 324 753 286 753 q 417 739 372 753 q 490 697 461 725 q 511 689 499 689 q 531 694 521 689 q 545 708 540 700 q 550 727 550 717 q 540 746 550 738 q 441 803 499 785 q 321 822 383 822 q 219 809 269 822 q 131 769 169 796 q 68 701 92 742 q 43 606 44 660 q 62 508 42 547 q 116 442 82 468 q 194 401 150 417 q 284 375 238 386 q 375 353 331 364 q 455 327 419 343 q 512 288 490 311 q 535 225 533 264 z "},"T":{"ha":529,"x_min":-19,"x_max":549,"o":"m 549 782 q 532 735 549 758 q 482 711 515 711 l 333 710 l 326 29 q 307 -22 326 1 q 254 -46 288 -46 q 206 -24 222 -46 q 190 21 190 -3 l 196 710 l 50 708 q 1 729 21 708 q -19 778 -19 750 q 2 828 -19 810 q 51 847 24 847 l 483 849 q 532 828 515 849 q 549 782 549 807 m 51 813 q 25 802 35 813 q 15 779 15 792 q 24 756 15 767 q 50 743 32 744 l 231 744 l 225 21 q 234 -3 225 4 q 254 -11 243 -11 q 280 -1 268 -11 q 292 29 292 10 l 299 744 l 482 746 q 506 756 497 746 q 514 780 514 767 q 507 803 514 793 q 483 814 500 814 l 51 813 z "},"U":{"ha":689,"x_min":21,"x_max":668,"o":"m 21 796 q 40 845 21 824 q 90 867 58 867 q 141 845 122 867 q 160 796 160 824 l 160 444 q 164 337 160 397 q 185 223 168 276 q 240 133 203 169 q 340 96 276 96 q 447 133 408 96 q 503 224 485 169 q 524 340 521 278 q 528 451 528 401 l 528 803 q 547 852 528 831 q 597 874 565 874 q 648 852 629 874 q 667 803 667 831 q 667 683 667 743 q 668 564 668 624 q 668 476 668 522 q 665 382 668 431 q 645 230 661 306 q 594 94 629 154 q 498 -3 558 35 q 343 -40 438 -40 q 215 -18 268 -40 q 125 42 161 4 q 68 128 89 79 q 37 232 47 178 q 24 342 26 286 q 21 446 21 397 l 21 796 m 56 446 q 63 289 56 369 q 100 143 71 208 q 186 36 129 78 q 343 -6 243 -6 q 499 39 442 -6 q 585 151 556 83 q 622 299 614 218 q 632 454 631 381 q 633 620 635 535 q 632 803 632 706 q 622 831 632 822 q 597 839 611 839 q 574 831 585 839 q 563 803 563 822 l 563 451 q 557 320 563 389 q 528 194 551 251 q 462 99 506 138 q 340 61 418 61 q 222 101 265 61 q 158 199 179 140 q 131 324 136 257 q 125 444 125 390 l 125 796 q 113 824 124 815 q 90 832 103 832 q 67 824 78 832 q 56 796 57 815 l 56 446 z "},"V":{"ha":592,"x_min":-21,"x_max":611,"o":"m 47 853 q 90 838 72 853 q 115 803 108 822 l 311 201 l 475 796 q 483 814 478 804 q 496 833 488 824 q 516 848 504 842 q 544 854 528 854 q 594 832 576 854 q 611 785 611 810 q 602 742 611 776 q 579 656 593 707 q 547 542 565 606 q 511 415 529 479 q 473 285 492 350 q 438 167 454 221 q 411 74 422 113 q 396 22 400 36 q 380 -6 392 6 q 354 -23 368 -17 q 327 -31 340 -29 q 306 -33 314 -33 q 266 -24 290 -33 q 231 14 242 -15 q 213 67 226 28 q 182 160 200 106 q 142 279 164 214 q 97 411 119 344 q 55 539 76 475 q 17 655 33 603 q -10 742 0 707 q -21 785 -21 776 q -1 833 -21 813 q 47 853 19 853 m 264 25 q 281 7 269 13 q 306 1 292 1 q 342 10 325 1 q 363 32 358 18 l 574 768 q 571 805 582 790 q 544 819 560 819 q 524 812 533 819 q 508 786 514 804 l 314 81 l 82 792 q 67 812 76 806 q 47 818 58 818 q 20 803 32 818 q 18 765 8 789 l 264 25 z "},"W":{"ha":961,"x_min":-7,"x_max":967,"o":"m 308 19 q 290 -8 303 3 q 265 -25 278 -19 q 238 -33 251 -31 q 217 -35 225 -35 q 199 -33 210 -35 q 176 -25 188 -31 q 155 -9 164 -19 q 142 18 146 1 l -6 774 q -6 783 -6 779 q -7 792 -7 788 q 10 839 -7 817 q 58 861 26 861 q 107 842 88 861 q 132 797 126 822 l 235 225 l 404 763 q 435 806 413 790 q 483 821 457 821 q 528 807 507 821 q 557 769 549 793 l 756 226 l 831 790 q 835 810 832 799 q 847 833 839 822 q 868 852 856 844 q 899 860 881 860 q 930 852 917 860 q 951 833 943 844 q 963 809 960 822 q 967 785 967 796 l 967 774 l 858 26 q 826 -19 854 -6 q 769 -33 797 -33 q 751 -32 761 -33 q 729 -25 740 -31 q 708 -11 718 -19 q 693 13 699 -3 l 486 565 l 308 19 m 725 25 q 742 7 731 13 q 769 1 754 1 q 805 9 789 1 q 824 32 821 17 l 932 778 q 924 813 935 800 q 899 825 914 825 q 878 815 888 825 q 865 786 868 806 l 771 82 l 525 757 q 507 779 518 772 q 483 786 496 786 q 455 777 468 786 q 438 753 442 768 l 226 81 l 97 792 q 83 817 94 808 q 58 826 71 826 q 35 815 44 826 q 29 781 25 804 l 176 25 q 190 6 179 11 q 217 0 201 0 q 253 8 236 0 q 275 31 271 17 l 483 671 l 725 25 z "},"X":{"ha":597,"x_min":-6,"x_max":603,"o":"m 468 839 q 489 860 475 851 q 519 869 503 869 q 570 847 550 869 q 590 797 590 825 q 585 778 590 789 q 582 771 583 775 q 578 761 581 767 q 568 742 574 753 q 556 718 563 731 q 469 571 513 643 q 379 426 425 499 l 590 72 q 603 29 603 53 q 583 -19 603 1 q 535 -40 564 -40 q 496 -28 511 -40 q 472 -3 481 -17 l 301 293 l 124 -6 q 101 -31 117 -18 q 63 -43 86 -43 q 13 -22 32 -43 q -6 26 -6 -1 q 7 69 -6 51 l 222 428 q 178 503 207 454 q 117 604 149 551 q 80 667 97 636 q 49 724 63 699 q 33 752 42 738 q 19 782 25 767 q 16 794 17 789 q 15 803 15 800 q 36 849 15 831 q 82 868 57 868 q 115 858 101 868 q 138 836 129 849 l 300 560 l 468 839 m 107 818 q 82 833 97 833 q 55 819 67 833 q 54 786 43 804 l 263 428 l 36 51 q 33 9 22 26 q 63 -8 44 -8 q 94 13 82 -8 l 301 361 l 503 15 q 535 -6 515 -6 q 565 12 553 -6 q 561 54 576 29 l 339 426 l 550 781 q 549 817 561 800 q 519 835 536 835 q 497 821 506 835 l 300 492 l 107 818 z "},"Y":{"ha":536,"x_min":-19,"x_max":556,"o":"m 433 831 q 455 853 440 844 q 486 863 469 863 q 535 840 515 863 q 556 790 556 818 q 555 783 556 788 q 551 771 554 778 q 549 764 550 768 q 544 754 547 760 q 535 733 540 744 q 522 706 529 721 q 432 527 478 615 q 340 350 386 439 l 338 28 q 322 -20 338 4 q 269 -44 306 -44 q 218 -22 236 -44 q 200 28 200 1 l 203 344 q 185 380 197 357 q 156 433 172 403 q 122 497 140 463 q 86 567 104 532 q 49 642 67 606 q 15 708 31 679 q 2 736 8 724 q -8 758 -4 749 q -12 768 -11 764 q -15 775 -14 772 q -19 788 -18 782 q -19 796 -19 793 q 1 843 -19 824 q 47 863 22 863 q 80 853 65 863 q 103 829 94 844 l 269 515 l 433 831 m 72 813 q 47 828 64 828 q 20 813 32 828 q 19 779 8 799 l 238 353 l 235 28 q 246 -1 235 8 q 269 -10 257 -10 q 292 -1 282 -10 q 303 28 303 8 l 306 358 l 517 775 q 515 810 528 793 q 486 828 501 828 q 464 814 472 828 l 269 440 l 72 813 z "},"Z":{"ha":565,"x_min":-6,"x_max":572,"o":"m -6 26 q -4 35 -6 29 q 1 53 -3 42 q 7 64 4 57 q 14 78 10 71 q 32 114 21 93 q 57 158 43 135 q 118 267 83 207 q 189 390 153 326 q 243 483 217 436 q 294 572 269 529 q 341 651 319 614 q 378 714 363 688 q 224 712 300 713 q 69 711 147 711 q 20 733 39 711 q 1 781 1 754 q 22 829 1 810 q 69 849 42 849 l 496 853 q 526 846 514 853 q 546 828 539 839 q 556 806 553 818 q 560 783 560 793 q 558 761 560 772 q 549 739 556 750 l 183 99 l 503 106 q 534 99 521 106 q 556 83 547 93 q 568 59 564 72 q 572 35 572 46 q 555 -12 572 7 q 507 -32 538 -31 l 65 -40 q 18 -24 42 -40 q -6 26 -6 -8 m 507 3 q 531 13 524 3 q 537 37 538 24 q 528 60 536 50 q 504 71 519 71 l 122 63 l 518 756 q 524 795 528 772 q 496 818 519 818 l 69 814 q 44 803 51 814 q 37 778 36 792 q 47 755 38 765 q 74 746 57 744 l 439 749 l 35 47 q 33 10 22 25 q 65 -6 44 -6 l 507 3 z "},"$":{"ha":456,"x_min":8,"x_max":447,"o":"m 301 322 l 303 283 q 311 300 311 292 q 301 322 311 314 m 300 543 l 301 474 q 353 452 326 465 q 400 419 379 439 q 434 371 421 399 q 447 306 447 343 q 435 241 447 268 q 402 194 422 214 q 356 161 382 174 q 303 142 331 149 l 304 43 q 287 -7 304 15 q 235 -29 269 -29 q 185 -9 204 -29 q 167 39 167 11 l 165 136 q 117 147 144 139 q 66 168 90 154 q 25 201 42 182 q 8 247 8 221 q 28 299 8 275 q 81 322 49 322 q 111 311 90 322 q 124 304 118 308 q 139 296 131 300 q 152 290 146 293 q 165 283 158 286 l 164 368 q 66 417 106 383 q 26 518 26 451 q 38 581 26 553 q 67 629 49 608 q 111 665 86 650 q 163 688 136 679 l 163 781 q 180 828 163 806 q 231 851 197 851 q 281 828 264 851 q 299 781 299 806 l 299 692 q 340 676 318 686 q 381 653 361 667 q 413 620 400 639 q 425 579 425 601 q 405 533 425 551 q 360 515 385 515 q 325 526 340 515 q 313 534 319 529 q 300 543 307 539 m 129 521 q 148 569 128 550 q 199 596 168 588 l 199 465 q 149 486 168 474 q 129 521 129 499 m 346 300 q 322 256 344 271 q 268 236 300 240 l 267 376 q 324 349 301 365 q 346 300 346 332 m 103 278 q 81 288 93 288 q 61 281 71 288 q 47 265 51 275 q 43 243 42 254 q 54 221 44 232 q 117 183 78 197 q 200 167 156 169 l 201 39 q 212 14 201 22 q 235 6 222 6 q 260 15 249 6 q 269 43 271 24 l 268 169 q 368 210 326 179 q 413 296 410 240 q 401 358 414 332 q 368 401 389 383 q 321 428 347 418 q 267 447 294 439 l 265 600 q 332 564 304 592 q 360 550 344 550 q 386 565 376 550 q 383 599 396 581 q 333 642 365 625 q 264 664 301 660 l 264 781 q 253 808 264 800 q 231 817 243 817 q 208 808 218 817 q 197 781 197 800 l 197 661 q 143 643 169 656 q 98 611 117 631 q 69 565 79 592 q 61 504 58 538 q 76 460 64 478 q 107 429 88 442 q 150 409 126 417 q 199 394 174 401 l 200 238 q 144 252 169 242 q 103 278 118 263 z "},"":{"ha":513,"x_min":7,"x_max":518,"o":"m 161 536 q 140 440 140 499 q 146 384 140 413 q 164 332 151 356 l 161 536 m 7 425 q 15 503 7 463 q 40 582 22 544 q 88 650 58 619 q 161 696 118 681 l 161 781 q 178 828 161 806 q 229 851 196 851 q 280 828 263 851 q 297 781 297 806 l 297 699 q 348 675 322 690 q 394 638 374 660 q 427 590 414 617 q 440 533 440 564 q 421 488 440 506 q 375 469 401 469 q 344 478 356 469 q 325 496 332 488 q 317 505 321 500 q 311 515 314 510 q 306 524 308 519 q 300 533 303 528 l 301 281 q 331 298 317 288 q 361 319 346 308 q 384 338 374 329 q 403 353 394 346 q 413 360 408 357 q 422 367 418 364 q 433 372 426 369 q 450 375 440 375 q 497 358 475 375 q 518 310 518 340 q 514 286 518 296 q 506 269 510 276 q 415 187 471 221 q 301 142 360 153 l 303 43 q 285 -7 303 15 q 233 -29 268 -29 q 184 -9 203 -29 q 165 39 165 11 l 164 150 q 91 197 121 167 q 42 266 61 228 q 15 346 24 304 q 7 425 7 388 m 106 429 q 108 485 104 457 q 124 538 113 514 q 152 581 135 563 q 196 608 169 600 l 199 246 q 131 319 154 267 q 106 429 108 371 m 200 39 q 210 14 200 22 q 233 6 221 6 q 258 15 247 6 q 268 43 269 24 l 267 171 q 376 204 318 176 q 476 289 435 232 q 481 324 492 308 q 450 340 469 340 q 422 326 435 340 q 267 235 343 246 l 264 613 q 311 582 292 604 q 343 528 331 560 q 356 510 347 517 q 375 504 365 504 q 399 514 389 504 q 404 543 408 524 q 350 633 389 601 q 263 672 311 665 l 263 781 q 252 808 263 800 q 229 817 242 817 q 206 808 217 817 q 196 781 196 800 l 196 669 q 125 637 154 661 q 77 578 96 613 q 50 505 58 544 q 42 425 42 465 q 51 342 42 383 q 81 267 61 301 q 131 209 101 233 q 199 175 160 185 l 200 39 z "},"":{"ha":607,"x_min":-19,"x_max":614,"o":"m 614 764 q 597 717 614 740 q 547 694 581 694 l 225 692 l 228 482 l 522 486 q 571 465 554 486 q 588 418 588 444 q 570 371 588 393 q 521 349 553 349 l 228 344 l 229 265 l 300 267 q 349 246 332 268 q 367 200 367 224 q 350 153 367 175 q 301 129 333 131 l 231 128 q 232 84 232 106 q 232 42 232 63 q 211 -8 232 11 q 164 -26 190 -26 q 115 -6 136 -26 q 94 43 94 14 l 93 124 l 50 124 q 1 142 22 124 q -19 192 -19 160 q -11 226 -19 213 q 8 247 -3 239 q 33 259 19 256 q 56 264 46 263 l 93 264 l 90 763 q 115 815 90 800 q 163 829 140 829 l 549 832 q 597 810 581 832 q 614 764 614 788 m 163 794 q 125 763 125 794 l 128 228 l 51 226 q 25 216 35 226 q 15 193 15 206 q 24 169 15 181 q 50 158 32 158 l 128 160 l 129 43 q 141 17 131 25 q 164 8 151 8 q 188 18 178 8 q 197 46 199 28 l 196 161 l 300 164 q 324 174 315 164 q 332 198 332 185 q 325 222 332 211 q 301 232 318 232 l 194 229 l 193 379 l 521 383 q 544 394 536 383 q 553 417 553 404 q 547 441 554 431 q 522 451 539 451 l 193 447 l 190 726 l 547 729 q 570 740 563 729 q 578 763 578 750 q 572 787 579 776 q 549 797 564 797 l 163 794 z "},"":{"ha":617,"x_min":-19,"x_max":624,"o":"m 114 454 q 112 493 113 474 q 111 532 111 513 q 124 649 111 590 q 166 754 136 707 q 247 831 196 801 q 376 860 299 860 q 509 825 447 860 q 597 714 571 790 q 600 702 599 708 q 601 689 601 696 q 582 642 601 661 q 535 624 563 624 q 516 627 524 624 q 503 633 508 631 q 485 651 492 643 q 471 667 478 658 q 456 688 464 676 q 423 715 440 704 q 382 726 406 726 q 305 703 332 726 q 265 645 278 681 q 250 568 253 610 q 247 489 247 526 q 247 472 247 481 q 249 456 247 464 l 417 460 q 467 441 446 461 q 488 392 488 421 q 465 341 488 356 q 418 325 442 326 l 257 321 q 263 228 260 275 q 265 138 265 182 q 265 124 265 131 q 264 111 265 118 l 554 110 q 603 90 582 110 q 624 42 624 71 q 602 -9 624 10 q 553 -28 581 -28 l 46 -25 q -2 -5 15 -25 q -19 43 -19 15 q -12 77 -19 64 q 6 98 -4 90 q 30 109 17 106 q 53 114 43 113 l 64 114 q 78 114 71 114 q 93 113 86 114 q 108 112 101 113 q 121 111 115 111 q 124 114 122 113 q 126 119 126 117 q 131 138 129 128 q 132 160 132 149 q 129 238 132 199 q 124 315 126 276 l 96 315 q 47 337 64 315 q 31 382 31 358 q 56 438 31 421 q 114 454 81 454 m 553 7 q 578 17 569 7 q 588 40 588 28 q 581 64 589 53 q 554 75 572 75 l 221 76 q 231 151 233 104 l 219 354 l 417 360 q 442 368 433 358 q 452 390 451 378 q 444 414 453 403 q 418 425 436 425 l 215 421 l 213 489 q 216 575 213 529 q 235 661 219 621 q 283 730 250 701 q 375 761 315 758 q 455 737 425 761 q 510 672 485 713 q 535 658 519 658 q 560 671 550 658 q 564 703 571 683 q 491 795 542 765 q 376 825 440 825 q 258 796 304 825 q 185 719 211 767 q 151 613 160 672 q 147 492 143 553 l 151 419 l 99 418 q 75 408 83 418 q 66 384 67 397 q 73 360 65 371 q 96 350 81 350 l 156 351 l 167 175 q 158 101 169 122 q 121 76 146 81 l 47 78 q 24 67 32 78 q 15 44 15 57 q 22 20 14 31 q 46 10 29 10 l 553 7 z "},"":{"ha":536,"x_min":-19,"x_max":556,"o":"m 433 813 q 454 835 440 826 q 486 844 468 844 q 536 822 517 844 q 556 774 556 799 q 555 766 556 771 q 551 754 554 761 q 549 747 550 751 q 546 739 549 743 q 537 719 542 731 q 525 694 532 708 q 497 638 513 669 q 463 572 481 606 q 422 493 442 532 q 386 425 401 454 l 438 425 q 486 404 469 425 q 503 358 503 383 q 486 311 503 333 q 438 288 469 289 l 340 286 l 339 282 l 436 283 q 485 263 468 285 q 503 217 503 240 q 486 169 503 192 q 438 146 469 147 l 339 144 l 338 44 q 334 20 338 33 q 322 -3 331 7 q 301 -21 314 -14 q 271 -28 289 -28 q 219 -6 239 -28 q 200 44 200 17 l 201 143 l 118 142 q 69 160 90 142 q 49 210 49 179 q 70 261 49 243 q 119 279 92 279 l 201 281 l 203 285 l 118 283 q 69 301 90 283 q 49 351 49 319 q 70 402 49 383 q 119 421 92 421 l 154 421 q 117 492 139 451 q 75 575 96 533 q 40 642 57 610 q 11 700 24 674 q -1 724 4 714 q -10 744 -6 735 q -13 753 -12 749 q -15 760 -14 757 q -19 771 -18 767 q -19 778 -19 775 q 1 826 -19 807 q 47 844 22 844 q 81 835 67 844 q 103 811 96 826 l 268 497 l 433 813 m 72 794 q 47 810 63 810 q 20 795 32 810 q 19 763 8 781 l 211 388 l 119 386 q 93 376 103 386 q 83 353 83 365 q 92 329 83 340 q 118 318 100 318 l 238 319 l 236 246 l 119 244 q 93 235 103 246 q 83 212 83 225 q 92 188 83 199 q 118 176 100 176 l 236 178 l 235 44 q 246 17 235 26 q 271 7 257 7 q 292 16 282 7 q 303 44 303 25 l 304 178 l 436 181 q 460 191 451 181 q 468 215 468 201 q 461 238 468 228 q 438 249 454 249 l 304 246 l 306 319 l 436 322 q 460 333 451 322 q 468 356 468 343 q 461 380 468 369 q 438 390 454 390 l 328 389 l 517 757 q 515 793 528 776 q 486 810 503 810 q 464 796 472 810 l 268 422 l 72 794 z "},"":{"ha":617,"x_min":-19,"x_max":624,"o":"m 111 526 q 124 652 111 592 q 169 758 138 713 q 251 832 200 804 q 376 860 301 860 q 509 825 447 860 q 597 714 571 790 q 600 702 599 708 q 601 689 601 696 q 582 642 601 661 q 535 624 563 624 q 516 627 524 624 q 503 633 508 631 q 485 651 492 643 q 471 667 478 658 q 456 688 464 676 q 423 715 440 704 q 382 726 406 726 q 313 708 339 726 q 272 662 286 690 q 253 599 258 633 q 247 529 249 564 l 417 532 q 467 513 446 533 q 488 464 488 493 q 465 414 488 431 q 418 396 443 397 l 251 392 l 253 382 l 417 385 q 467 366 446 386 q 488 317 488 346 q 465 266 488 281 q 418 250 442 251 l 261 246 q 264 192 263 218 q 265 138 265 165 q 265 124 265 131 q 264 111 265 118 l 554 110 q 603 90 582 110 q 624 42 624 71 q 602 -9 624 10 q 553 -28 581 -28 l 46 -25 q -2 -5 15 -25 q -19 43 -19 15 q -12 77 -19 64 q 6 98 -4 90 q 30 109 17 106 q 53 114 43 113 l 65 114 q 79 114 72 114 q 93 113 86 114 q 108 112 101 113 q 121 111 115 111 q 124 114 122 113 q 126 119 126 117 q 131 139 129 128 q 132 160 132 150 q 128 242 132 203 l 96 242 q 47 263 64 242 q 31 308 31 285 q 58 365 31 350 q 119 381 85 381 l 118 388 l 96 388 q 47 409 64 388 q 31 454 31 431 q 55 508 31 490 q 111 526 79 526 m 553 7 q 578 17 569 7 q 588 40 588 28 q 581 64 589 53 q 554 75 572 75 l 221 76 q 231 151 233 104 l 224 279 l 417 285 q 442 293 433 283 q 452 315 451 303 q 444 339 453 328 q 418 350 436 350 l 219 346 l 215 425 l 417 431 q 442 440 433 431 q 452 463 451 450 q 444 486 453 475 q 418 497 436 497 l 213 493 q 216 578 213 533 q 235 663 219 624 q 283 731 250 703 q 375 761 317 758 q 455 737 425 761 q 510 672 485 713 q 535 658 519 658 q 560 671 550 658 q 564 703 571 683 q 491 795 542 765 q 376 825 440 825 q 258 796 304 825 q 185 719 211 767 q 151 613 160 672 q 147 492 143 553 l 99 490 q 75 480 83 490 q 66 456 67 469 q 73 433 65 443 q 96 422 81 422 l 151 424 l 156 344 l 99 344 q 75 334 83 344 q 66 310 67 324 q 73 287 65 297 q 96 276 81 276 l 160 278 l 167 175 q 158 101 169 122 q 121 76 146 81 l 47 78 q 24 67 32 78 q 15 44 15 57 q 22 20 14 31 q 46 10 29 10 l 553 7 z "},"":{"ha":607,"x_min":8,"x_max":600,"o":"m 149 338 l 196 635 q 156 522 167 586 q 146 396 146 458 q 147 367 146 381 q 149 338 147 353 m 215 -50 q 193 -69 207 -61 q 160 -76 179 -76 q 111 -54 128 -76 q 94 -8 94 -32 q 96 15 94 3 q 100 38 97 26 l 104 63 q 60 140 78 97 q 30 226 42 182 q 13 315 18 271 q 8 399 8 360 q 15 522 8 456 q 45 650 22 589 q 111 760 68 711 q 226 833 154 810 q 228 848 228 840 q 231 863 229 856 q 237 879 233 869 q 248 898 240 889 q 266 913 256 907 q 293 919 276 919 q 335 908 314 919 q 363 872 356 896 q 411 896 379 896 q 459 878 435 896 q 483 829 483 861 q 479 796 483 813 q 478 792 479 793 q 497 776 488 785 q 515 756 507 767 q 541 722 528 743 q 554 678 554 701 q 535 631 554 650 q 488 611 515 611 q 451 622 467 611 l 375 126 q 425 176 403 146 q 467 242 447 206 q 490 272 474 257 q 532 286 506 286 q 580 267 560 286 q 600 218 600 247 q 596 193 600 206 q 558 117 582 153 q 501 51 533 81 q 431 0 469 21 q 350 -31 393 -21 q 328 -80 343 -60 q 278 -100 313 -100 q 235 -85 250 -100 q 215 -50 219 -69 m 111 413 q 118 501 113 454 q 138 591 124 547 q 178 671 153 635 q 246 726 204 707 l 158 174 q 135 235 144 203 q 119 300 125 268 q 112 361 114 332 q 111 413 110 390 m 315 744 q 342 743 329 744 q 368 738 354 742 l 264 72 q 214 99 233 81 l 315 744 m 249 -24 q 255 -55 246 -44 q 278 -65 264 -65 q 301 -56 289 -65 q 315 -31 313 -47 l 319 0 q 394 20 357 4 q 463 63 431 36 q 522 125 496 89 q 563 204 547 161 q 558 238 569 225 q 532 251 547 251 q 497 226 510 251 q 427 125 471 168 q 331 71 383 82 l 429 703 q 457 665 446 683 q 488 646 467 646 q 514 660 503 646 q 515 696 525 674 q 481 742 500 722 q 440 776 463 761 l 447 821 q 439 850 451 839 q 411 861 426 861 q 385 839 389 861 l 379 806 q 325 814 353 813 l 331 844 q 322 874 335 863 q 293 885 308 885 q 278 880 285 885 q 268 863 271 875 l 258 806 q 148 747 190 789 q 83 650 106 706 q 51 531 60 594 q 43 407 43 468 q 48 322 43 367 q 65 232 53 276 q 95 146 76 188 q 142 72 114 104 l 131 0 q 137 -31 128 -21 q 160 -42 146 -42 q 183 -33 171 -42 q 197 -7 194 -24 l 201 24 q 226 12 214 17 q 253 4 238 7 l 249 -24 z "},"":{"ha":565,"x_min":-21,"x_max":586,"o":"m 204 497 q 203 571 203 533 q 208 646 203 608 q 229 725 214 688 q 271 792 244 763 q 333 838 297 821 q 413 854 368 854 q 465 843 435 854 q 522 813 494 832 q 567 768 549 793 q 586 714 586 743 q 566 667 586 686 q 518 647 546 647 q 488 655 500 647 q 469 669 476 663 q 458 685 461 681 q 453 692 456 688 q 449 699 451 696 q 431 717 438 713 q 415 722 425 722 q 376 707 390 722 q 353 670 361 692 q 342 624 344 649 q 339 582 339 600 l 339 501 l 436 506 q 483 490 461 507 q 506 442 506 472 q 486 396 506 415 q 442 375 467 376 l 338 371 q 339 331 339 351 q 339 286 339 310 q 333 174 339 233 q 304 66 326 115 q 241 -15 282 17 q 131 -47 200 -47 q 90 -41 115 -47 q 40 -22 64 -35 q -3 14 15 -8 q -21 67 -21 36 q -6 110 -21 88 q 42 133 10 133 q 70 126 57 133 q 94 108 83 119 q 104 100 99 106 q 136 85 119 85 q 170 101 157 85 q 191 138 183 117 q 201 183 199 160 q 203 222 203 207 l 203 365 q 170 368 186 365 q 142 378 154 371 q 122 399 129 386 q 114 431 114 411 q 143 483 114 469 q 204 497 172 497 m 239 578 l 239 463 l 182 461 q 156 450 164 460 q 148 429 147 440 q 158 409 149 418 q 185 400 168 400 l 238 401 l 238 222 q 233 165 238 196 q 217 109 229 135 q 184 67 206 83 q 129 50 163 50 q 72 82 100 51 q 42 99 58 99 q 16 78 24 99 q 25 38 8 58 q 73 0 44 13 q 131 -12 101 -12 q 213 10 179 -12 q 266 68 246 33 q 294 146 286 103 q 303 228 303 189 l 303 404 l 440 410 q 464 422 457 413 q 470 442 471 432 q 461 462 469 453 q 438 471 453 471 l 304 465 l 304 582 q 315 670 304 636 q 343 724 326 704 q 379 750 360 743 q 415 757 399 757 q 456 742 438 757 q 490 699 475 726 q 518 682 500 682 q 545 697 533 682 q 547 729 557 711 q 491 793 525 767 q 413 819 457 819 q 367 813 390 819 q 324 792 344 807 q 263 718 288 768 q 239 578 239 668 z "},"":{"ha":565,"x_min":7,"x_max":558,"o":"m 282 547 q 193 513 225 547 q 161 421 161 479 q 194 330 161 367 q 279 293 226 293 q 372 326 336 293 q 407 414 407 360 q 372 510 407 472 q 282 547 338 547 m 69 571 q 58 586 64 578 q 44 603 51 594 q 32 621 38 613 q 21 638 26 629 q 16 647 18 643 q 13 656 14 651 q 7 679 7 667 q 25 726 7 703 q 75 750 43 750 q 92 747 85 750 q 103 742 99 744 q 113 735 108 739 q 121 728 117 731 q 137 712 129 721 q 151 693 144 703 q 165 674 158 683 q 178 658 172 665 q 231 674 204 669 q 285 678 257 678 q 388 658 336 678 q 399 674 393 665 q 413 693 406 683 q 446 731 426 711 q 490 750 465 750 q 540 726 522 750 q 558 678 558 703 q 553 656 558 667 q 544 638 549 644 q 533 621 539 629 q 521 603 528 613 q 508 588 514 596 q 496 572 503 579 q 531 500 519 539 q 543 421 543 461 q 529 333 543 376 q 486 254 515 290 q 513 222 500 238 q 538 186 526 206 q 547 166 542 178 q 551 142 551 154 q 531 93 551 114 q 482 72 511 72 q 453 80 467 72 q 432 94 440 88 q 369 175 397 131 q 322 163 346 167 q 274 160 299 160 q 193 172 233 160 q 173 142 185 160 q 147 110 161 125 q 115 83 132 94 q 82 72 99 72 q 33 94 51 72 q 14 142 14 115 q 18 166 14 154 q 26 186 22 178 q 38 203 32 194 q 51 221 44 213 q 64 238 58 229 q 76 253 69 246 q 37 331 49 289 q 25 415 25 372 q 35 495 25 456 q 69 571 46 535 m 442 414 q 429 351 442 379 q 394 301 417 322 q 342 269 372 281 q 279 258 313 258 q 222 269 250 258 q 174 301 194 281 q 140 352 153 322 q 126 421 126 382 q 168 537 126 492 q 282 582 210 582 q 340 572 311 582 q 391 540 368 561 q 428 488 414 519 q 442 414 442 456 m 60 415 q 77 322 60 363 q 122 253 94 281 l 58 171 q 49 147 50 158 q 51 126 47 135 q 64 113 56 118 q 82 107 72 107 q 111 124 99 107 l 181 214 q 283 194 228 194 q 382 217 333 194 l 453 124 q 482 107 465 107 q 500 113 492 107 q 513 126 508 118 q 516 147 517 135 q 506 171 515 158 l 440 256 q 490 326 472 285 q 508 421 508 368 q 492 507 507 469 q 451 572 476 544 l 517 658 q 519 697 531 678 q 490 715 507 715 q 467 703 478 715 l 399 614 q 343 635 372 629 q 285 643 314 642 q 167 614 219 643 l 97 703 q 75 715 88 715 q 47 697 58 715 q 49 658 35 678 l 114 571 q 74 504 89 543 q 60 415 60 465 z "},"":{"ha":631,"x_min":-19,"x_max":638,"o":"m 49 468 q 69 594 53 526 q 119 719 86 663 q 201 815 151 776 q 324 853 251 853 q 405 832 364 853 q 479 778 446 811 q 533 705 513 746 q 554 624 554 664 q 537 576 554 597 q 488 554 519 554 q 440 572 456 554 q 419 608 425 590 q 381 683 406 653 q 321 713 357 713 q 265 685 289 713 q 226 619 242 657 q 201 542 210 582 q 189 476 192 501 l 418 490 q 470 473 449 490 q 492 424 492 456 q 478 384 492 406 q 439 357 464 363 q 483 336 464 354 q 501 290 501 318 q 497 269 501 281 q 485 247 493 257 q 467 229 478 236 q 442 221 456 222 l 218 206 q 267 132 238 161 q 336 103 296 103 q 433 144 394 103 q 504 243 472 185 q 527 272 511 258 q 569 286 543 286 q 617 267 597 286 q 638 218 638 247 q 633 193 638 204 q 590 109 619 150 q 523 36 561 68 q 438 -15 485 4 q 340 -35 390 -35 q 240 -15 283 -35 q 165 38 197 6 q 110 113 132 71 q 75 197 89 154 q 19 213 43 197 q -4 264 -4 228 q 11 307 -4 286 q 50 328 26 328 q 49 335 49 331 q 3 351 26 336 q -19 401 -19 365 q -4 444 -19 429 q 29 464 11 460 q 49 468 38 468 m 519 629 q 496 697 514 664 q 451 758 478 731 q 392 801 425 785 q 324 818 360 818 q 307 817 313 818 q 209 774 250 808 q 140 687 168 739 q 98 569 113 635 q 81 435 83 504 l 49 433 q 23 422 31 432 q 15 401 15 413 q 24 379 15 389 q 49 369 33 369 l 53 369 l 81 371 q 89 297 83 335 l 64 296 q 38 285 46 294 q 31 263 31 275 q 40 242 31 251 q 64 232 49 232 l 68 232 l 101 233 q 133 147 114 189 q 181 72 153 104 q 249 19 210 39 q 340 0 289 0 q 419 16 379 1 q 494 57 458 31 q 557 121 529 83 q 600 204 585 158 q 596 238 607 225 q 569 251 585 251 q 535 226 547 251 q 502 169 522 197 q 457 118 482 140 q 401 82 432 96 q 336 68 371 68 q 276 82 303 68 q 230 119 250 96 q 195 174 210 143 q 171 238 181 204 l 439 256 q 462 272 456 261 q 467 294 468 283 q 456 314 465 306 q 431 322 446 322 l 157 303 q 149 374 151 339 l 429 390 q 451 406 444 394 q 456 428 457 417 q 446 447 454 439 q 424 456 438 456 l 421 456 l 150 439 q 165 544 154 492 q 197 641 176 597 q 246 714 217 685 q 314 747 275 743 q 363 736 340 747 q 405 708 386 725 q 436 667 424 690 q 453 618 449 643 q 488 589 461 589 q 512 599 501 589 q 519 629 522 610 z "},"!":{"ha":236,"x_min":49,"x_max":188,"o":"m 118 -40 q 73 -24 94 -40 q 51 24 51 -8 q 58 60 51 38 q 89 93 65 82 q 61 115 74 100 q 49 153 49 129 l 49 796 q 67 845 49 824 q 118 867 85 867 q 168 845 150 867 q 186 796 186 824 l 186 153 q 174 115 186 129 q 144 93 161 100 q 176 67 164 85 q 188 28 188 49 q 167 -22 188 -4 q 118 -40 146 -40 m 83 153 q 94 130 83 138 q 118 122 104 122 q 141 130 131 122 q 151 153 151 138 l 151 796 q 141 824 151 815 q 118 832 131 832 q 94 824 104 832 q 83 796 83 815 l 83 153 m 153 28 q 142 54 153 44 q 117 64 131 64 q 96 55 106 64 q 86 24 86 46 q 96 1 86 8 q 118 -6 106 -6 q 142 3 131 -6 q 153 28 153 11 z "},"'":{"ha":124,"x_min":-7,"x_max":131,"o":"m 64 804 q 113 781 96 804 q 131 733 131 758 l 131 468 q 108 419 131 435 q 63 403 85 403 q 16 419 39 403 q -7 468 -7 435 l -7 733 q 15 783 -7 763 q 64 804 36 804 m 28 733 l 28 468 q 38 445 28 453 q 63 438 49 438 q 85 445 75 438 q 96 468 96 453 l 96 733 q 86 760 96 751 q 64 769 76 769 q 41 760 51 769 q 28 733 31 751 z "},"&":{"ha":497,"x_min":7,"x_max":518,"o":"m 242 151 l 186 258 q 173 240 181 251 q 158 215 165 228 q 145 190 150 203 q 140 169 140 178 q 151 151 140 160 q 185 142 161 142 q 213 144 199 142 q 242 151 226 147 m 171 639 q 177 599 171 622 q 194 550 183 576 q 204 529 200 539 q 214 510 208 519 q 241 567 231 538 q 251 625 251 596 q 239 662 251 649 q 206 675 226 675 q 171 639 171 675 m 364 214 q 415 249 389 235 q 432 257 424 256 q 440 260 435 258 q 453 261 446 261 q 499 241 481 261 q 518 196 518 221 q 510 168 518 181 q 496 149 503 156 q 479 133 489 140 q 461 118 469 125 q 442 106 451 111 q 425 96 433 101 q 432 83 428 89 q 439 71 436 78 q 448 53 443 61 q 456 38 453 44 q 458 29 457 33 q 461 22 460 25 q 464 15 463 19 q 465 3 465 10 q 443 -44 465 -28 q 397 -61 421 -61 q 368 -53 381 -61 q 349 -37 356 -46 q 321 0 331 -19 q 311 17 315 8 q 303 35 307 26 q 242 17 274 24 q 178 10 210 10 q 117 19 147 10 q 62 49 86 29 q 22 98 38 69 q 7 164 7 126 q 18 224 7 194 q 47 282 29 254 q 85 336 64 310 q 124 385 106 363 q 99 435 113 407 q 74 492 86 463 q 47 567 58 528 q 35 635 35 606 q 49 704 35 672 q 87 759 63 736 q 144 795 111 782 q 213 808 176 808 q 285 794 253 808 q 338 756 317 781 q 372 699 360 732 q 383 629 383 667 q 351 497 383 558 q 279 379 319 436 l 364 214 m 115 138 q 106 174 104 154 q 118 216 107 193 q 149 265 129 239 q 192 322 168 292 l 290 133 q 235 115 263 122 q 185 107 208 107 q 115 138 140 107 m 286 636 q 267 538 289 586 q 210 440 244 489 q 173 517 188 486 q 150 571 158 549 q 139 609 142 593 q 136 639 136 625 q 157 692 136 675 q 206 710 178 710 q 260 689 239 710 q 286 636 282 668 m 368 -8 q 397 -26 378 -26 q 424 -15 413 -26 q 428 15 435 -4 q 402 63 414 40 q 379 110 390 86 q 428 139 406 125 q 467 167 450 153 q 481 185 478 175 q 482 205 485 196 q 472 220 479 214 q 453 226 464 226 q 443 225 449 226 q 432 219 438 224 q 394 192 414 207 q 351 164 375 176 l 239 382 l 246 392 q 286 449 267 419 q 320 512 306 479 q 342 578 335 544 q 347 650 350 613 q 301 743 342 713 q 213 774 261 774 q 163 765 188 774 q 117 740 138 757 q 85 698 97 724 q 69 639 72 672 q 95 535 68 606 q 164 381 122 465 q 105 305 133 342 q 60 233 76 268 q 42 163 43 197 q 65 97 42 129 q 115 57 86 69 q 178 44 143 44 q 247 54 211 44 q 319 79 283 64 l 368 -8 z "},"*":{"ha":374,"x_min":-21,"x_max":393,"o":"m 257 261 l 257 218 q 233 169 257 185 q 188 153 210 153 q 142 169 163 153 q 121 218 121 186 l 121 261 q 101 251 111 256 q 85 242 92 246 q 67 234 76 238 q 49 231 58 231 q -1 255 17 231 q -19 303 -19 279 q -10 335 -19 321 q 11 356 -1 349 l 50 379 l 11 400 q -21 457 -21 421 q -3 505 -21 481 q 47 529 15 529 q 66 526 57 529 q 83 518 75 522 q 117 500 97 513 l 117 529 q 121 554 117 540 q 133 581 125 568 q 156 601 142 593 q 189 610 169 610 q 223 600 210 610 q 243 576 236 590 q 252 553 250 565 q 254 531 254 540 l 254 504 q 287 521 269 513 q 322 529 304 529 q 344 526 332 529 q 367 514 357 522 q 385 493 378 506 q 393 464 393 481 q 385 434 393 447 q 369 414 376 421 q 351 399 361 406 q 331 385 340 392 l 335 381 q 372 350 351 369 q 393 299 393 331 q 376 253 393 272 q 331 233 358 233 q 309 237 319 233 q 292 243 299 240 q 274 251 283 247 q 257 261 265 256 m 29 326 q 16 310 18 321 q 17 290 14 300 q 30 272 21 279 q 49 265 39 265 q 63 269 57 265 l 154 324 l 156 218 q 166 195 156 203 q 188 188 176 188 q 212 195 201 188 q 222 218 222 203 l 221 322 l 301 278 q 331 268 317 268 q 350 276 343 268 q 358 294 357 283 q 353 318 360 306 q 333 339 347 331 l 254 382 l 332 429 q 354 450 349 439 q 357 471 360 461 q 344 488 354 481 q 322 494 335 494 q 296 486 311 494 l 219 440 l 219 531 q 210 565 219 554 q 189 575 200 575 q 163 563 175 575 q 151 529 151 551 l 153 439 l 61 490 q 47 494 56 494 q 28 487 38 494 q 16 469 19 479 q 15 448 13 458 q 29 431 18 438 l 118 379 l 29 326 z "},"":{"ha":329,"x_min":-19,"x_max":349,"o":"m 349 786 q 339 745 349 781 q 313 655 329 710 q 278 532 297 600 q 238 394 258 464 q 196 253 217 324 q 158 126 175 183 q 130 28 142 68 q 114 -25 118 -12 q 89 -60 107 -49 q 51 -71 71 -71 q 4 -54 28 -71 q -19 -3 -19 -37 q -10 38 -19 3 q 15 128 0 74 q 50 251 31 183 q 89 388 69 319 q 130 528 110 458 q 167 654 150 597 q 195 751 183 711 q 211 804 207 792 q 235 840 218 825 q 276 854 253 854 q 324 837 300 854 q 349 786 349 819 m 17 7 q 23 -24 10 -12 q 51 -36 36 -36 q 69 -31 61 -36 q 81 -15 78 -26 l 313 776 q 306 808 319 796 q 276 819 293 819 q 244 794 253 819 l 17 7 z "},"@":{"ha":939,"x_min":7,"x_max":931,"o":"m 538 272 q 506 331 533 307 q 446 356 479 356 q 377 322 401 356 q 353 236 353 289 q 360 199 353 217 q 381 167 368 181 q 410 146 393 154 q 444 138 426 138 q 476 146 460 138 q 507 167 493 154 q 530 194 521 179 q 539 221 539 208 q 539 247 539 233 q 538 272 539 261 m 768 -12 q 790 -35 782 -21 q 799 -68 799 -49 q 760 -134 799 -107 q 669 -178 721 -161 q 564 -202 617 -194 q 483 -210 511 -210 q 298 -176 385 -210 q 147 -81 211 -142 q 44 65 82 -19 q 7 251 7 150 q 45 440 7 356 q 149 585 83 525 q 303 677 215 644 q 489 710 390 710 q 664 676 583 710 q 803 583 744 643 q 897 444 863 524 q 931 269 931 364 q 922 188 931 232 q 895 104 914 144 q 845 32 876 64 q 768 -12 814 0 m 549 468 q 569 501 556 485 q 613 517 583 517 q 662 495 642 517 q 682 446 682 474 q 678 351 682 397 q 674 256 674 304 q 674 206 674 232 q 682 157 675 181 q 697 123 689 131 q 714 115 706 115 q 744 126 731 115 q 769 156 758 138 q 785 198 779 174 q 790 247 790 222 q 769 381 790 321 q 707 483 747 440 q 609 549 667 526 q 478 572 551 572 q 349 547 408 572 q 244 476 289 521 q 175 372 200 432 q 150 243 150 313 q 176 115 150 174 q 248 15 203 57 q 354 -50 293 -26 q 483 -74 415 -74 q 585 -59 540 -74 q 681 -17 629 -44 q 623 8 647 -10 q 582 51 599 26 q 439 1 519 1 q 348 21 389 1 q 278 73 307 40 q 233 149 249 106 q 217 238 217 192 q 233 333 217 286 q 281 415 250 379 q 356 473 311 451 q 454 494 400 494 q 504 487 481 494 q 549 468 528 479 m 574 221 q 529 138 565 174 q 444 103 493 103 q 392 115 415 103 q 353 145 369 126 q 328 188 338 164 q 318 236 319 211 q 328 303 317 275 q 357 351 339 332 q 398 381 375 371 q 446 390 421 390 q 524 363 488 390 q 572 276 561 335 q 572 249 572 263 q 574 221 572 236 m 454 460 q 372 442 408 460 q 310 395 336 425 q 269 327 283 365 q 251 249 254 289 q 263 165 250 204 q 301 98 276 126 q 362 53 326 69 q 439 36 397 36 q 523 55 485 36 q 590 110 561 74 q 635 42 606 68 q 713 15 665 15 q 792 37 758 15 q 850 94 826 58 q 885 175 874 129 q 896 269 896 221 q 868 422 894 350 q 792 547 842 493 q 670 635 742 601 q 506 675 599 669 q 338 651 417 675 q 197 581 258 628 q 96 463 136 533 q 44 300 56 393 q 67 101 35 189 q 163 -49 100 13 q 309 -142 225 -110 q 483 -175 393 -175 q 618 -157 551 -175 q 747 -99 685 -139 q 763 -78 760 -89 q 762 -58 765 -68 q 750 -42 758 -49 q 729 -36 742 -36 q 710 -40 721 -36 q 599 -92 657 -76 q 483 -108 542 -108 q 336 -80 407 -108 q 213 1 265 -51 q 135 126 161 53 q 118 289 108 199 q 162 423 129 364 q 242 523 194 482 q 351 585 290 564 q 478 607 411 607 q 622 582 558 607 q 731 510 686 557 q 799 399 775 464 q 825 256 824 335 q 819 192 826 224 q 798 136 813 161 q 763 96 783 111 q 714 81 742 81 l 704 81 q 657 123 671 85 q 640 217 643 161 q 642 334 638 272 q 647 446 646 396 q 635 473 646 464 q 613 482 625 482 q 591 473 601 482 q 579 446 581 464 q 578 423 579 433 q 578 401 578 413 q 523 442 554 426 q 454 460 492 458 z "},"(":{"ha":400,"x_min":8,"x_max":419,"o":"m 388 879 q 378 843 388 857 q 358 821 369 829 q 340 805 349 813 q 321 790 331 797 q 194 618 239 719 q 149 408 149 517 q 197 210 149 301 q 340 65 246 118 q 360 53 350 58 q 379 42 369 49 q 407 17 394 32 q 419 -25 419 1 q 402 -72 419 -50 q 353 -94 385 -94 q 329 -90 340 -94 q 310 -82 318 -86 q 186 7 242 -44 q 91 122 131 58 q 30 258 51 185 q 8 410 8 331 q 28 561 8 486 q 84 703 49 636 q 170 830 119 771 q 281 933 221 889 q 298 944 288 939 q 322 949 308 949 q 371 926 354 949 q 388 879 388 903 m 301 906 q 162 761 219 842 q 74 593 104 681 q 42 415 43 506 q 72 239 42 324 q 165 79 101 154 q 326 -51 228 4 q 353 -60 342 -60 q 375 -51 367 -60 q 385 -30 383 -42 q 381 -6 386 -18 q 361 13 375 6 q 214 125 269 58 q 134 269 158 192 q 114 430 110 347 q 146 590 118 513 q 222 735 174 668 q 336 847 271 801 q 351 867 349 856 q 351 890 354 879 q 341 907 349 900 q 322 914 333 914 q 301 906 313 914 z "},"[":{"ha":358,"x_min":35,"x_max":378,"o":"m 342 828 q 319 777 342 794 q 271 760 296 760 q 221 759 246 760 q 171 758 196 758 l 171 747 q 172 410 171 578 q 176 72 174 242 q 242 74 208 72 q 308 75 275 75 q 330 72 318 75 q 352 61 342 68 q 370 42 363 54 q 378 11 378 29 q 365 -28 378 -14 q 335 -49 353 -42 q 295 -57 317 -56 q 256 -58 274 -58 q 215 -58 236 -58 q 175 -57 194 -57 l 138 -57 l 118 -57 q 74 -45 90 -56 q 50 -20 58 -35 q 39 11 42 -6 q 36 43 36 28 q 35 132 35 88 q 35 221 35 176 q 36 503 35 364 q 38 786 38 643 q 38 801 38 793 q 39 815 38 808 q 59 866 39 847 q 110 889 79 885 q 163 892 136 892 q 218 893 190 893 l 271 893 q 318 877 294 893 q 342 828 342 861 m 72 786 q 70 491 71 615 q 69 278 69 367 q 70 133 69 189 q 71 44 71 78 q 80 -4 71 13 q 121 -22 89 -21 l 175 -22 q 248 -22 211 -22 q 304 -21 285 -22 q 333 -10 324 -19 q 343 11 343 0 q 335 31 343 22 q 308 40 326 40 q 288 40 304 40 q 251 40 272 40 q 208 39 231 39 q 167 39 185 39 l 142 39 q 138 413 139 267 q 136 642 136 558 q 136 759 136 726 q 136 793 136 792 q 151 793 143 793 q 174 794 160 793 q 212 794 189 794 q 271 794 235 794 q 297 804 288 794 q 306 826 306 814 q 298 849 307 839 q 271 858 289 858 q 180 856 222 856 q 114 854 138 857 q 83 841 94 851 q 72 786 72 831 z "},"{":{"ha":453,"x_min":-19,"x_max":472,"o":"m 310 736 q 271 740 290 736 q 232 744 251 744 q 200 738 211 744 q 198 737 199 738 q 196 736 197 736 q 194 735 194 735 q 199 685 194 713 q 205 658 201 672 q 213 631 208 644 q 226 569 219 601 q 233 503 233 536 q 228 449 233 476 q 207 397 222 422 q 237 338 231 371 q 243 269 243 304 q 241 206 243 238 q 239 143 239 175 q 240 105 239 118 q 248 85 242 92 q 267 78 254 79 q 303 76 279 76 q 358 79 331 76 q 413 82 385 82 q 457 60 442 82 q 472 18 472 39 q 449 -31 472 -17 q 396 -53 425 -46 q 369 -56 382 -56 q 344 -56 356 -56 q 259 -51 301 -56 q 183 -29 217 -46 q 129 19 150 -12 q 108 107 108 51 q 111 171 108 139 q 114 235 114 203 q 112 271 114 254 q 104 299 110 288 q 95 312 101 307 q 76 317 89 317 q 60 315 68 317 q 46 314 53 314 q -3 336 14 314 q -19 382 -19 358 q -1 428 -19 413 q 44 450 17 444 q 64 454 50 451 q 91 474 86 460 q 96 508 96 488 q 92 559 96 533 q 81 613 88 585 q 74 642 78 628 q 68 671 71 656 q 64 702 65 686 q 63 733 63 718 q 83 810 63 782 q 136 853 104 838 q 208 872 168 868 q 285 876 247 876 q 321 872 304 876 q 340 867 329 871 q 361 855 351 863 q 377 835 371 847 q 383 806 383 824 q 358 753 383 769 q 310 736 333 736 m 317 839 q 287 840 301 840 q 258 840 272 840 q 165 828 200 840 q 110 786 129 817 q 98 728 96 764 q 108 653 100 693 q 124 572 115 613 q 131 497 132 531 q 111 441 129 464 q 49 415 93 418 q 23 403 31 414 q 15 381 15 393 q 24 358 15 368 q 46 349 32 349 l 51 349 q 64 351 58 350 q 76 351 69 351 q 122 334 107 351 q 143 290 138 317 q 148 229 149 263 q 145 163 147 196 q 143 100 143 129 q 150 53 143 71 q 217 -6 169 8 q 318 -21 264 -21 q 360 -19 339 -21 q 400 -17 381 -18 q 428 -6 419 -15 q 438 16 438 4 q 431 38 439 28 q 408 47 424 47 l 404 47 q 354 44 381 46 q 303 42 328 42 q 249 47 272 42 q 218 65 226 51 q 205 114 207 85 q 204 175 203 143 q 208 241 206 207 q 208 304 211 275 q 193 357 204 333 q 157 392 182 381 q 192 447 183 414 q 199 515 200 479 q 189 588 197 551 q 172 658 181 625 q 160 715 164 690 q 163 749 156 739 q 192 773 174 767 q 232 779 211 779 q 274 776 254 779 q 310 771 294 772 q 338 781 328 771 q 349 802 349 790 q 342 825 350 814 q 317 839 335 836 z "},"?":{"ha":426,"x_min":-7,"x_max":444,"o":"m 144 -35 q 99 -19 121 -35 q 78 29 78 -3 q 80 49 78 38 q 88 72 82 61 q 106 93 94 83 q 135 104 117 103 q 108 113 119 106 q 91 131 97 121 q 81 153 85 142 q 78 172 78 164 q 72 283 75 228 q 68 396 68 339 q 99 453 68 433 q 124 461 111 460 q 144 464 136 463 q 267 503 219 469 q 314 606 314 536 q 301 653 314 631 q 268 691 289 675 q 221 716 247 707 q 165 725 194 725 q 140 722 153 725 q 113 715 126 719 q 99 711 106 713 q 86 707 93 710 q 72 704 79 706 q 57 703 65 703 q 9 726 25 703 q -7 771 -7 750 q 2 804 -7 790 q 22 828 11 818 q 88 852 49 847 q 158 857 126 857 q 263 841 211 857 q 354 793 314 825 q 419 714 394 761 q 444 604 444 667 q 426 501 444 547 q 376 422 408 456 q 301 366 344 388 q 207 336 257 344 l 210 171 q 192 126 210 146 q 151 104 175 107 q 197 81 179 101 q 214 33 214 60 q 193 -17 214 1 q 144 -35 172 -35 m 72 740 q 165 760 117 760 q 238 747 204 760 q 297 713 272 735 q 336 664 322 692 q 349 606 350 636 q 338 547 349 576 q 305 491 328 517 q 243 449 282 465 q 147 429 204 432 q 117 423 126 429 q 105 408 108 417 q 102 392 101 400 q 103 378 103 383 l 113 174 q 122 147 113 156 q 143 139 132 139 q 164 147 154 139 q 175 171 174 156 l 172 367 q 286 397 240 372 q 360 455 332 421 q 399 531 388 489 q 410 611 411 572 q 390 696 410 657 q 338 763 371 735 q 258 806 304 790 q 158 822 213 822 q 57 808 107 822 q 33 792 40 804 q 27 768 26 781 q 36 747 28 756 q 57 738 44 738 q 72 740 67 738 m 179 33 q 168 60 179 50 q 143 69 157 69 q 122 60 132 69 q 113 29 113 51 q 122 7 113 14 q 144 0 132 0 q 168 8 157 0 q 179 33 179 17 z "},".":{"ha":96,"x_min":-19,"x_max":117,"o":"m 117 43 q 97 -6 117 14 q 47 -26 78 -26 q -3 -3 14 -26 q -19 44 -19 19 q -1 92 -19 72 q 47 111 18 111 q 96 93 75 111 q 117 43 117 75 m 47 76 q 22 66 31 76 q 15 42 14 56 q 24 19 15 29 q 47 8 32 8 q 73 19 64 8 q 82 42 82 29 q 74 66 82 56 q 47 76 65 76 z "},"<":{"ha":415,"x_min":-18,"x_max":407,"o":"m 372 460 q 365 428 372 443 q 347 404 358 414 l 151 213 l 371 90 q 395 69 383 83 q 407 32 407 56 q 388 -15 407 4 q 342 -33 368 -33 q 324 -31 329 -33 q 310 -25 315 -28 q 294 -18 303 -22 q 275 -8 286 -14 q 231 14 256 1 q 181 40 206 26 q 85 92 129 67 q 25 124 40 117 q -6 156 6 135 q -18 197 -18 176 q -8 239 -18 221 q 15 268 3 257 l 260 501 q 281 516 268 510 q 310 522 294 522 q 355 503 338 522 q 372 460 372 483 m 283 476 l 39 243 q 17 199 19 224 q 42 154 14 174 l 326 4 q 342 1 332 1 q 360 8 353 1 q 371 24 368 15 q 370 44 374 33 q 354 60 367 54 l 93 204 l 324 429 q 336 469 343 450 q 310 488 329 488 q 283 476 296 488 z "},"%":{"ha":796,"x_min":-7,"x_max":801,"o":"m -7 561 q 7 633 -7 599 q 44 692 21 667 q 102 733 68 718 q 175 747 136 747 q 251 733 217 747 q 308 692 285 718 q 343 633 331 667 q 356 560 356 599 q 303 427 356 476 q 171 378 251 378 q 97 392 131 378 q 41 431 64 406 q 6 489 18 456 q -7 561 -7 522 m 229 561 q 214 605 229 589 q 175 621 199 621 q 140 604 154 621 q 125 560 125 588 q 141 520 125 536 q 181 504 157 504 q 216 519 203 504 q 229 561 229 533 m 621 789 q 615 761 621 775 l 294 1 q 270 -27 286 -18 q 236 -36 254 -36 q 188 -19 213 -36 q 164 32 164 -1 q 165 40 164 35 q 168 54 165 44 q 173 66 171 60 q 179 81 175 72 q 193 117 185 96 q 213 164 201 139 q 260 280 233 215 q 317 413 288 344 q 374 547 346 481 q 425 669 401 614 q 465 764 449 725 q 488 815 482 803 q 510 845 494 832 q 549 858 525 858 q 597 840 574 858 q 621 789 621 821 m 439 289 q 453 360 439 326 q 490 420 467 394 q 548 460 514 446 q 621 475 582 475 q 697 460 663 475 q 753 420 731 446 q 789 360 776 394 q 801 288 801 326 q 789 217 801 250 q 753 158 776 183 q 698 119 731 133 q 625 104 665 104 q 490 155 542 104 q 439 289 439 206 m 675 289 q 660 333 675 317 q 621 349 644 349 q 586 332 601 349 q 571 288 571 315 q 587 248 571 264 q 626 232 603 232 q 662 247 649 232 q 675 289 675 261 m 321 560 q 312 617 321 589 q 285 666 303 644 q 239 700 267 688 q 175 713 211 713 q 113 699 140 713 q 66 665 85 686 q 38 617 47 644 q 28 561 28 590 q 37 506 28 533 q 63 458 46 479 q 108 425 81 438 q 171 413 135 413 q 279 452 238 413 q 321 560 321 492 m 181 469 q 114 498 136 469 q 90 560 92 526 q 112 625 90 596 q 175 656 133 654 q 242 626 219 656 q 264 561 264 597 q 243 497 264 526 q 181 469 222 468 m 201 46 q 206 13 192 26 q 236 -1 219 -1 q 263 15 254 -1 l 583 775 q 580 809 593 794 q 549 824 567 824 q 532 818 540 824 q 519 801 524 813 l 201 46 m 767 288 q 758 344 767 317 q 731 393 749 372 q 685 427 713 414 q 621 440 657 440 q 558 427 586 440 q 512 393 531 414 q 483 345 493 372 q 474 289 474 318 q 483 234 474 261 q 510 186 492 207 q 555 152 528 165 q 619 139 582 139 q 726 180 686 139 q 767 288 767 221 m 626 197 q 560 226 582 197 q 536 288 538 254 q 558 352 536 324 q 621 383 579 381 q 688 354 665 383 q 710 289 710 325 q 690 225 710 254 q 626 197 669 196 z "},":":{"ha":124,"x_min":-6,"x_max":131,"o":"m 131 111 q 111 62 131 82 q 61 42 92 42 q 11 65 28 42 q -6 113 -6 88 q 13 160 -6 140 q 61 179 32 179 q 110 161 89 179 q 131 111 131 143 m 131 350 q 111 301 131 321 q 61 281 92 281 q 11 303 28 281 q -6 351 -6 326 q 13 399 -6 379 q 61 418 32 418 q 110 400 89 418 q 131 350 131 382 m 61 144 q 36 134 44 144 q 28 110 28 124 q 38 87 29 97 q 61 76 46 76 q 87 87 78 76 q 96 110 96 97 q 88 134 96 124 q 61 144 79 144 m 61 383 q 36 373 44 383 q 28 349 28 363 q 38 326 29 336 q 61 315 46 315 q 87 326 78 315 q 96 349 96 336 q 88 373 96 363 q 61 383 79 383 z "},",":{"ha":154,"x_min":-21,"x_max":175,"o":"m 43 -199 q -3 -177 14 -199 q -21 -132 -21 -156 q -14 -106 -21 -117 q -1 -89 -7 -96 q 5 -83 1 -86 q 11 -78 8 -81 q 16 -74 14 -75 q 21 -69 18 -72 q 35 -53 29 -62 q 40 -29 40 -44 q 37 -9 40 -18 q 28 8 33 0 q 22 19 25 15 q 15 28 18 24 q 9 42 13 33 q 6 61 6 50 q 25 109 6 89 q 72 129 44 129 q 115 113 96 129 q 148 74 135 97 q 168 24 161 50 q 175 -24 175 -3 q 166 -73 175 -43 q 140 -131 157 -103 q 99 -178 124 -158 q 43 -199 75 -199 m 93 86 q 72 94 85 94 q 44 76 54 94 q 49 40 33 58 q 69 3 63 24 q 74 -37 76 -17 q 61 -77 72 -58 q 28 -108 50 -96 q 15 -124 18 -115 q 15 -142 13 -133 q 26 -158 18 -151 q 43 -164 33 -164 q 60 -158 49 -164 q 113 -110 93 -140 q 138 -47 133 -81 q 133 22 143 -12 q 93 86 122 57 z "},"\\":{"ha":328,"x_min":-19,"x_max":349,"o":"m 278 -71 q 240 -60 258 -71 q 215 -25 222 -49 q 199 28 211 -12 q 171 126 188 68 q 133 253 154 183 q 92 394 113 324 q 51 531 71 464 q 16 653 32 599 q -10 744 0 708 q -19 786 -19 781 q 5 837 -19 819 q 53 854 29 854 q 94 840 76 854 q 118 804 111 825 q 134 751 122 792 q 163 654 146 711 q 199 528 179 597 q 240 388 219 458 q 279 251 260 319 q 314 129 299 183 q 339 39 329 75 q 349 -3 349 3 q 325 -54 349 -37 q 278 -71 301 -71 m 85 794 q 53 819 76 819 q 23 808 36 819 q 17 776 10 796 l 249 -15 q 278 -36 256 -36 q 306 -24 293 -36 q 313 7 319 -12 l 85 794 z "},";":{"ha":182,"x_min":-7,"x_max":189,"o":"m 156 350 q 136 301 156 321 q 86 281 117 281 q 36 303 53 281 q 19 351 19 326 q 38 399 19 379 q 86 418 57 418 q 135 400 114 418 q 156 350 156 382 m 57 -112 q 10 -91 28 -112 q -7 -46 -7 -69 q 0 -20 -7 -31 q 13 -3 7 -10 q 19 3 15 0 q 25 8 22 6 q 30 13 28 11 q 35 17 32 14 q 49 33 43 24 q 54 57 54 42 q 51 77 54 68 q 42 94 47 86 q 35 106 39 101 q 29 114 32 110 q 23 128 26 119 q 19 147 19 136 q 39 195 19 175 q 86 215 58 215 q 129 199 110 215 q 162 160 149 183 q 182 110 175 136 q 189 63 189 83 q 180 13 189 43 q 154 -44 171 -17 q 113 -92 138 -72 q 57 -112 89 -112 m 86 383 q 61 373 69 383 q 53 349 53 363 q 63 326 54 336 q 86 315 71 315 q 112 326 103 315 q 121 349 121 336 q 113 373 121 363 q 86 383 104 383 m 107 172 q 86 181 99 181 q 58 163 68 181 q 63 126 47 144 q 83 90 76 110 q 88 49 90 69 q 75 9 86 28 q 42 -22 64 -10 q 29 -38 32 -29 q 29 -56 26 -47 q 40 -72 32 -65 q 57 -78 47 -78 q 74 -72 63 -78 q 127 -24 107 -54 q 152 40 147 6 q 147 108 157 74 q 107 172 136 143 z "},"-":{"ha":364,"x_min":-19,"x_max":383,"o":"m -19 339 q 1 388 -19 371 q 49 407 22 406 l 315 413 q 367 390 350 414 q 383 343 383 367 q 366 296 383 315 q 319 275 349 276 l 53 269 q 1 288 22 268 q -19 339 -19 308 m 318 310 q 342 320 335 310 q 349 344 350 331 q 340 367 349 357 q 317 378 332 378 l 50 372 q 24 361 32 372 q 15 338 15 350 q 25 315 15 325 q 51 304 35 304 l 318 310 z "},"/":{"ha":329,"x_min":-19,"x_max":349,"o":"m 349 786 q 339 745 349 781 q 313 655 329 710 q 278 532 297 600 q 238 394 258 464 q 196 253 217 324 q 158 126 175 183 q 130 28 142 68 q 114 -25 118 -12 q 89 -60 107 -49 q 51 -71 71 -71 q 4 -54 28 -71 q -19 -3 -19 -37 q -10 38 -19 3 q 15 128 0 74 q 50 251 31 183 q 89 388 69 319 q 130 528 110 458 q 167 654 150 597 q 195 751 183 711 q 211 804 207 792 q 235 840 218 825 q 276 854 253 854 q 324 837 300 854 q 349 786 349 819 m 17 7 q 23 -24 10 -12 q 51 -36 36 -36 q 69 -31 61 -36 q 81 -15 78 -26 l 313 776 q 306 808 319 796 q 276 819 293 819 q 244 794 253 819 l 17 7 z "},")":{"ha":401,"x_min":-19,"x_max":393,"o":"m 13 -26 q 22 9 13 -4 q 42 29 32 22 q 197 213 142 111 q 251 443 251 314 q 239 546 251 496 q 202 641 226 596 q 142 724 178 686 q 60 786 106 761 q 40 798 50 793 q 21 810 31 803 q -6 833 7 818 q -19 875 -19 849 q -2 922 -19 901 q 44 942 15 942 q 71 938 60 942 q 89 929 82 933 q 214 840 158 892 q 310 724 269 788 q 372 588 350 661 q 393 435 393 515 q 374 285 393 358 q 319 144 354 211 q 233 19 283 76 q 124 -83 183 -39 q 106 -94 117 -89 q 82 -99 96 -99 q 31 -75 50 -99 q 13 -26 13 -51 m 103 -56 q 243 88 186 8 q 329 256 300 168 q 359 434 358 343 q 328 610 360 525 q 234 769 297 694 q 72 899 171 843 q 44 907 58 907 q 24 899 32 907 q 15 879 17 890 q 19 857 14 868 q 39 839 25 846 q 185 726 131 793 q 265 582 240 660 q 285 422 289 504 q 253 261 281 339 q 177 116 226 183 q 64 3 128 49 q 49 -17 51 -6 q 49 -40 46 -29 q 62 -57 53 -50 q 82 -64 71 -64 q 103 -56 93 -64 z "},"]":{"ha":358,"x_min":-19,"x_max":322,"o":"m -19 821 q -6 862 -19 847 q 28 883 8 876 q 72 892 49 890 q 115 893 96 893 q 147 892 131 893 q 179 892 164 892 q 234 890 208 892 q 279 879 260 889 q 310 849 299 869 q 322 790 322 828 l 322 671 q 322 359 322 514 q 321 47 321 204 q 319 18 321 35 q 310 -14 318 1 q 244 -56 293 -51 q 197 -58 221 -58 q 150 -58 174 -58 l 88 -58 q 65 -55 78 -58 q 42 -44 53 -51 q 23 -25 31 -37 q 15 7 15 -12 q 22 38 15 25 q 40 58 29 50 q 63 70 50 67 q 88 74 76 74 l 188 75 l 188 532 q 188 647 186 590 q 186 760 189 703 q 119 759 153 760 q 50 758 85 758 q 29 761 42 758 q 6 771 17 764 q -12 790 -4 778 q -19 821 -19 803 m 50 793 q 68 793 54 793 q 101 794 82 793 q 141 794 119 794 q 183 794 163 794 l 219 794 q 220 753 219 789 q 221 665 221 718 q 222 546 221 613 q 222 410 222 479 q 222 276 222 342 q 222 158 222 210 q 222 75 222 107 q 222 40 222 43 l 88 39 q 60 29 69 39 q 51 8 51 19 q 59 -14 50 -4 q 88 -24 68 -24 q 177 -23 136 -24 q 242 -21 218 -22 q 278 1 271 -21 q 286 47 286 22 q 286 147 286 88 q 287 277 286 207 q 288 422 288 347 q 288 566 288 497 q 288 694 288 635 q 288 790 288 753 q 276 836 288 818 q 238 856 265 854 q 210 857 225 857 q 179 857 196 857 q 108 856 143 857 q 54 854 74 856 q 25 843 35 853 q 15 822 15 833 q 24 802 15 811 q 50 793 32 793 z "},"}":{"ha":438,"x_min":-19,"x_max":457,"o":"m 96 79 q 134 75 115 79 q 172 71 153 71 q 207 78 200 71 q 214 92 214 85 q 204 175 214 133 q 194 258 194 217 q 202 324 194 290 q 231 386 210 357 q 217 408 222 397 q 207 431 211 419 q 200 471 201 450 q 199 507 199 492 q 204 597 199 551 q 210 686 210 642 q 207 724 210 715 q 203 732 204 732 q 190 736 203 735 q 173 739 183 739 q 151 739 163 739 q 96 736 124 739 q 40 733 68 733 q -5 754 10 733 q -19 796 -19 775 q -11 828 -19 815 q 10 851 -3 842 q 58 868 32 865 q 110 871 85 871 l 138 871 q 212 864 175 871 q 278 840 249 857 q 324 794 307 824 q 342 719 342 765 q 336 631 342 675 q 331 543 331 588 q 332 509 331 525 q 339 482 333 493 q 365 464 344 464 q 379 465 372 464 q 393 467 386 467 q 441 446 425 467 q 457 401 457 425 q 445 361 457 376 q 415 339 433 346 q 389 331 404 333 l 368 326 q 342 313 354 322 q 331 261 331 303 q 338 178 331 219 q 346 97 346 138 q 326 13 346 44 q 273 -35 306 -18 q 199 -56 240 -51 q 117 -61 158 -61 q 99 -60 108 -61 q 82 -58 90 -60 q 63 -53 74 -57 q 42 -41 51 -49 q 26 -22 33 -33 q 19 8 19 -10 q 45 62 19 44 q 96 79 71 79 m 85 -24 q 115 -25 100 -25 q 143 -25 129 -25 q 238 -13 201 -25 q 294 29 274 -1 q 310 84 310 51 q 306 153 311 117 q 297 226 301 190 q 298 292 293 263 q 323 342 303 322 q 388 365 343 363 q 414 377 406 367 q 422 400 422 388 q 415 422 422 413 q 393 432 407 432 l 388 432 q 376 430 381 431 q 365 429 371 429 q 318 449 333 429 q 298 499 303 468 q 296 569 293 531 q 302 644 299 607 q 307 713 306 681 q 301 763 308 744 q 238 822 283 807 q 138 836 192 836 q 95 835 117 836 q 54 832 74 833 q 26 821 36 831 q 15 799 15 811 q 21 778 14 788 q 43 768 28 768 l 47 768 q 98 772 71 769 q 151 774 125 774 q 203 769 181 774 q 233 750 226 764 q 244 699 243 731 q 242 632 244 668 q 235 558 239 596 q 233 486 232 519 q 245 427 235 453 q 281 390 256 401 q 243 338 254 368 q 230 276 232 308 q 233 210 228 243 q 242 149 238 178 q 248 99 246 121 q 243 67 250 78 q 213 42 232 49 q 172 36 194 36 q 131 40 151 36 q 96 44 111 43 q 67 35 78 44 q 55 13 57 25 q 60 -10 53 1 q 85 -24 67 -21 z "},"_":{"ha":364,"x_min":-19,"x_max":383,"o":"m -19 31 q 1 80 -19 63 q 49 99 22 97 l 315 104 q 367 82 350 106 q 383 35 383 58 q 366 -12 383 7 q 319 -33 349 -32 l 53 -39 q 1 -20 22 -40 q -19 31 -19 0 m 318 1 q 342 12 335 1 q 349 35 350 22 q 340 59 349 49 q 317 69 332 69 l 50 64 q 24 53 32 64 q 15 29 15 42 q 25 6 15 17 q 51 -4 35 -4 l 318 1 z "},">":{"ha":404,"x_min":8,"x_max":424,"o":"m 383 153 q 326 115 369 144 q 235 53 283 85 q 186 22 210 38 q 143 -4 163 7 q 108 -24 124 -17 q 101 -28 104 -26 q 94 -31 97 -29 q 87 -33 92 -32 q 75 -35 82 -35 q 28 -15 47 -35 q 10 31 10 4 q 20 65 10 50 q 42 88 31 79 l 251 229 l 38 403 q 18 425 28 410 q 8 461 8 440 q 26 505 8 486 q 71 524 43 524 q 97 519 85 524 q 115 508 108 515 l 382 299 q 410 268 397 288 q 424 222 424 249 q 411 180 424 197 q 383 153 399 163 m 94 481 q 71 489 85 489 q 53 483 61 489 q 43 469 46 478 q 44 449 40 460 q 60 429 47 439 l 310 226 l 61 58 q 47 40 50 50 q 46 22 43 31 q 57 6 49 13 q 75 0 65 0 q 94 7 83 0 l 364 182 q 385 203 379 192 q 389 228 390 215 q 380 251 388 240 q 361 271 372 263 l 94 481 z "},"#":{"ha":704,"x_min":-7,"x_max":710,"o":"m 300 431 l 299 329 l 400 331 l 401 432 l 300 431 m 299 192 l 299 88 q 276 38 299 54 q 231 22 253 22 q 184 38 207 22 q 161 88 161 54 l 161 192 l 61 192 q 12 214 29 192 q -6 261 -6 236 q 12 307 -6 285 q 61 329 29 329 l 161 329 l 163 429 l 60 429 q 10 451 28 429 q -7 499 -7 474 q 10 544 -7 522 q 60 567 28 567 l 163 567 l 164 667 q 183 716 164 694 q 233 738 201 738 q 283 716 264 738 q 301 667 301 694 l 300 568 l 401 569 l 403 667 q 422 716 403 694 q 472 738 440 738 q 522 716 503 738 q 540 667 540 694 l 539 569 l 638 571 q 687 553 665 571 q 708 503 708 535 q 686 451 708 469 q 638 433 664 433 l 539 432 l 538 331 l 639 332 q 688 314 667 332 q 710 264 710 296 q 688 213 710 231 q 639 194 665 194 l 536 193 l 536 88 q 513 38 536 54 q 468 22 490 22 q 422 38 444 22 q 399 88 399 54 l 399 193 l 299 192 m 436 467 l 435 296 l 264 294 l 265 465 l 436 467 m 433 88 q 444 65 433 72 q 468 57 454 57 q 491 65 481 57 q 501 88 501 72 l 501 228 l 639 229 q 666 240 657 229 q 675 263 675 250 q 666 287 675 276 q 639 297 657 297 l 503 296 l 504 467 l 638 468 q 665 478 656 468 q 674 502 674 489 q 665 526 674 515 q 638 536 656 536 l 504 535 l 506 667 q 495 694 506 685 q 472 703 485 703 q 448 694 458 703 q 438 667 438 685 l 436 535 l 265 533 l 267 667 q 256 694 267 685 q 233 703 246 703 q 209 694 219 703 q 199 667 199 685 l 197 532 l 60 532 q 37 522 44 532 q 29 498 29 511 q 37 474 29 485 q 60 464 44 464 l 197 464 l 196 294 l 61 294 q 38 284 46 294 q 31 260 31 274 q 38 237 31 247 q 61 226 46 226 l 196 226 l 196 88 q 206 65 196 72 q 231 57 217 57 q 253 65 243 57 q 264 88 264 72 l 264 226 l 433 228 l 433 88 z "},"|":{"ha":246,"x_min":49,"x_max":197,"o":"m 118 1035 q 168 1013 150 1035 q 186 964 186 992 l 197 -167 q 174 -216 197 -200 q 129 -232 151 -232 q 83 -216 106 -232 q 60 -167 60 -200 l 49 964 q 67 1013 49 992 q 118 1035 86 1035 m 94 -167 q 105 -190 94 -182 q 129 -197 115 -197 q 152 -190 142 -197 q 163 -167 163 -182 l 151 964 q 141 991 151 982 q 118 1000 131 1000 q 94 991 104 1000 q 83 964 83 982 l 94 -167 z "},"":{"ha":199,"x_min":-7,"x_max":204,"o":"m 204 353 q 174 277 204 308 q 97 246 143 246 q 53 256 72 246 q 21 281 35 265 q 0 317 7 297 q -7 357 -7 336 q 22 430 -7 401 q 96 458 51 458 q 172 430 140 458 q 204 353 204 401 m 96 424 q 43 401 60 424 q 28 352 26 379 q 47 303 29 325 q 97 281 65 281 q 150 303 132 281 q 169 352 168 325 q 151 401 169 379 q 96 424 133 424 z "},"":{"ha":246,"x_min":49,"x_max":197,"o":"m 118 1035 q 168 1013 150 1035 q 186 964 186 992 l 190 514 q 167 465 190 481 q 122 449 144 449 q 76 465 99 449 q 53 514 53 481 l 49 964 q 67 1013 49 992 q 118 1035 86 1035 m 126 353 q 176 331 158 353 q 194 282 194 308 l 197 -167 q 174 -216 197 -200 q 129 -232 151 -232 q 83 -216 106 -232 q 60 -167 60 -200 l 57 282 q 75 331 57 310 q 126 353 93 353 m 88 514 q 98 491 88 499 q 122 483 108 483 q 145 491 135 483 q 156 514 156 499 l 151 964 q 141 991 151 982 q 118 1000 131 1000 q 94 991 104 1000 q 83 964 83 982 l 88 514 m 94 -167 q 105 -190 94 -182 q 129 -197 115 -197 q 152 -190 142 -197 q 163 -167 163 -182 l 160 282 q 149 310 160 301 q 126 318 139 318 q 102 310 113 318 q 92 282 92 301 l 94 -167 z "},"":{"ha":456,"x_min":8,"x_max":447,"o":"m 172 338 q 211 318 186 325 q 258 304 235 310 q 300 294 282 299 q 311 313 311 301 q 302 334 311 324 q 265 354 293 344 q 219 369 243 364 q 175 379 194 374 q 164 350 164 368 q 165 344 164 347 q 172 338 165 342 m 57 440 q 33 483 40 460 q 26 531 26 506 q 47 611 26 576 q 97 669 67 646 q 166 703 128 692 q 239 714 204 714 q 296 706 264 714 q 356 683 328 699 q 405 644 385 667 q 425 593 425 622 q 405 547 425 565 q 358 528 385 528 q 334 534 344 528 q 317 544 324 540 q 292 565 307 553 q 267 581 281 575 q 238 588 254 588 q 183 572 203 588 q 164 538 164 557 q 167 528 164 533 q 188 515 171 522 q 228 503 203 510 q 253 495 240 499 q 281 489 267 492 q 336 471 307 482 q 390 440 365 460 q 431 391 415 421 q 447 317 447 361 q 417 224 447 265 q 447 132 447 185 q 424 47 447 81 q 367 -7 401 13 q 292 -34 332 -26 q 219 -42 253 -42 q 160 -36 196 -42 q 90 -17 124 -31 q 33 18 57 -4 q 8 72 8 40 q 30 122 8 101 q 79 142 51 142 q 92 140 86 142 q 100 136 97 138 q 106 133 103 135 q 114 129 110 132 q 170 103 140 114 q 232 92 200 92 q 263 94 247 92 q 290 103 278 96 q 307 114 303 108 q 311 126 311 119 q 306 144 311 138 q 286 160 301 151 q 194 186 242 176 q 133 204 164 193 q 79 233 103 215 q 41 276 56 250 q 26 340 26 303 q 57 440 26 397 m 129 350 q 139 389 128 372 q 168 417 150 406 q 231 400 199 407 q 288 383 263 393 q 330 356 314 372 q 346 313 346 340 q 335 279 346 293 q 304 257 324 265 q 244 274 275 267 q 188 290 213 281 q 146 313 163 299 q 129 350 129 326 m 61 331 q 87 272 64 293 q 141 239 110 251 q 208 219 172 226 q 275 201 244 211 q 326 174 306 190 q 346 126 346 157 q 310 74 344 90 q 232 57 276 57 q 158 67 194 57 q 103 97 122 78 q 79 107 92 107 q 47 87 58 107 q 54 47 36 67 q 126 7 81 21 q 219 -7 171 -7 q 290 1 256 -7 q 351 24 324 8 q 394 65 378 40 q 413 122 411 89 q 401 183 414 158 q 369 224 389 208 q 413 310 408 256 q 394 385 414 357 q 343 428 374 413 q 275 453 313 444 q 206 472 238 463 q 152 496 174 482 q 129 538 131 510 q 157 596 128 574 q 225 621 186 618 q 231 622 228 621 q 238 622 235 622 q 291 609 265 622 q 332 576 317 596 q 358 563 344 563 q 386 578 376 563 q 383 613 396 594 q 316 665 358 650 q 231 679 274 679 q 166 667 197 678 q 110 635 135 656 q 72 586 86 615 q 61 518 58 557 q 106 443 65 469 q 71 395 83 424 q 61 331 58 367 z "},"\"":{"ha":278,"x_min":-7,"x_max":285,"o":"m 64 804 q 113 781 96 804 q 131 733 131 758 l 131 468 q 108 419 131 435 q 63 403 85 403 q 16 419 39 403 q -7 468 -7 435 l -7 733 q 15 783 -7 763 q 64 804 36 804 m 217 804 q 267 782 249 804 q 285 733 285 760 l 285 468 q 262 419 285 435 q 217 403 239 403 q 170 419 193 403 q 147 468 147 435 l 147 733 q 167 783 147 761 q 217 804 188 804 m 28 733 l 28 468 q 38 445 28 453 q 63 438 49 438 q 85 445 75 438 q 96 468 96 453 l 96 733 q 86 760 96 751 q 64 769 76 769 q 41 760 51 769 q 28 733 31 751 m 182 733 l 182 468 q 192 445 182 453 q 217 438 203 438 q 240 445 229 438 q 250 468 250 453 l 250 733 q 240 760 250 751 q 217 769 229 769 q 194 760 204 769 q 182 733 183 751 z "},"":{"ha":432,"x_min":-19,"x_max":451,"o":"m -19 339 q 1 389 -19 371 q 50 407 22 407 l 385 413 q 434 390 417 414 q 451 343 451 367 q 434 295 451 315 q 386 275 417 275 l 51 269 q 1 289 22 269 q -19 339 -19 308 m 386 310 q 410 320 403 310 q 417 344 418 331 q 408 367 417 357 q 385 378 400 378 l 50 372 q 24 361 32 372 q 15 338 15 350 q 25 315 15 325 q 51 304 35 304 l 386 310 z "},"":{"ha":432,"x_min":-19,"x_max":451,"o":"m 281 215 q 261 166 281 186 q 211 146 242 146 q 161 169 178 146 q 144 217 144 192 q 172 271 144 254 l 51 269 q 1 289 22 269 q -19 339 -19 308 q 1 389 -19 371 q 50 407 22 407 l 160 408 q 144 454 144 428 q 163 501 144 482 q 211 521 182 521 q 260 503 239 521 q 281 453 281 485 q 267 411 281 429 l 385 413 q 434 390 417 414 q 451 343 451 367 q 434 295 451 315 q 386 275 417 275 l 249 272 q 281 215 281 254 m 386 310 q 410 320 403 310 q 417 344 418 331 q 408 367 417 357 q 385 378 400 378 l 50 372 q 24 361 32 372 q 15 338 15 350 q 25 315 15 325 q 51 304 35 304 l 386 310 m 211 486 q 186 476 194 486 q 178 452 178 465 q 188 428 179 439 q 211 418 196 418 q 237 428 228 418 q 246 452 246 439 q 238 476 246 465 q 211 486 229 486 m 211 249 q 186 238 194 249 q 178 215 178 228 q 188 191 179 201 q 211 181 196 181 q 237 191 228 181 q 246 215 246 201 q 238 238 246 228 q 211 249 229 249 z "},"+":{"ha":432,"x_min":-19,"x_max":451,"o":"m 143 271 l 51 269 q 1 288 22 269 q -19 339 -19 307 q 1 389 -19 371 q 50 407 22 407 l 143 408 l 144 497 q 164 547 144 526 q 214 567 183 567 q 264 546 246 567 q 282 497 282 525 l 281 411 l 385 413 q 435 390 418 414 q 451 343 451 367 q 434 296 451 315 q 386 275 417 276 l 281 272 l 281 161 q 273 131 281 143 q 254 110 265 118 q 231 99 243 103 q 208 96 218 96 q 163 112 182 96 q 143 160 143 128 l 143 271 m 178 160 q 186 138 176 144 q 208 131 196 131 q 233 138 222 131 q 246 161 244 146 l 246 307 l 386 310 q 410 320 403 310 q 417 344 418 331 q 408 367 417 357 q 385 378 400 378 l 246 375 l 247 497 q 237 524 247 515 q 214 532 226 532 q 190 524 201 532 q 179 497 179 515 l 178 374 l 50 372 q 24 361 32 372 q 15 338 15 350 q 25 315 15 325 q 51 304 35 304 l 178 306 l 178 160 z "},"":{"ha":378,"x_min":-6,"x_max":385,"o":"m 29 421 q 15 440 22 428 q 8 469 8 451 q 26 515 8 493 q 74 538 43 538 q 102 531 89 538 q 125 515 115 525 l 190 443 l 250 511 q 275 529 261 524 q 301 535 289 535 q 349 514 329 535 q 369 465 369 493 q 363 439 369 449 q 350 417 358 428 q 318 376 336 397 q 282 340 300 356 l 365 249 q 385 203 385 229 q 367 154 385 178 q 317 131 349 131 q 271 151 289 131 l 190 239 l 111 147 q 88 132 100 136 q 64 128 75 128 q 15 148 36 128 q -6 197 -6 168 q -3 214 -6 207 q 3 225 0 221 q 9 235 6 231 q 17 247 13 240 q 56 295 35 272 q 99 340 76 318 l 29 421 m 39 218 q 29 200 31 210 q 33 182 28 190 q 46 168 38 174 q 64 163 54 163 q 85 171 75 163 l 190 290 l 296 175 q 317 165 306 165 q 334 172 326 165 q 346 187 342 178 q 349 206 350 196 q 340 225 349 217 l 235 340 l 324 440 q 335 460 333 450 q 332 480 336 471 q 319 494 328 489 q 301 500 311 500 q 276 489 290 500 l 190 390 l 99 492 q 74 503 88 503 q 56 497 64 503 q 46 483 49 492 q 44 463 43 474 q 56 443 46 453 l 146 340 l 39 218 z "},"":{"ha":931,"x_min":8,"x_max":936,"o":"m 582 161 q 567 200 582 185 q 531 215 553 215 q 495 197 511 215 q 479 153 479 179 q 495 115 479 131 q 533 99 511 99 q 567 116 553 99 q 582 161 582 133 m 754 224 q 791 242 774 224 q 808 289 808 261 q 794 327 808 313 q 757 342 779 342 q 721 325 738 342 q 704 286 704 308 q 720 242 704 260 q 754 224 736 224 m 703 104 q 679 53 694 78 q 643 11 664 29 q 595 -18 622 -7 q 536 -29 568 -29 q 465 -16 499 -29 q 405 21 431 -3 q 363 78 379 44 q 347 151 347 111 q 360 222 347 188 q 398 284 374 257 q 456 328 422 311 q 529 344 489 344 q 579 338 551 344 q 643 431 597 393 q 753 469 689 469 q 824 457 790 469 q 882 421 857 444 q 922 365 907 397 q 936 293 936 333 q 924 223 936 258 q 888 159 911 188 q 831 113 864 131 q 756 96 797 96 q 703 104 731 96 m 247 561 q 233 598 247 583 q 194 613 218 613 q 158 594 174 613 q 142 550 142 576 q 158 511 142 526 q 197 496 174 496 q 231 515 215 496 q 247 561 247 533 m 193 742 q 263 728 231 742 q 321 692 296 715 q 360 635 346 668 q 374 564 374 603 q 361 494 374 529 q 326 432 349 460 q 270 387 303 404 q 196 369 238 369 q 124 382 158 369 q 65 418 90 394 q 24 475 39 442 q 8 549 8 508 q 22 621 8 586 q 60 683 36 656 q 119 726 85 710 q 193 742 153 742 m 756 672 q 749 645 756 657 q 733 624 743 633 l 144 49 q 101 32 128 32 q 51 54 72 32 q 31 104 31 76 q 51 151 31 131 l 638 722 q 657 737 644 729 q 686 744 669 744 q 737 722 718 744 q 756 672 756 699 m 507 68 q 453 113 467 82 q 447 174 440 143 q 476 227 453 204 q 531 250 499 250 q 545 249 538 250 q 560 244 553 247 q 608 202 596 232 q 615 142 621 172 q 587 88 608 111 q 533 64 565 64 q 507 68 522 64 m 168 467 q 114 513 126 479 q 111 579 101 547 q 141 627 119 607 q 194 647 163 647 q 221 643 207 647 q 275 596 263 631 q 276 528 288 561 q 247 481 268 500 q 197 461 226 461 q 183 463 190 461 q 168 467 175 464 m 672 308 q 703 356 682 336 q 757 376 725 376 q 783 372 769 376 q 836 324 824 358 q 838 256 849 290 q 807 208 828 228 q 754 189 786 189 q 716 200 733 189 q 688 228 699 211 q 672 267 676 246 q 672 308 667 289 m 892 236 q 901 294 901 264 q 891 349 901 324 q 858 396 881 375 q 801 428 836 417 q 776 433 789 432 q 753 435 764 435 q 665 405 701 435 q 613 331 629 375 q 604 290 606 310 q 569 305 589 300 q 529 310 549 310 q 442 279 479 310 q 390 204 406 249 q 382 147 382 176 q 394 92 382 118 q 428 46 406 67 q 489 14 451 25 q 536 6 514 6 q 592 18 567 6 q 635 51 617 31 q 664 97 653 71 q 678 151 675 124 q 716 136 696 142 q 756 131 736 131 q 840 161 803 131 q 892 236 876 192 m 149 413 q 196 404 174 404 q 280 435 244 404 q 329 508 315 465 q 339 565 339 536 q 328 620 339 594 q 295 667 317 646 q 239 700 274 689 q 193 707 214 707 q 104 676 142 707 q 51 601 67 646 q 43 544 43 574 q 55 490 43 515 q 90 443 67 464 q 149 413 113 422 m 75 126 q 65 106 65 117 q 69 87 64 96 q 83 72 75 78 q 101 67 92 67 q 121 74 114 67 l 710 649 q 720 668 719 657 q 717 688 721 679 q 704 703 713 697 q 686 710 696 710 q 661 697 674 710 l 75 126 z "},"=":{"ha":426,"x_min":-6,"x_max":432,"o":"m -6 407 q 15 457 -6 439 q 64 475 36 475 l 363 481 q 392 474 379 481 q 414 456 406 467 q 426 433 422 446 q 431 408 431 419 q 416 366 431 385 q 376 343 401 347 q 418 317 404 340 q 432 274 432 294 q 415 228 432 247 q 367 207 397 208 l 65 201 q 15 220 36 200 q -6 271 -6 240 q 13 318 -6 301 q 54 339 31 335 q 12 360 29 342 q -6 407 -6 379 m 367 242 q 390 252 383 242 q 397 276 397 263 q 389 299 397 289 q 365 310 381 310 l 64 304 q 38 293 46 304 q 29 269 29 282 q 39 247 29 257 q 65 236 49 236 l 367 242 m 367 378 q 390 388 383 378 q 396 412 397 399 q 386 435 394 425 q 363 446 378 446 l 64 440 q 38 429 46 440 q 29 406 29 418 q 39 383 29 393 q 65 372 49 372 l 367 378 z "},"~":{"ha":478,"x_min":-7,"x_max":483,"o":"m 328 340 q 331 344 329 343 q 335 349 333 346 l 343 361 q 349 369 346 365 q 354 376 351 372 q 360 383 357 379 q 368 392 364 388 q 387 406 375 399 q 415 413 399 413 q 464 392 444 413 q 483 343 483 371 q 466 294 483 319 q 424 249 449 269 q 373 215 400 228 q 325 201 346 201 q 251 226 282 201 q 201 272 221 250 q 192 283 197 278 q 183 294 188 289 l 167 311 q 157 319 160 318 q 153 313 156 317 q 150 306 151 308 q 142 288 147 299 q 137 276 139 281 q 132 265 135 271 q 126 254 129 260 q 118 242 122 249 q 94 221 108 231 q 60 211 81 211 q 15 228 36 211 q -7 275 -7 244 q 6 331 -7 299 q 41 391 19 363 q 92 439 63 419 q 153 458 121 458 q 228 434 196 458 q 282 388 260 410 q 302 366 293 376 q 319 349 311 356 q 324 344 322 346 q 328 340 325 343 m 97 274 q 128 336 115 318 q 158 354 142 354 q 192 335 175 354 q 228 295 208 317 q 271 255 247 274 q 325 236 294 236 q 388 263 360 236 q 440 319 417 290 q 445 360 456 342 q 415 378 435 378 q 388 363 399 378 q 379 349 385 358 q 365 331 374 340 q 347 313 357 321 q 328 304 338 306 q 297 322 314 304 q 257 363 279 340 q 209 405 235 386 q 153 424 183 424 q 110 411 129 424 q 75 379 90 399 q 49 336 60 360 q 31 289 38 313 q 34 258 24 269 q 60 246 44 246 q 81 253 71 246 q 97 274 92 260 z "},"":{"ha":783,"x_min":7,"x_max":775,"o":"m 393 717 q 285 690 332 717 q 208 618 239 663 q 161 516 176 574 q 146 397 146 458 q 160 280 146 335 q 206 185 175 225 q 283 123 236 146 q 392 100 329 100 q 497 124 451 100 q 574 190 543 149 q 622 285 606 231 q 638 401 638 340 q 622 519 638 463 q 575 620 606 576 q 499 690 544 664 q 393 717 453 717 m 394 853 q 566 811 494 853 q 684 703 638 769 q 753 555 731 638 q 775 390 775 472 q 749 230 775 307 q 674 94 724 153 q 551 0 624 35 q 386 -35 479 -35 q 219 0 290 -35 q 101 93 149 35 q 31 228 54 151 q 7 390 7 306 q 31 555 7 472 q 102 703 54 638 q 223 811 150 769 q 394 853 296 853 m 394 664 q 463 650 432 664 q 516 614 493 636 q 555 564 539 592 q 581 508 571 536 q 583 498 582 503 q 583 486 583 493 q 561 440 583 454 q 519 425 539 425 q 478 441 496 425 q 450 476 461 457 q 444 485 447 481 q 439 496 442 490 q 417 524 428 515 q 388 533 406 533 q 337 499 357 533 q 317 421 317 465 q 335 332 317 367 q 390 297 353 297 q 435 308 415 297 q 475 338 456 319 q 494 356 486 347 q 510 372 503 365 q 517 381 513 376 q 526 388 522 385 q 540 394 532 390 q 558 399 547 399 q 606 378 586 399 q 626 329 626 357 q 617 293 626 310 q 522 199 583 236 q 393 163 461 163 q 299 185 339 163 q 234 242 260 207 q 196 322 208 278 q 183 410 183 367 q 196 495 183 450 q 235 578 208 540 q 301 640 261 615 q 394 664 340 664 m 392 65 q 272 90 324 65 q 184 158 219 114 q 130 263 149 201 q 111 397 111 324 q 135 552 111 486 q 198 663 158 618 q 289 729 238 707 q 393 751 340 751 q 496 730 446 751 q 585 665 546 708 q 648 555 624 621 q 672 401 672 489 q 655 277 672 338 q 603 169 638 217 q 515 94 568 122 q 392 65 463 65 m 42 390 q 66 231 42 303 q 135 107 90 158 q 243 28 179 56 q 386 0 307 0 q 537 32 471 0 q 649 118 603 64 q 718 244 694 172 q 740 397 742 317 q 710 582 740 503 q 632 713 681 661 q 522 792 583 765 q 394 818 460 818 q 266 791 329 818 q 153 710 203 764 q 72 577 103 657 q 42 390 42 497 m 218 410 q 235 314 219 354 q 274 248 250 274 q 328 210 297 222 q 393 197 360 197 q 500 227 447 197 q 586 311 553 257 q 586 347 597 331 q 558 364 575 364 q 532 349 542 364 q 465 285 504 308 q 390 263 426 263 q 315 298 346 263 q 282 414 285 333 q 290 478 281 450 q 313 526 299 507 q 347 557 328 546 q 388 568 367 568 q 442 547 415 568 q 486 482 468 526 q 499 465 490 471 q 519 460 508 460 q 544 469 533 460 q 547 497 554 479 q 482 599 524 568 q 394 629 440 629 q 329 613 361 629 q 272 569 297 597 q 232 500 247 540 q 218 410 217 460 z "},"":{"ha":783,"x_min":7,"x_max":775,"o":"m 349 460 q 409 469 375 463 q 465 492 443 476 q 474 500 471 494 q 475 503 475 503 q 456 528 475 521 q 425 533 442 532 q 389 535 408 535 q 369 535 378 535 q 349 533 360 535 l 349 460 m 394 853 q 566 811 494 853 q 684 703 638 769 q 753 555 731 638 q 775 390 775 472 q 749 230 775 307 q 674 94 724 153 q 551 0 624 35 q 386 -35 479 -35 q 219 0 290 -35 q 101 93 149 35 q 31 228 54 151 q 7 390 7 306 q 31 555 7 472 q 102 703 54 638 q 223 811 150 769 q 394 853 296 853 m 225 164 q 219 176 221 171 q 214 189 217 182 q 211 224 211 204 q 211 263 211 243 q 213 298 213 281 q 214 328 214 315 q 212 465 213 397 q 211 603 211 533 q 217 631 211 619 q 163 525 181 586 q 146 397 146 464 q 165 265 146 325 q 225 164 185 204 m 554 165 q 526 178 538 168 q 508 196 515 188 l 404 332 q 377 328 390 329 q 350 325 364 328 q 351 260 351 293 q 351 196 351 228 q 344 167 351 179 q 327 148 338 156 q 305 136 317 140 q 283 132 293 132 q 258 136 269 132 q 392 100 314 100 q 483 117 443 100 q 554 165 524 135 m 279 672 q 301 668 289 672 q 316 669 308 669 q 331 669 324 669 q 417 663 369 669 q 508 639 465 657 q 579 589 550 621 q 608 507 608 557 q 585 435 608 464 q 535 388 563 406 q 553 363 543 376 q 572 335 563 349 q 596 303 581 324 q 615 268 611 282 q 632 332 626 299 q 638 401 638 365 q 622 519 638 463 q 575 620 606 576 q 499 690 544 664 q 393 717 453 717 q 251 667 310 717 q 279 672 263 672 m 392 65 q 272 90 324 65 q 184 158 219 114 q 130 263 149 201 q 111 397 111 324 q 135 552 111 486 q 198 663 158 618 q 289 729 238 707 q 393 751 340 751 q 496 730 446 751 q 585 665 546 708 q 648 555 624 621 q 672 401 672 489 q 655 277 672 338 q 603 169 638 217 q 515 94 568 122 q 392 65 463 65 m 314 567 q 351 569 332 568 q 389 569 369 569 q 433 567 411 569 q 471 559 454 565 q 498 542 488 553 q 510 513 508 531 q 486 464 513 482 q 425 437 460 446 q 358 426 390 428 q 315 424 325 424 q 314 495 314 460 q 314 567 314 531 m 42 390 q 66 231 42 303 q 135 107 90 158 q 243 28 179 56 q 386 0 307 0 q 537 32 471 0 q 649 118 603 64 q 718 244 694 172 q 740 397 742 317 q 710 582 740 503 q 632 713 681 661 q 522 792 583 765 q 394 818 460 818 q 266 791 329 818 q 153 710 203 764 q 72 577 103 657 q 42 390 42 497 m 246 603 q 248 424 247 493 q 249 310 249 354 q 249 242 249 267 q 249 196 249 217 q 262 174 251 181 q 283 167 272 167 q 304 174 294 167 q 317 196 314 181 q 317 276 317 236 q 315 357 317 317 q 367 363 338 360 q 418 371 396 365 l 536 217 q 564 200 547 200 q 590 217 581 200 q 585 254 599 235 l 482 399 q 555 451 533 421 q 574 514 576 481 q 546 575 572 551 q 483 612 519 599 q 406 630 447 625 q 331 635 364 635 q 310 635 319 635 q 294 633 301 635 q 279 638 289 638 q 257 629 267 638 q 246 603 247 621 z "},"":{"ha":185,"x_min":-6,"x_max":192,"o":"m 150 701 q 149 686 150 693 q 146 672 147 679 q 142 658 143 665 q 139 644 142 651 q 131 599 131 618 q 138 559 131 576 q 156 526 144 542 q 167 510 161 517 q 176 496 172 503 q 186 479 182 488 q 192 454 192 465 q 169 406 192 422 q 122 389 146 389 q 67 411 90 389 q 27 465 43 433 q 3 531 11 496 q -6 592 -6 565 q -2 642 -6 613 q 11 698 1 671 q 39 744 21 725 q 85 764 57 764 q 130 747 110 764 q 150 701 150 731 m 53 707 q 31 561 22 633 q 92 436 39 489 q 122 424 104 424 q 153 440 142 424 q 147 478 164 457 q 117 522 129 500 q 99 567 104 543 q 97 621 93 592 q 113 689 100 650 q 109 719 119 708 q 85 729 99 729 q 66 724 75 729 q 53 707 57 718 z "},"":{"ha":349,"x_min":-7,"x_max":356,"o":"m 168 725 q 165 707 168 715 q 163 699 164 703 q 160 690 161 694 q 153 673 157 682 q 146 653 150 664 q 133 614 139 633 q 128 578 128 594 q 138 532 128 551 q 160 497 147 513 q 173 481 167 489 q 185 467 179 474 q 197 449 193 458 q 203 437 200 443 q 206 421 206 431 q 186 374 206 396 q 138 351 167 351 q 109 358 121 351 q 90 371 97 364 q 19 463 44 411 q -7 576 -7 514 q -2 635 -7 599 q 15 706 3 671 q 48 765 28 740 q 99 790 68 790 q 145 774 122 790 q 168 725 168 757 m 314 700 q 310 671 314 683 q 303 644 308 660 q 297 619 300 631 q 294 599 294 608 q 301 559 294 576 q 319 526 308 542 q 331 510 325 517 q 340 496 336 503 q 345 487 343 492 q 350 479 347 482 q 356 454 356 465 q 333 406 356 422 q 286 389 310 389 q 231 411 256 389 q 191 465 207 433 q 167 531 175 496 q 158 592 158 565 q 167 665 158 624 q 194 733 175 706 q 216 754 201 744 q 250 764 231 764 q 295 746 276 764 q 314 700 314 728 m 64 732 q 35 642 46 686 q 29 554 25 597 q 53 472 33 511 q 113 397 72 433 q 138 386 126 386 q 156 392 147 386 q 168 408 164 399 q 170 428 172 417 q 158 447 168 439 q 108 513 122 479 q 94 579 93 546 q 105 646 94 613 q 129 710 115 679 q 127 743 139 731 q 99 756 115 756 q 79 750 89 756 q 64 732 69 744 m 218 707 q 194 561 186 633 q 257 436 203 489 q 286 424 269 424 q 317 440 306 424 q 311 478 328 457 q 281 522 293 500 q 263 567 268 543 q 262 621 258 592 q 278 689 265 650 q 274 719 283 708 q 250 729 264 729 q 231 724 240 729 q 218 707 222 718 z "},"":{"ha":336,"x_min":-6,"x_max":342,"o":"m 217 351 q 167 372 188 351 q 146 421 146 393 q 151 446 146 435 q 156 454 154 450 q 161 463 158 458 q 171 476 165 469 q 182 492 176 483 q 200 524 193 507 q 207 561 207 540 q 200 604 207 582 q 182 649 193 626 q 172 669 176 660 q 163 688 167 679 q 156 704 157 699 q 150 726 150 713 q 173 775 150 758 q 219 792 196 792 q 272 764 249 792 q 310 699 294 736 q 334 622 326 661 q 342 558 342 582 q 333 501 342 536 q 309 432 325 465 q 269 375 293 399 q 217 351 246 351 m 63 371 q 17 388 39 371 q -6 436 -6 404 q -2 457 -6 447 q 4 472 1 467 q 28 516 17 492 q 39 564 39 540 q 25 622 39 588 q 19 638 22 631 q 14 653 17 646 q 9 669 11 660 q 7 686 7 678 q 28 732 7 715 q 72 749 49 749 q 108 738 93 749 q 131 715 122 726 q 163 638 150 685 q 176 556 176 590 q 169 501 176 533 q 149 440 163 469 q 113 391 135 411 q 63 371 92 371 m 251 738 q 236 753 244 749 q 219 757 228 757 q 190 742 201 757 q 190 708 179 728 q 222 647 207 679 q 240 582 236 615 q 234 514 244 549 q 190 444 224 479 q 185 406 174 425 q 217 386 197 386 q 242 399 231 386 q 293 481 278 439 q 308 565 308 522 q 292 651 307 607 q 251 738 276 694 m 101 694 q 72 714 92 714 q 47 702 57 714 q 46 671 38 690 q 69 605 63 633 q 73 551 75 576 q 61 504 71 526 q 36 458 51 482 q 32 421 21 436 q 63 406 43 406 q 78 409 69 406 q 93 421 86 413 q 142 552 142 479 q 101 694 142 625 z "},"":{"ha":167,"x_min":-7,"x_max":174,"o":"m 125 417 q 101 397 115 406 q 68 388 88 388 q 21 406 43 388 q -1 454 -1 424 q 2 474 -1 465 q 8 489 6 482 q 14 501 11 494 q 21 515 17 508 q 32 544 28 531 q 36 572 36 557 q 31 604 36 588 q 18 638 25 621 l 3 668 q -3 682 0 674 q -6 691 -4 686 q -7 703 -7 696 q 15 750 -7 733 q 60 767 36 767 q 110 743 89 767 q 145 687 131 719 q 167 619 160 654 q 174 561 174 585 q 170 526 174 546 q 160 485 167 506 q 145 447 154 465 q 125 417 136 428 m 89 715 q 60 732 79 732 q 33 719 44 732 q 32 686 22 706 q 62 622 53 650 q 70 569 71 594 q 61 522 69 544 q 39 474 53 499 q 39 437 28 451 q 68 422 50 422 q 100 440 88 422 q 139 576 144 503 q 89 715 133 649 z "},"":{"ha":632,"x_min":35,"x_max":599,"o":"m 404 250 q 421 313 414 281 q 433 374 428 344 q 441 429 438 404 q 447 471 444 454 q 474 516 453 500 q 521 532 494 532 q 567 515 547 532 q 588 469 586 499 l 597 36 q 576 -15 599 4 q 529 -33 554 -33 q 483 -17 506 -33 q 460 31 461 -1 l 458 67 q 391 7 431 31 q 299 -17 351 -17 q 230 -3 260 -17 q 176 33 200 11 l 175 -153 q 153 -203 175 -186 q 106 -221 131 -221 q 83 -217 96 -221 q 60 -206 71 -214 q 42 -186 49 -199 q 35 -156 35 -174 l 39 460 q 59 510 39 489 q 111 532 79 532 q 158 516 139 532 q 179 472 176 500 q 190 378 183 440 q 211 251 196 315 q 222 215 215 238 q 240 169 229 192 q 267 132 251 147 q 301 117 282 117 q 404 250 363 117 m 144 468 q 133 490 143 483 q 111 497 124 497 q 85 488 97 497 q 74 460 74 479 l 69 -156 q 81 -178 69 -171 q 106 -186 92 -186 q 129 -178 118 -186 q 140 -153 140 -169 l 142 147 q 204 53 167 89 q 299 18 242 18 q 414 68 368 18 q 489 193 460 118 l 494 32 q 505 10 494 17 q 529 3 515 3 q 552 10 542 3 q 563 35 563 18 l 553 468 q 543 490 553 483 q 521 497 533 497 q 497 489 508 497 q 482 465 485 481 q 456 307 472 378 q 417 186 440 236 q 366 109 394 136 q 301 82 338 82 q 238 113 265 82 q 192 195 211 143 q 161 318 172 247 q 144 468 150 389 z "},"":{"ha":601,"x_min":-7,"x_max":622,"o":"m 343 856 l 557 856 q 606 834 589 856 q 622 789 622 813 q 611 749 622 765 q 582 726 600 733 q 565 721 576 724 l 556 21 q 534 -28 556 -11 q 488 -44 513 -44 q 442 -29 467 -44 q 418 21 418 -14 l 426 719 l 394 719 l 386 21 q 365 -28 386 -11 q 318 -44 343 -44 q 273 -29 297 -44 q 249 21 249 -14 l 251 311 q 150 336 197 317 q 68 390 103 356 q 13 472 33 424 q -7 583 -7 521 q 24 722 -7 669 q 106 805 56 775 q 218 845 156 835 q 343 856 281 856 m 28 583 q 48 478 28 524 q 103 404 68 433 q 185 360 139 375 q 286 344 232 346 l 283 21 q 294 -2 283 6 q 318 -10 306 -10 q 341 -2 331 -10 q 351 21 351 6 l 360 754 l 461 754 l 453 21 q 464 -2 453 6 q 488 -10 475 -10 q 510 -2 500 -10 q 521 21 521 6 l 531 754 l 551 754 q 578 765 569 754 q 588 788 588 775 q 580 810 588 800 q 557 821 572 821 l 343 821 q 219 810 276 821 q 119 773 163 800 q 52 700 76 746 q 28 583 28 654 m 292 753 l 288 406 q 151 451 207 408 q 93 582 96 494 q 108 665 92 633 q 151 716 124 697 q 216 743 179 735 q 292 753 253 751 m 128 590 q 161 491 128 528 q 253 443 194 454 l 257 715 q 161 680 194 707 q 128 590 128 653 z "},"":{"ha":457,"x_min":8,"x_max":478,"o":"m 272 404 q 269 415 269 410 q 265 426 268 419 q 240 419 254 422 q 214 415 226 415 q 168 431 190 415 q 146 479 146 447 q 153 506 146 494 q 168 525 160 518 q 203 546 183 539 q 212 549 207 547 q 221 551 217 550 q 204 593 214 571 q 183 639 194 615 q 167 678 175 660 q 153 711 160 696 q 148 726 150 719 q 143 736 146 732 q 138 753 139 747 q 138 760 138 758 q 161 809 138 792 q 207 826 185 826 q 242 817 229 826 q 263 793 256 807 q 285 750 274 775 q 309 698 297 725 q 332 644 321 671 q 351 594 343 618 q 356 596 354 596 q 360 597 357 596 q 373 601 367 600 q 385 606 379 603 q 397 608 390 607 q 411 610 404 610 q 456 593 435 610 q 478 544 478 576 q 471 517 478 529 q 456 497 464 506 q 438 485 447 490 q 419 476 428 479 q 408 472 413 474 q 396 468 403 471 q 428 346 415 410 q 442 219 442 282 q 428 123 442 169 q 388 42 415 76 q 317 -14 360 7 q 214 -35 274 -35 q 133 -20 171 -35 q 67 21 94 -6 q 24 85 40 47 q 8 168 8 122 q 32 269 8 226 q 93 342 56 313 q 178 387 131 371 q 272 404 225 403 m 43 157 q 61 85 46 115 q 101 37 76 56 q 154 9 125 18 q 214 0 183 0 q 256 4 235 0 q 294 17 276 8 q 378 90 353 40 q 406 206 404 140 q 392 347 408 272 q 351 492 376 421 l 422 515 q 440 533 435 522 q 442 552 444 543 q 432 568 440 561 q 411 575 424 575 q 406 574 408 575 q 401 574 404 574 l 331 550 q 273 688 301 628 q 233 775 244 749 q 207 792 225 792 q 178 778 192 792 q 175 746 165 765 q 225 636 201 689 q 268 529 249 583 l 206 508 q 185 493 190 503 q 181 474 179 483 q 192 457 183 464 q 214 450 200 450 q 226 451 222 450 l 288 471 q 317 368 304 422 q 298 369 307 369 q 279 369 289 369 q 176 350 221 369 q 100 301 131 331 q 55 233 69 271 q 43 157 40 194 m 336 293 q 342 234 340 265 q 338 173 344 203 q 315 117 332 143 q 265 74 299 90 q 215 63 243 63 q 178 68 197 63 q 144 86 160 74 q 119 118 129 99 q 107 164 110 138 q 117 213 106 189 q 149 258 128 238 q 202 290 171 278 q 271 303 233 303 q 336 293 303 303 m 142 171 q 162 117 142 138 q 215 97 182 97 q 284 133 260 97 q 308 222 308 169 q 308 244 308 233 q 306 265 307 254 q 288 267 297 267 q 271 268 279 268 q 223 260 246 268 q 182 240 200 253 q 153 208 164 226 q 142 171 142 190 z "},"":{"ha":233,"x_min":-19,"x_max":254,"o":"m 254 706 q 249 681 254 692 q 236 663 243 669 l 97 511 q 78 497 90 503 q 51 490 67 490 q 3 508 26 490 q -19 558 -19 526 q -3 600 -19 583 l 133 749 q 155 765 142 758 q 183 771 168 771 q 231 754 207 771 q 254 706 254 738 m 22 576 q 15 558 15 568 q 20 542 15 549 q 33 530 25 535 q 51 525 42 525 q 72 535 64 525 l 211 686 q 215 719 226 703 q 183 736 203 736 q 158 725 168 736 l 22 576 z "},"":{"ha":282,"x_min":-19,"x_max":301,"o":"m 46 729 q 81 719 67 729 q 103 696 96 710 q 113 672 110 685 q 118 651 115 665 q 127 629 124 633 q 142 625 131 625 q 161 635 153 625 q 169 675 169 644 q 185 722 169 699 q 236 746 200 746 q 287 723 272 746 q 301 668 301 700 q 290 603 301 635 q 257 549 278 572 q 206 511 236 525 q 139 497 176 497 q 75 512 104 497 q 25 550 46 526 q -8 603 4 574 q -19 665 -19 633 q 0 711 -19 693 q 46 729 19 729 m 15 658 q 59 563 22 593 q 139 532 96 532 q 188 542 164 532 q 231 571 213 551 q 259 618 249 590 q 267 681 269 646 q 256 703 265 696 q 236 711 247 711 q 213 702 224 711 q 204 675 203 693 q 188 613 208 635 q 142 590 167 590 q 101 607 119 590 q 81 658 83 624 q 69 686 79 678 q 46 694 58 694 q 24 686 33 694 q 15 658 14 678 z "},"":{"ha":265,"x_min":-21,"x_max":286,"o":"m 163 736 q 184 761 169 749 q 222 774 199 774 q 268 754 250 774 q 286 710 286 735 q 284 696 286 703 q 281 683 282 689 q 275 672 278 678 q 269 658 272 665 q 255 633 263 647 q 239 606 247 619 q 207 554 222 578 q 186 519 192 531 q 169 503 179 508 q 153 494 160 497 q 139 492 146 492 q 126 492 132 492 q 92 497 107 492 q 65 522 76 503 q 48 558 61 532 q 19 614 35 585 q 6 644 13 629 q -7 669 -1 658 q -12 682 -10 676 q -15 692 -14 688 q -21 717 -21 707 q 2 763 -21 749 q 44 776 25 776 q 81 765 65 776 q 106 736 97 754 l 131 681 l 163 736 m 74 722 q 61 738 69 733 q 44 742 53 742 q 19 731 29 742 q 18 701 8 719 l 97 538 q 126 526 104 526 q 156 538 149 526 l 244 688 q 247 724 257 710 q 222 739 238 739 q 193 719 204 739 l 128 604 l 74 722 z "},"":{"ha":254,"x_min":-19,"x_max":274,"o":"m 129 -151 q 116 -149 122 -150 q 101 -149 110 -149 q 88 -147 94 -147 q 75 -144 82 -146 q 24 -128 49 -140 q 0 -83 0 -115 q 1 -27 0 -56 q 1 29 1 1 q 19 78 1 56 q 69 100 38 100 q 119 78 101 100 q 138 29 138 57 q 136 3 138 15 q 135 -24 135 -10 q 186 -38 161 -29 q 231 -62 211 -47 q 262 -99 250 -76 q 274 -153 274 -121 q 253 -221 274 -194 q 204 -262 233 -247 q 144 -283 175 -278 q 90 -289 113 -289 q 54 -285 74 -289 q 18 -274 35 -282 q -9 -251 1 -265 q -19 -217 -19 -237 q -12 -185 -19 -199 q 8 -165 -4 -172 q 32 -155 19 -158 q 53 -151 44 -151 q 74 -153 64 -151 q 96 -156 85 -156 q 110 -155 101 -156 q 129 -151 119 -154 m 35 -83 q 56 -105 35 -100 q 103 -113 78 -110 q 152 -124 129 -117 q 178 -151 175 -131 q 172 -170 179 -162 q 152 -182 164 -178 q 125 -188 140 -186 q 96 -190 110 -190 q 79 -190 86 -190 q 65 -187 72 -189 q 53 -186 61 -186 q 25 -195 35 -186 q 15 -216 15 -204 q 25 -238 14 -228 q 60 -251 36 -249 q 75 -253 67 -253 q 90 -254 83 -254 q 144 -248 117 -254 q 192 -229 171 -242 q 226 -197 213 -217 q 239 -153 239 -178 q 217 -97 239 -117 q 171 -69 196 -78 q 124 -57 146 -60 q 101 -51 103 -54 q 100 -22 97 -40 q 103 29 103 -3 q 92 56 103 47 q 69 65 82 65 q 47 56 57 65 q 36 29 36 47 l 35 -83 z "},"":{"ha":265,"x_min":-21,"x_max":286,"o":"m 106 533 q 81 505 97 517 q 43 493 65 493 q 1 507 24 493 q -21 553 -21 521 q -15 578 -21 563 q -12 588 -14 582 q -7 600 -10 593 q 6 626 -1 611 q 19 656 13 640 q 48 711 35 685 q 65 747 61 738 q 92 772 76 767 q 126 778 107 778 q 139 778 132 778 q 153 775 146 778 q 169 767 160 772 q 186 750 179 761 q 207 715 192 739 q 239 664 222 692 q 255 636 247 650 q 269 611 263 622 q 275 598 272 604 q 281 586 278 592 q 284 574 282 581 q 286 560 286 567 q 268 515 286 535 q 222 496 250 496 q 184 508 199 496 q 163 533 169 521 l 131 589 l 106 533 m 128 665 l 193 550 q 222 531 204 531 q 247 545 238 531 q 244 582 257 560 l 156 732 q 144 741 153 739 q 126 743 136 743 q 108 741 117 743 q 97 732 100 739 l 18 568 q 18 539 8 550 q 43 528 28 528 q 74 549 64 528 l 128 665 z "},"":{"ha":228,"x_min":-19,"x_max":249,"o":"m -19 603 q 3 652 -19 635 q 50 669 25 669 q 88 659 69 669 q 113 629 106 649 q 138 660 121 649 q 176 671 156 671 q 224 653 200 671 q 249 603 249 636 q 228 553 249 576 q 176 531 207 531 q 138 542 154 531 q 113 574 121 554 q 90 544 106 556 q 50 533 74 533 q 0 553 19 533 q -19 603 -19 574 m 201 576 q 213 599 213 588 q 209 618 214 610 q 195 631 204 626 q 176 636 186 636 q 151 625 161 636 q 142 605 143 615 q 145 585 140 594 q 158 571 150 576 q 176 565 167 565 q 201 576 190 565 m 83 599 q 75 626 86 618 q 50 635 64 635 q 25 626 36 635 q 15 599 14 618 q 28 576 18 583 q 50 568 38 568 q 72 576 63 568 q 83 599 82 583 z "},"":{"ha":99,"x_min":-19,"x_max":118,"o":"m -19 603 q 3 652 -19 635 q 50 669 25 669 q 97 652 76 669 q 118 603 118 635 q 100 554 118 575 q 50 533 82 533 q 0 553 19 533 q -19 603 -19 574 m 83 599 q 75 626 86 618 q 50 635 64 635 q 25 626 36 635 q 15 599 14 618 q 28 576 18 583 q 50 568 38 568 q 72 576 63 568 q 83 599 82 583 z "},"":{"ha":278,"x_min":-21,"x_max":299,"o":"m 115 546 q 114 543 114 543 l 114 542 q 51 496 99 496 q 3 513 28 496 q -21 564 -21 531 q -20 572 -21 567 q -18 583 -19 576 q -16 591 -17 586 q -12 603 -15 596 q -6 626 -10 614 q 3 653 -1 639 q 20 703 13 679 q 31 736 28 726 q 57 772 38 760 q 99 785 76 785 q 136 775 117 785 q 164 743 156 765 q 188 780 171 764 q 233 796 206 796 q 278 780 258 796 q 299 733 299 764 q 298 726 299 731 q 296 715 297 722 q 294 706 294 711 q 290 693 293 700 q 283 667 288 682 q 275 636 279 651 q 259 578 267 606 q 249 540 251 550 q 224 503 242 517 q 183 490 207 490 q 141 504 163 490 q 115 546 119 518 m 150 564 q 157 535 146 544 q 183 525 168 525 q 203 531 194 525 q 215 550 213 538 l 263 724 q 257 752 267 743 q 233 761 247 761 q 211 753 222 761 q 196 731 200 746 l 150 564 m 15 574 q 23 542 10 554 q 51 531 36 531 q 81 551 75 531 l 131 713 q 125 740 136 731 q 99 750 114 750 q 77 744 88 750 q 64 725 67 738 l 15 574 z "},"`":{"ha":204,"x_min":-19,"x_max":225,"o":"m 50 754 q 100 731 81 754 l 207 604 q 219 585 214 596 q 225 558 225 574 q 206 512 225 533 q 157 490 188 490 q 125 499 138 490 q 106 517 113 508 q 79 545 99 525 q 40 589 60 565 q 19 613 29 601 q 1 635 10 624 q -6 647 -3 642 q -12 657 -10 653 q -17 669 -15 661 q -19 686 -19 676 q 2 735 -19 715 q 50 754 24 754 m 132 539 q 157 525 144 525 q 187 544 176 525 q 181 582 197 563 l 74 708 q 50 719 64 719 q 32 715 40 719 q 19 702 24 710 q 15 685 15 694 q 22 667 15 675 l 132 539 z "},"":{"ha":232,"x_min":-21,"x_max":251,"o":"m 126 -68 q 159 -66 143 -68 q 190 -64 175 -64 q 237 -85 222 -64 q 251 -128 251 -107 q 244 -163 251 -150 q 223 -183 236 -176 q 194 -194 210 -190 q 161 -200 178 -197 l 135 -200 q 81 -194 108 -200 q 31 -176 53 -189 q -6 -142 8 -164 q -21 -89 -21 -121 q -3 -33 -21 -64 q 39 27 14 -1 q 92 75 64 56 q 144 94 121 94 q 193 73 174 94 q 213 25 213 51 q 202 -7 213 6 q 185 -26 192 -19 q 176 -33 181 -29 q 165 -40 171 -37 q 156 -48 161 -44 q 146 -54 151 -51 q 135 -62 140 -58 q 126 -68 131 -65 m 126 54 q 36 -28 69 15 q 19 -115 3 -72 q 62 -153 29 -142 q 135 -165 94 -165 q 188 -161 161 -165 q 210 -150 203 -160 q 217 -128 217 -140 q 210 -108 217 -117 q 189 -99 203 -99 l 185 -99 q 125 -103 151 -103 q 93 -100 106 -103 q 78 -89 81 -97 q 163 0 68 -61 q 176 17 174 7 q 176 38 179 28 q 164 53 172 47 q 144 60 156 60 q 126 54 133 60 z "},"":{"ha":224,"x_min":-19,"x_max":244,"o":"m 113 743 q 163 734 139 743 q 206 708 188 725 q 234 668 224 692 q 244 615 244 644 q 235 565 244 589 q 207 522 225 540 q 165 492 189 503 q 113 482 142 482 q 62 491 86 482 q 19 517 38 500 q -9 557 1 533 q -19 610 -19 581 q 17 706 -19 668 q 113 743 54 743 m 107 613 q 108 610 107 610 q 108 608 108 608 q 118 610 117 608 q 119 615 119 613 q 113 621 119 621 q 109 620 111 621 q 107 613 107 619 m 100 518 q 106 517 103 518 q 113 517 110 517 q 164 531 143 517 q 197 565 185 544 q 210 610 208 586 q 201 656 211 635 q 169 692 190 678 q 113 708 147 707 l 108 708 q 42 681 65 708 q 15 618 18 653 q 33 553 13 583 q 100 518 54 522 m 113 656 q 145 642 135 656 q 155 614 156 629 q 142 586 154 599 q 108 574 131 574 q 80 587 89 574 q 72 615 71 600 q 84 643 74 631 q 113 656 94 656 z "},"":{"ha":303,"x_min":-21,"x_max":324,"o":"m 108 569 q 100 557 104 561 q 95 550 97 554 q 90 543 93 546 q 73 530 83 536 q 47 524 63 524 q 1 542 22 524 q -21 589 -21 561 q -8 630 -21 608 q 23 669 4 651 q 64 698 42 686 q 104 710 86 710 q 157 694 136 710 q 189 667 178 679 l 197 658 q 214 682 201 669 q 258 701 231 701 q 305 682 286 701 q 324 636 324 663 q 312 591 324 614 q 281 551 300 568 q 240 522 263 533 q 196 511 218 511 q 153 525 171 511 q 119 557 135 539 q 114 563 117 560 q 108 569 111 567 m 68 571 q 75 582 71 575 q 84 596 79 589 q 94 608 89 603 q 106 613 100 613 q 126 602 117 613 q 147 579 136 592 q 169 556 157 567 q 196 546 181 546 q 241 560 219 546 q 283 617 263 575 q 284 651 294 636 q 258 667 274 667 q 231 647 240 667 q 200 611 215 611 q 183 622 192 613 q 163 644 174 632 q 138 665 153 656 q 104 675 124 675 q 56 653 81 675 q 18 603 32 631 q 20 572 8 586 q 47 558 32 558 q 68 571 63 558 z "},"":{"ha":297,"x_min":-19,"x_max":317,"o":"m -19 617 q 2 666 -19 650 q 49 683 24 682 l 246 689 q 296 671 275 690 q 317 621 317 651 q 295 571 317 589 q 247 551 274 553 l 53 546 q 1 566 22 544 q -19 617 -19 588 m 246 586 q 273 597 264 586 q 282 620 282 607 q 274 644 282 633 q 247 654 265 654 l 50 649 q 24 638 32 649 q 15 615 15 628 q 25 591 15 601 q 51 581 35 581 l 246 586 z "},"":{"ha":508,"x_min":8,"x_max":474,"o":"m 365 706 q 360 681 365 692 q 347 663 354 669 l 208 511 q 190 497 201 503 q 163 490 178 490 q 115 508 138 490 q 92 558 92 526 q 108 600 92 583 l 244 749 q 266 765 253 758 q 294 771 279 771 q 342 754 318 771 q 365 706 365 738 m 133 576 q 126 558 126 568 q 131 542 126 549 q 144 530 136 535 q 163 525 153 525 q 183 535 175 525 l 322 686 q 326 719 338 703 q 294 736 314 736 q 269 725 279 736 l 133 576 m 321 204 q 326 215 321 207 q 326 254 326 235 q 325 292 326 274 q 294 338 322 315 q 236 361 267 361 q 169 329 194 361 q 144 249 144 297 q 169 173 144 204 q 233 142 193 142 q 283 159 260 142 q 321 204 307 176 m 333 24 q 242 6 292 6 q 72 69 135 6 q 8 239 8 132 q 24 335 8 289 q 70 419 40 382 q 144 478 100 456 q 246 500 189 500 q 284 495 265 500 q 321 483 303 490 q 337 542 321 515 q 390 569 353 569 q 440 547 425 569 q 458 501 456 524 q 464 372 465 438 q 464 240 463 306 q 470 129 467 185 q 474 18 474 74 q 466 -11 474 1 q 448 -31 458 -24 q 426 -42 438 -39 q 404 -46 414 -46 q 374 -39 386 -46 q 353 -22 361 -32 q 340 -1 344 -12 q 335 21 336 11 q 333 24 335 22 m 110 242 q 119 308 108 279 q 147 357 129 338 q 188 386 165 376 q 236 396 211 396 q 311 371 276 396 q 360 294 346 346 l 363 217 q 315 140 350 172 q 233 107 279 107 q 183 118 206 107 q 144 148 161 129 q 119 191 128 167 q 110 242 110 215 m 356 499 q 356 457 356 478 q 358 417 357 436 q 307 451 335 438 q 246 465 279 464 q 163 448 200 465 q 101 401 126 431 q 60 333 75 371 q 43 254 46 294 q 49 186 42 219 q 72 125 56 153 q 115 76 89 97 q 179 47 142 56 q 211 42 196 43 q 242 40 226 40 q 313 53 282 40 q 367 86 343 65 l 371 18 q 383 -4 372 3 q 404 -11 393 -11 q 427 -4 417 -11 q 439 18 438 3 q 429 263 431 144 q 424 499 428 381 q 413 526 422 517 q 390 535 403 535 q 368 526 378 535 q 356 499 358 517 z "},"":{"ha":508,"x_min":8,"x_max":474,"o":"m 8 239 q 22 328 8 285 q 60 406 35 371 q 124 466 86 442 q 211 497 163 490 q 151 515 178 500 q 104 553 124 529 q 74 606 85 576 q 63 665 63 635 q 82 711 63 693 q 128 729 101 729 q 163 719 149 729 q 185 696 178 710 q 194 672 192 685 q 200 651 197 665 q 209 629 206 633 q 224 625 213 625 q 243 635 235 625 q 251 675 251 644 q 267 722 251 699 q 318 746 282 746 q 369 723 354 746 q 383 668 383 700 q 348 559 383 607 q 251 500 313 511 q 321 483 288 497 l 321 499 q 341 548 321 526 q 390 569 361 569 q 440 547 425 569 q 458 501 456 524 q 464 372 465 438 q 464 240 463 306 q 470 129 467 185 q 474 18 474 74 q 466 -11 474 1 q 448 -31 458 -24 q 426 -42 438 -39 q 404 -46 414 -46 q 374 -39 386 -46 q 353 -22 361 -32 q 340 -1 344 -12 q 335 21 336 11 q 333 24 335 22 q 242 6 292 6 q 72 69 135 6 q 8 239 8 132 m 179 47 q 211 42 196 43 q 242 40 226 40 q 313 53 282 40 q 367 86 343 65 l 371 18 q 383 -4 372 3 q 404 -11 393 -11 q 427 -4 417 -11 q 439 18 438 3 q 429 263 431 144 q 424 499 428 381 q 413 526 422 517 q 390 535 403 535 q 368 526 378 535 q 356 499 358 517 q 356 457 356 478 q 358 417 357 436 q 307 451 335 438 q 246 465 279 464 q 163 448 200 465 q 101 401 126 431 q 60 333 75 371 q 43 254 46 294 q 49 186 42 219 q 72 125 56 153 q 115 76 89 97 q 179 47 142 56 m 360 294 l 363 217 q 315 140 350 172 q 233 107 279 107 q 183 118 206 107 q 144 148 161 129 q 119 191 128 167 q 110 242 110 215 q 119 308 108 279 q 147 357 129 338 q 188 386 165 376 q 236 396 211 396 q 311 371 276 396 q 360 294 346 346 m 97 658 q 141 563 104 593 q 221 532 178 532 q 270 542 246 532 q 313 571 294 551 q 341 618 331 590 q 349 681 351 646 q 338 703 347 696 q 318 711 329 711 q 295 702 306 711 q 286 675 285 693 q 269 613 290 635 q 224 590 249 590 q 183 607 201 590 q 163 658 165 624 q 151 686 161 678 q 128 694 140 694 q 106 686 115 694 q 97 658 96 678 m 144 249 q 169 173 144 204 q 233 142 193 142 q 283 159 260 142 q 321 204 307 176 q 326 215 321 207 q 326 254 326 235 q 325 292 326 274 q 294 338 322 315 q 236 361 267 361 q 169 329 194 361 q 144 249 144 297 z "},"":{"ha":508,"x_min":8,"x_max":474,"o":"m 8 239 q 24 335 8 289 q 70 419 40 382 q 144 478 100 456 q 246 500 189 500 q 284 495 265 500 q 321 483 303 490 l 321 496 q 281 504 297 496 q 253 533 265 513 l 221 589 l 196 533 q 172 505 188 517 q 133 493 156 493 q 92 507 114 493 q 69 553 69 521 q 75 578 69 563 q 78 588 76 582 q 83 600 81 593 q 96 626 89 611 q 110 656 103 640 q 138 711 125 685 q 156 747 151 738 q 182 772 167 767 q 217 778 197 778 q 229 778 222 778 q 243 775 236 778 q 260 767 250 772 q 276 750 269 761 q 297 715 282 739 q 329 664 313 692 q 345 636 338 650 q 360 611 353 622 q 365 598 363 604 q 371 586 368 592 q 375 568 374 575 q 390 569 381 569 q 440 547 425 569 q 458 501 456 524 q 464 372 465 438 q 464 240 463 306 q 470 129 467 185 q 474 18 474 74 q 466 -11 474 1 q 448 -31 458 -24 q 426 -42 438 -39 q 404 -46 414 -46 q 374 -39 386 -46 q 353 -22 361 -32 q 340 -1 344 -12 q 335 21 336 11 q 333 24 335 22 q 242 6 292 6 q 72 69 135 6 q 8 239 8 132 m 179 47 q 211 42 196 43 q 242 40 226 40 q 313 53 282 40 q 367 86 343 65 l 371 18 q 383 -4 372 3 q 404 -11 393 -11 q 427 -4 417 -11 q 439 18 438 3 q 429 263 431 144 q 424 499 428 381 q 413 526 422 517 q 390 535 403 535 q 368 526 378 535 q 356 499 358 517 q 356 457 356 478 q 358 417 357 436 q 307 451 335 438 q 246 465 279 464 q 163 448 200 465 q 101 401 126 431 q 60 333 75 371 q 43 254 46 294 q 49 186 42 219 q 72 125 56 153 q 115 76 89 97 q 179 47 142 56 m 360 294 l 363 217 q 315 140 350 172 q 233 107 279 107 q 183 118 206 107 q 144 148 161 129 q 119 191 128 167 q 110 242 110 215 q 119 308 108 279 q 147 357 129 338 q 188 386 165 376 q 236 396 211 396 q 311 371 276 396 q 360 294 346 346 m 144 249 q 169 173 144 204 q 233 142 193 142 q 283 159 260 142 q 321 204 307 176 q 326 215 321 207 q 326 254 326 235 q 325 292 326 274 q 294 338 322 315 q 236 361 267 361 q 169 329 194 361 q 144 249 144 297 m 164 549 l 218 665 l 283 550 q 313 531 294 531 q 338 545 328 531 q 335 582 347 560 l 246 732 q 235 741 243 739 q 217 743 226 743 q 199 741 207 743 q 188 732 190 739 l 108 568 q 108 539 99 550 q 133 528 118 528 q 164 549 154 528 z "},"":{"ha":508,"x_min":8,"x_max":474,"o":"m 96 603 q 118 652 96 635 q 165 669 140 669 q 203 659 185 669 q 228 629 221 649 q 253 660 236 649 q 292 671 271 671 q 340 653 315 671 q 364 603 364 636 q 343 553 364 576 q 292 531 322 531 q 253 542 269 531 q 228 574 236 554 q 205 544 221 556 q 165 533 189 533 q 115 553 135 533 q 96 603 96 574 m 317 576 q 328 599 328 588 q 324 618 329 610 q 310 631 319 626 q 292 636 301 636 q 267 625 276 636 q 257 605 258 615 q 260 585 256 594 q 274 571 265 576 q 292 565 282 565 q 317 576 306 565 m 199 599 q 190 626 201 618 q 165 635 179 635 q 140 626 151 635 q 131 599 129 618 q 143 576 133 583 q 165 568 153 568 q 188 576 178 568 q 199 599 197 583 m 321 204 q 326 215 321 207 q 326 254 326 235 q 325 292 326 274 q 294 338 322 315 q 236 361 267 361 q 169 329 194 361 q 144 249 144 297 q 169 173 144 204 q 233 142 193 142 q 283 159 260 142 q 321 204 307 176 m 333 24 q 242 6 292 6 q 72 69 135 6 q 8 239 8 132 q 24 335 8 289 q 70 419 40 382 q 144 478 100 456 q 246 500 189 500 q 284 495 265 500 q 321 483 303 490 q 337 542 321 515 q 390 569 353 569 q 440 547 425 569 q 458 501 456 524 q 464 372 465 438 q 464 240 463 306 q 470 129 467 185 q 474 18 474 74 q 466 -11 474 1 q 448 -31 458 -24 q 426 -42 438 -39 q 404 -46 414 -46 q 374 -39 386 -46 q 353 -22 361 -32 q 340 -1 344 -12 q 335 21 336 11 q 333 24 335 22 m 110 242 q 119 308 108 279 q 147 357 129 338 q 188 386 165 376 q 236 396 211 396 q 311 371 276 396 q 360 294 346 346 l 363 217 q 315 140 350 172 q 233 107 279 107 q 183 118 206 107 q 144 148 161 129 q 119 191 128 167 q 110 242 110 215 m 356 499 q 356 457 356 478 q 358 417 357 436 q 307 451 335 438 q 246 465 279 464 q 163 448 200 465 q 101 401 126 431 q 60 333 75 371 q 43 254 46 294 q 49 186 42 219 q 72 125 56 153 q 115 76 89 97 q 179 47 142 56 q 211 42 196 43 q 242 40 226 40 q 313 53 282 40 q 367 86 343 65 l 371 18 q 383 -4 372 3 q 404 -11 393 -11 q 427 -4 417 -11 q 439 18 438 3 q 429 263 431 144 q 424 499 428 381 q 413 526 422 517 q 390 535 403 535 q 368 526 378 535 q 356 499 358 517 z "},"":{"ha":508,"x_min":8,"x_max":474,"o":"m 238 500 q 218 517 224 510 q 192 545 211 525 q 153 589 172 565 q 132 613 142 601 q 114 635 122 624 q 106 647 110 642 q 100 657 103 653 q 95 669 97 661 q 93 686 93 676 q 115 735 93 715 q 163 754 136 754 q 213 731 193 754 l 319 604 q 332 585 326 596 q 338 558 338 574 q 335 540 338 551 q 359 561 344 553 q 390 569 374 569 q 440 547 425 569 q 458 501 456 524 q 464 372 465 438 q 464 240 463 306 q 470 129 467 185 q 474 18 474 74 q 466 -11 474 1 q 448 -31 458 -24 q 426 -42 438 -39 q 404 -46 414 -46 q 374 -39 386 -46 q 353 -22 361 -32 q 340 -1 344 -12 q 335 21 336 11 q 333 24 335 22 q 242 6 292 6 q 72 69 135 6 q 8 239 8 132 q 24 333 8 288 q 68 416 39 379 q 140 476 97 453 q 238 500 183 499 m 179 47 q 211 42 196 43 q 242 40 226 40 q 313 53 282 40 q 367 86 343 65 l 371 18 q 383 -4 372 3 q 404 -11 393 -11 q 427 -4 417 -11 q 439 18 438 3 q 429 263 431 144 q 424 499 428 381 q 413 526 422 517 q 390 535 403 535 q 368 526 378 535 q 356 499 358 517 q 356 457 356 478 q 358 417 357 436 q 307 451 335 438 q 246 465 279 464 q 163 448 200 465 q 101 401 126 431 q 60 333 75 371 q 43 254 46 294 q 49 186 42 219 q 72 125 56 153 q 115 76 89 97 q 179 47 142 56 m 360 294 l 363 217 q 315 140 350 172 q 233 107 279 107 q 183 118 206 107 q 144 148 161 129 q 119 191 128 167 q 110 242 110 215 q 119 308 108 279 q 147 357 129 338 q 188 386 165 376 q 236 396 211 396 q 311 371 276 396 q 360 294 346 346 m 233 142 q 283 159 260 142 q 321 204 307 176 q 326 215 321 207 q 326 254 326 235 q 325 292 326 274 q 294 338 322 315 q 236 361 267 361 q 169 329 194 361 q 144 249 144 297 q 169 173 144 204 q 233 142 193 142 m 135 667 l 244 539 q 269 525 257 525 q 299 544 289 525 q 293 582 310 563 l 186 708 q 163 719 176 719 q 144 715 153 719 q 132 702 136 710 q 128 685 128 694 q 135 667 128 675 m 321 483 l 321 499 q 322 508 321 504 q 324 518 322 513 q 290 493 311 501 q 321 483 310 489 z "},"":{"ha":508,"x_min":8,"x_max":474,"o":"m 56 617 q 77 666 56 650 q 124 683 99 682 l 321 689 q 371 671 350 690 q 392 621 392 651 q 370 571 392 589 q 322 551 349 553 l 128 546 q 76 566 97 544 q 56 617 56 588 m 321 586 q 348 597 339 586 q 357 620 357 607 q 349 644 357 633 q 322 654 340 654 l 125 649 q 99 638 107 649 q 90 615 90 628 q 100 591 90 601 q 126 581 110 581 l 321 586 m 321 204 q 326 215 321 207 q 326 254 326 235 q 325 292 326 274 q 294 338 322 315 q 236 361 267 361 q 169 329 194 361 q 144 249 144 297 q 169 173 144 204 q 233 142 193 142 q 283 159 260 142 q 321 204 307 176 m 333 24 q 242 6 292 6 q 72 69 135 6 q 8 239 8 132 q 24 335 8 289 q 70 419 40 382 q 144 478 100 456 q 246 500 189 500 q 284 495 265 500 q 321 483 303 490 q 337 542 321 515 q 390 569 353 569 q 440 547 425 569 q 458 501 456 524 q 464 372 465 438 q 464 240 463 306 q 470 129 467 185 q 474 18 474 74 q 466 -11 474 1 q 448 -31 458 -24 q 426 -42 438 -39 q 404 -46 414 -46 q 374 -39 386 -46 q 353 -22 361 -32 q 340 -1 344 -12 q 335 21 336 11 q 333 24 335 22 m 110 242 q 119 308 108 279 q 147 357 129 338 q 188 386 165 376 q 236 396 211 396 q 311 371 276 396 q 360 294 346 346 l 363 217 q 315 140 350 172 q 233 107 279 107 q 183 118 206 107 q 144 148 161 129 q 119 191 128 167 q 110 242 110 215 m 356 499 q 356 457 356 478 q 358 417 357 436 q 307 451 335 438 q 246 465 279 464 q 163 448 200 465 q 101 401 126 431 q 60 333 75 371 q 43 254 46 294 q 49 186 42 219 q 72 125 56 153 q 115 76 89 97 q 179 47 142 56 q 211 42 196 43 q 242 40 226 40 q 313 53 282 40 q 367 86 343 65 l 371 18 q 383 -4 372 3 q 404 -11 393 -11 q 427 -4 417 -11 q 439 18 438 3 q 429 263 431 144 q 424 499 428 381 q 413 526 422 517 q 390 535 403 535 q 368 526 378 535 q 356 499 358 517 z "},"":{"ha":508,"x_min":8,"x_max":518,"o":"m 329 221 q 328 254 329 238 q 326 288 328 271 q 296 338 324 314 q 236 361 268 361 q 169 329 194 361 q 144 249 144 297 q 169 173 144 204 q 233 142 193 142 q 266 150 249 142 q 297 171 283 158 q 320 197 311 183 q 329 221 329 211 m 393 -106 q 426 -103 410 -106 q 460 -101 443 -101 q 488 -108 476 -101 q 506 -126 499 -115 q 515 -147 513 -136 q 518 -165 518 -158 q 499 -212 518 -197 q 463 -233 481 -228 q 444 -236 453 -236 q 428 -237 435 -236 l 401 -237 q 347 -232 375 -237 q 297 -214 319 -226 q 260 -180 274 -201 q 246 -125 246 -158 q 275 -44 246 -79 q 338 19 304 -8 l 338 25 q 243 6 294 6 q 72 68 136 6 q 8 239 8 131 q 24 335 8 289 q 70 419 40 382 q 144 478 100 456 q 246 500 189 500 q 284 495 265 500 q 321 483 303 490 q 337 542 321 515 q 390 569 353 569 q 440 547 424 569 q 458 501 456 524 q 461 424 461 463 q 463 344 461 385 q 467 173 465 258 q 476 1 469 88 l 476 -10 q 463 -50 476 -33 q 432 -79 449 -67 q 422 -85 426 -82 q 413 -92 418 -89 q 402 -99 407 -96 q 393 -106 397 -103 m 110 242 q 119 309 108 281 q 147 357 129 338 q 188 386 165 376 q 236 396 211 396 q 312 369 276 396 q 361 290 347 343 l 364 221 q 317 142 353 176 q 233 107 281 107 q 183 118 206 107 q 144 148 161 129 q 119 191 128 167 q 110 242 110 215 m 356 499 q 356 458 356 479 q 358 417 357 438 q 307 451 335 438 q 246 465 279 464 q 163 448 200 465 q 101 401 126 431 q 60 333 75 371 q 43 254 46 294 q 49 186 42 219 q 72 125 56 153 q 115 76 89 97 q 179 47 142 56 q 212 42 196 43 q 243 40 228 40 q 315 53 283 40 q 369 88 346 65 l 374 3 q 298 -73 325 -33 q 286 -153 271 -112 q 328 -191 296 -179 q 401 -203 361 -203 q 454 -199 428 -203 q 476 -187 469 -197 q 483 -166 483 -178 q 476 -145 483 -154 q 456 -136 469 -136 l 451 -136 q 392 -140 418 -140 q 360 -137 372 -140 q 344 -126 347 -135 q 429 -37 335 -99 q 442 -21 440 -31 q 442 -1 443 -11 q 431 257 433 133 q 424 499 428 381 q 413 526 422 517 q 390 535 403 535 q 368 526 378 535 q 356 499 358 517 z "},"":{"ha":508,"x_min":8,"x_max":474,"o":"m 181 492 q 124 535 146 506 q 101 610 101 565 q 138 706 101 668 q 233 743 175 743 q 284 734 260 743 q 326 708 308 725 q 355 668 344 692 q 365 615 365 644 q 353 557 365 585 q 390 569 369 569 q 440 547 425 569 q 458 501 456 524 q 464 372 465 438 q 464 240 463 306 q 470 129 467 185 q 474 18 474 74 q 466 -11 474 1 q 448 -31 458 -24 q 426 -42 438 -39 q 404 -46 414 -46 q 374 -39 386 -46 q 353 -22 361 -32 q 340 -1 344 -12 q 335 21 336 11 q 333 24 335 22 q 242 6 292 6 q 72 69 135 6 q 8 239 8 132 q 20 321 8 281 q 53 395 32 361 q 107 455 75 429 q 181 492 139 481 m 179 47 q 211 42 196 43 q 242 40 226 40 q 313 53 282 40 q 367 86 343 65 l 371 18 q 383 -4 372 3 q 404 -11 393 -11 q 427 -4 417 -11 q 439 18 438 3 q 429 263 431 144 q 424 499 428 381 q 413 526 422 517 q 390 535 403 535 q 368 526 378 535 q 356 499 358 517 q 356 457 356 478 q 358 417 357 436 q 307 451 335 438 q 246 465 279 464 q 163 448 200 465 q 101 401 126 431 q 60 333 75 371 q 43 254 46 294 q 49 186 42 219 q 72 125 56 153 q 115 76 89 97 q 179 47 142 56 m 360 294 l 363 217 q 315 140 350 172 q 233 107 279 107 q 183 118 206 107 q 144 148 161 129 q 119 191 128 167 q 110 242 110 215 q 119 308 108 279 q 147 357 129 338 q 188 386 165 376 q 236 396 211 396 q 311 371 276 396 q 360 294 346 346 m 221 518 q 227 517 224 518 q 233 517 231 517 q 285 531 264 517 q 317 565 306 544 q 331 610 329 586 q 322 656 332 635 q 290 692 311 678 q 233 708 268 707 l 229 708 q 163 681 186 708 q 136 618 139 653 q 154 553 133 583 q 221 518 175 522 m 144 249 q 169 173 144 204 q 233 142 193 142 q 283 159 260 142 q 321 204 307 176 q 326 215 321 207 q 326 254 326 235 q 325 292 326 274 q 294 338 322 315 q 236 361 267 361 q 169 329 194 361 q 144 249 144 297 m 233 656 q 266 642 256 656 q 276 614 276 629 q 263 586 275 599 q 229 574 251 574 q 201 587 210 574 q 193 615 192 600 q 205 643 194 631 q 233 656 215 656 m 289 494 q 321 483 303 490 l 321 499 q 324 517 321 506 q 289 494 307 503 m 229 608 q 239 610 238 608 q 240 615 240 613 q 233 621 240 621 q 230 620 232 621 q 228 613 228 619 q 229 610 228 610 q 229 608 229 608 z "},"":{"ha":508,"x_min":8,"x_max":474,"o":"m 8 239 q 24 335 8 289 q 70 419 40 382 q 144 478 100 456 q 246 500 189 500 q 284 495 265 500 q 321 483 303 490 l 321 499 q 326 525 321 514 q 275 511 299 511 q 232 525 250 511 q 199 557 214 539 q 193 563 196 560 q 188 569 190 567 l 186 568 q 179 557 185 563 q 174 550 176 554 q 169 543 172 546 q 152 530 163 536 q 126 524 142 524 q 80 542 101 524 q 58 589 58 561 q 71 630 58 608 q 102 669 83 651 q 143 698 121 686 q 183 710 165 710 q 236 694 215 710 q 268 667 257 679 l 276 658 q 293 682 281 669 q 338 701 310 701 q 384 682 365 701 q 403 636 403 663 q 376 568 403 601 q 390 569 381 569 q 440 547 425 569 q 458 501 456 524 q 464 372 465 438 q 464 240 463 306 q 470 129 467 185 q 474 18 474 74 q 466 -11 474 1 q 448 -31 458 -24 q 426 -42 438 -39 q 404 -46 414 -46 q 374 -39 386 -46 q 353 -22 361 -32 q 340 -1 344 -12 q 335 21 336 11 q 333 24 335 22 q 242 6 292 6 q 72 69 135 6 q 8 239 8 132 m 179 47 q 211 42 196 43 q 242 40 226 40 q 313 53 282 40 q 367 86 343 65 l 371 18 q 383 -4 372 3 q 404 -11 393 -11 q 427 -4 417 -11 q 439 18 438 3 q 429 263 431 144 q 424 499 428 381 q 413 526 422 517 q 390 535 403 535 q 368 526 378 535 q 356 499 358 517 q 356 457 356 478 q 358 417 357 436 q 307 451 335 438 q 246 465 279 464 q 163 448 200 465 q 101 401 126 431 q 60 333 75 371 q 43 254 46 294 q 49 186 42 219 q 72 125 56 153 q 115 76 89 97 q 179 47 142 56 m 360 294 l 363 217 q 315 140 350 172 q 233 107 279 107 q 183 118 206 107 q 144 148 161 129 q 119 191 128 167 q 110 242 110 215 q 119 308 108 279 q 147 357 129 338 q 188 386 165 376 q 236 396 211 396 q 311 371 276 396 q 360 294 346 346 m 144 249 q 169 173 144 204 q 233 142 193 142 q 283 159 260 142 q 321 204 307 176 q 326 215 321 207 q 326 254 326 235 q 325 292 326 274 q 294 338 322 315 q 236 361 267 361 q 169 329 194 361 q 144 249 144 297 m 147 571 q 154 582 150 575 q 163 596 158 589 q 174 608 168 603 q 185 613 179 613 q 206 602 196 613 q 226 579 215 592 q 248 556 236 567 q 275 546 260 546 q 320 560 299 546 q 363 617 342 575 q 363 651 374 636 q 338 667 353 667 q 310 647 319 667 q 279 611 294 611 q 262 622 271 613 q 242 644 253 632 q 217 665 232 656 q 183 675 203 675 q 135 653 160 675 q 97 603 111 631 q 99 572 88 586 q 126 558 111 558 q 147 571 142 558 z "},"":{"ha":857,"x_min":8,"x_max":849,"o":"m 321 204 q 326 215 321 207 q 326 254 326 235 q 325 292 326 274 q 294 338 322 315 q 236 361 267 361 q 169 329 194 361 q 144 249 144 297 q 169 173 144 204 q 233 142 193 142 q 283 159 260 142 q 321 204 307 176 m 683 363 q 642 400 668 386 q 583 414 615 414 q 475 332 499 414 q 579 343 528 335 q 683 363 631 351 m 333 24 q 242 6 292 6 q 72 69 135 6 q 8 239 8 132 q 24 335 8 289 q 70 419 40 382 q 144 478 100 456 q 246 500 189 500 q 284 495 265 500 q 321 483 303 490 q 337 542 321 515 q 390 569 353 569 q 434 553 419 569 q 454 518 449 536 q 515 542 482 535 q 579 550 547 550 q 671 533 625 550 q 753 484 717 515 q 813 410 790 453 q 836 314 836 367 q 831 287 836 303 q 810 258 826 271 q 776 244 793 249 q 756 239 767 242 q 733 233 746 236 q 624 214 683 222 q 540 203 581 208 q 471 196 500 199 q 508 126 482 153 q 575 99 535 99 q 634 113 608 99 q 683 149 660 128 q 705 170 694 160 q 724 188 715 181 q 749 207 735 199 q 778 215 763 215 q 826 197 804 215 q 849 147 849 178 q 839 111 849 129 q 790 53 819 81 q 726 6 761 26 q 653 -26 692 -14 q 576 -37 614 -37 q 467 -11 519 -37 q 438 -37 456 -29 q 404 -46 419 -46 q 374 -39 386 -46 q 353 -22 361 -32 q 340 -1 344 -12 q 335 21 336 11 q 333 24 335 22 m 110 242 q 119 308 108 279 q 147 357 129 338 q 188 386 165 376 q 236 396 211 396 q 311 371 276 396 q 360 294 346 346 l 363 217 q 315 140 350 172 q 233 107 279 107 q 183 118 206 107 q 144 148 161 129 q 119 191 128 167 q 110 242 110 215 m 583 449 q 681 417 642 449 q 731 338 719 385 q 583 308 654 321 q 432 296 511 296 q 476 406 440 364 q 583 449 513 449 m 356 499 q 356 457 356 478 q 358 417 357 436 q 307 451 335 438 q 246 465 279 464 q 163 448 200 465 q 101 401 126 431 q 60 333 75 371 q 43 254 46 294 q 49 186 42 219 q 72 125 56 153 q 115 76 89 97 q 179 47 142 56 q 211 42 196 43 q 242 40 226 40 q 313 53 282 40 q 367 86 343 65 l 371 18 q 383 -4 372 3 q 404 -11 393 -11 q 427 -4 417 -11 q 439 18 438 3 l 436 53 q 576 -3 494 -3 q 708 37 649 -3 q 810 131 767 76 q 809 165 821 150 q 778 181 797 181 q 749 167 761 181 q 674 95 717 126 q 575 64 631 64 q 474 110 513 64 q 431 228 436 157 q 512 235 460 229 q 619 249 564 240 q 723 267 675 257 q 790 288 771 278 q 801 319 804 296 q 775 402 796 365 q 724 464 754 439 q 656 502 693 489 q 579 515 619 515 q 495 500 535 515 q 425 449 456 485 q 424 474 425 461 q 424 499 424 486 q 413 526 422 517 q 390 535 403 535 q 368 526 378 535 q 356 499 358 517 z "},"":{"ha":857,"x_min":8,"x_max":849,"o":"m 246 500 q 284 495 265 500 q 321 483 303 490 l 321 499 q 344 550 321 531 q 321 546 335 546 q 273 564 296 546 q 250 614 250 582 q 267 656 250 639 l 403 804 q 424 820 411 814 q 453 826 438 826 q 500 810 476 826 q 524 761 524 793 q 518 736 524 747 q 506 718 513 725 l 367 567 l 364 564 q 390 569 375 569 q 434 553 419 569 q 454 518 449 536 q 515 542 482 535 q 579 550 547 550 q 671 533 625 550 q 753 484 717 515 q 813 410 790 453 q 836 314 836 367 q 831 287 836 303 q 810 258 826 271 q 776 244 793 249 q 756 239 767 242 q 733 233 746 236 q 624 214 683 222 q 540 203 581 208 q 471 196 500 199 q 508 126 482 153 q 575 99 535 99 q 634 113 608 99 q 683 149 660 128 q 705 170 694 160 q 724 188 715 181 q 749 207 735 199 q 778 215 763 215 q 826 197 804 215 q 849 147 849 178 q 839 111 849 129 q 790 53 819 81 q 726 6 761 26 q 653 -26 692 -14 q 576 -37 614 -37 q 467 -11 519 -37 q 438 -37 456 -29 q 404 -46 419 -46 q 374 -39 386 -46 q 353 -22 361 -32 q 340 -1 344 -12 q 335 21 336 11 q 333 24 335 22 q 242 6 292 6 q 72 69 135 6 q 8 239 8 132 q 24 335 8 289 q 70 419 40 382 q 144 478 100 456 q 246 500 189 500 m 179 47 q 211 42 196 43 q 242 40 226 40 q 313 53 282 40 q 367 86 343 65 l 371 18 q 383 -4 372 3 q 404 -11 393 -11 q 427 -4 417 -11 q 439 18 438 3 l 436 53 q 576 -3 494 -3 q 708 37 649 -3 q 810 131 767 76 q 809 165 821 150 q 778 181 797 181 q 749 167 761 181 q 674 95 717 126 q 575 64 631 64 q 474 110 513 64 q 431 228 436 157 q 512 235 460 229 q 619 249 564 240 q 723 267 675 257 q 790 288 771 278 q 801 319 804 296 q 775 402 796 365 q 724 464 754 439 q 656 502 693 489 q 579 515 619 515 q 495 500 535 515 q 425 449 456 485 q 424 474 425 461 q 424 499 424 486 q 413 526 422 517 q 390 535 403 535 q 368 526 378 535 q 356 499 358 517 q 356 457 356 478 q 358 417 357 436 q 307 451 335 438 q 246 465 279 464 q 163 448 200 465 q 101 401 126 431 q 60 333 75 371 q 43 254 46 294 q 49 186 42 219 q 72 125 56 153 q 115 76 89 97 q 179 47 142 56 m 360 294 l 363 217 q 315 140 350 172 q 233 107 279 107 q 183 118 206 107 q 144 148 161 129 q 119 191 128 167 q 110 242 110 215 q 119 308 108 279 q 147 357 129 338 q 188 386 165 376 q 236 396 211 396 q 311 371 276 396 q 360 294 346 346 m 583 449 q 681 417 642 449 q 731 338 719 385 q 583 308 654 321 q 432 296 511 296 q 476 406 440 364 q 583 449 513 449 m 144 249 q 169 173 144 204 q 233 142 193 142 q 283 159 260 142 q 321 204 307 176 q 326 215 321 207 q 326 254 326 235 q 325 292 326 274 q 294 338 322 315 q 236 361 267 361 q 169 329 194 361 q 144 249 144 297 m 342 590 l 481 742 q 484 775 496 758 q 453 792 472 792 q 428 781 438 792 l 292 632 q 285 614 285 624 q 290 597 285 604 q 303 585 294 590 q 321 581 311 581 q 342 590 333 581 m 475 332 q 579 343 528 335 q 683 363 631 351 q 642 400 668 386 q 583 414 615 414 q 475 332 499 414 z "},"":{"ha":513,"x_min":7,"x_max":518,"o":"m 7 256 q 15 337 7 296 q 42 415 24 378 q 90 482 61 453 q 161 526 119 511 q 149 525 157 525 q 101 543 124 525 q 78 593 78 561 q 94 635 78 618 l 231 783 q 252 799 239 793 q 281 806 265 806 q 328 789 304 806 q 351 740 351 772 q 346 715 351 726 q 333 697 340 704 l 194 546 q 185 538 190 542 q 172 531 179 533 q 238 539 201 539 q 365 495 313 539 q 438 382 418 451 q 440 364 440 368 q 419 317 440 333 q 375 300 399 300 q 341 310 354 300 q 321 331 328 321 q 309 347 314 338 q 297 368 304 357 q 274 396 286 386 q 240 406 263 406 q 165 367 190 406 q 140 269 140 329 q 148 206 140 236 q 169 153 156 176 q 204 115 183 129 q 251 101 225 101 q 306 114 279 101 q 357 146 332 126 q 380 165 369 156 q 400 181 390 174 q 419 196 410 190 q 433 201 425 199 q 450 204 440 204 q 496 188 474 204 q 518 139 518 171 q 514 115 518 125 q 504 99 510 106 q 454 45 483 69 q 390 3 425 21 q 318 -25 356 -15 q 244 -35 281 -35 q 137 -8 182 -35 q 63 63 92 19 q 20 157 33 106 q 7 256 7 208 m 42 256 q 54 162 42 208 q 92 80 67 115 q 156 22 118 44 q 244 0 194 0 q 301 7 271 0 q 363 28 332 14 q 424 66 394 43 q 476 119 453 89 q 481 153 492 138 q 450 169 469 169 q 422 157 433 169 q 342 93 386 119 q 244 67 297 67 q 188 83 213 67 q 144 127 163 100 q 117 189 126 154 q 106 258 107 224 q 110 319 104 289 q 128 373 115 349 q 163 415 142 397 q 215 438 185 432 q 228 440 222 439 q 240 440 233 440 q 302 417 276 440 q 343 357 328 394 q 375 335 351 335 q 399 344 389 335 q 404 372 408 354 q 340 472 386 439 q 238 504 293 504 q 149 483 186 504 q 89 426 113 461 q 53 346 65 390 q 42 256 42 301 m 169 569 l 308 721 q 312 754 324 738 q 281 771 300 771 q 256 760 265 771 l 119 611 q 113 593 113 603 q 117 576 113 583 q 131 565 122 569 q 149 560 139 560 q 169 569 161 560 z "},"":{"ha":513,"x_min":7,"x_max":518,"o":"m 188 533 q 164 557 172 543 q 147 593 160 567 q 118 649 133 619 q 104 678 111 664 q 92 704 97 693 q 87 717 89 711 q 83 726 85 722 q 78 751 78 742 q 101 797 78 783 q 143 811 124 811 q 180 800 164 811 q 204 771 196 789 l 229 715 l 261 771 q 283 796 268 783 q 321 808 297 808 q 367 789 349 808 q 385 744 385 769 q 383 731 385 738 q 379 718 381 724 q 374 706 376 713 q 368 693 371 700 q 353 668 361 682 q 338 640 346 654 q 306 589 321 613 q 285 554 290 565 q 267 538 276 542 q 376 486 332 528 q 438 382 421 444 q 440 364 440 368 q 419 317 440 333 q 375 300 399 300 q 341 310 354 300 q 321 331 328 321 q 309 347 314 338 q 297 368 304 357 q 274 396 286 386 q 240 406 263 406 q 165 367 190 406 q 140 269 140 329 q 148 206 140 236 q 169 153 156 176 q 204 115 183 129 q 251 101 225 101 q 306 114 279 101 q 357 146 332 126 q 380 165 369 156 q 400 181 390 174 q 419 196 410 190 q 433 201 425 199 q 450 204 440 204 q 496 188 474 204 q 518 139 518 171 q 514 115 518 125 q 504 99 510 106 q 454 45 483 69 q 390 3 425 21 q 318 -25 356 -15 q 244 -35 281 -35 q 137 -8 182 -35 q 63 63 92 19 q 20 157 33 106 q 7 256 7 208 q 17 342 7 297 q 48 426 26 388 q 104 494 69 465 q 188 533 139 524 m 244 0 q 301 7 271 0 q 363 28 332 14 q 424 66 394 43 q 476 119 453 89 q 481 153 492 138 q 450 169 469 169 q 422 157 433 169 q 342 93 386 119 q 244 67 297 67 q 188 83 213 67 q 144 127 163 100 q 117 189 126 154 q 106 258 107 224 q 110 319 104 289 q 128 373 115 349 q 163 415 142 397 q 215 438 185 432 q 228 440 222 439 q 240 440 233 440 q 302 417 276 440 q 343 357 328 394 q 375 335 351 335 q 399 344 389 335 q 404 372 408 354 q 340 472 386 439 q 238 504 293 504 q 149 483 186 504 q 89 426 113 461 q 53 346 65 390 q 42 256 42 301 q 54 162 42 208 q 92 80 67 115 q 156 22 118 44 q 244 0 194 0 m 117 736 l 196 572 q 225 561 203 561 q 254 572 247 561 l 343 722 q 346 759 356 744 q 321 774 336 774 q 292 754 303 774 l 226 639 l 172 757 q 160 772 168 768 q 143 776 151 776 q 117 765 128 776 q 117 736 107 754 z "},"":{"ha":513,"x_min":7,"x_max":518,"o":"m 332 -21 q 347 -25 339 -24 q 361 -29 354 -26 q 392 -44 376 -35 q 421 -67 407 -53 q 443 -100 435 -81 q 451 -146 451 -119 q 431 -214 451 -187 q 382 -256 411 -240 q 322 -276 353 -271 q 268 -282 290 -282 q 232 -278 251 -282 q 196 -267 213 -275 q 169 -244 179 -258 q 158 -210 158 -231 q 166 -178 158 -192 q 185 -158 174 -165 q 210 -148 197 -151 q 231 -144 222 -144 q 252 -147 242 -144 q 274 -149 263 -149 q 289 -148 281 -149 q 306 -146 297 -147 q 293 -144 300 -144 q 279 -142 286 -143 q 265 -140 272 -140 q 251 -137 258 -139 q 202 -121 226 -135 q 178 -76 178 -107 l 178 -26 q 99 19 132 -12 q 46 90 67 50 q 16 173 25 129 q 7 256 7 217 q 19 353 7 303 q 59 444 32 403 q 131 513 86 486 q 238 539 175 539 q 366 495 313 539 q 438 381 419 451 q 440 364 440 369 q 419 317 440 333 q 375 300 399 300 q 341 310 354 300 q 321 331 328 321 q 309 347 314 338 q 297 368 304 357 q 274 396 286 386 q 240 406 263 406 q 165 367 190 406 q 140 269 140 329 q 148 207 140 238 q 169 153 156 176 q 203 115 183 129 q 250 101 224 101 q 306 114 279 101 q 357 146 332 126 q 380 165 369 156 q 400 181 390 174 q 419 196 410 190 q 433 201 425 199 q 450 204 440 204 q 496 188 474 204 q 518 139 518 171 q 514 115 518 125 q 504 100 510 106 q 428 25 474 56 q 332 -21 382 -6 m 42 256 q 52 169 42 211 q 84 91 63 126 q 138 32 106 56 q 213 1 169 8 l 213 -76 q 234 -98 213 -93 q 281 -106 256 -103 q 330 -117 307 -110 q 356 -144 353 -124 q 349 -163 357 -156 q 330 -175 342 -171 q 303 -181 318 -179 q 274 -183 288 -183 q 257 -183 264 -183 q 243 -181 250 -182 q 231 -179 239 -179 q 203 -188 213 -179 q 192 -209 193 -197 q 203 -231 192 -221 q 238 -244 214 -242 q 253 -247 244 -246 q 268 -247 261 -247 q 322 -241 294 -247 q 369 -222 349 -235 q 403 -190 390 -210 q 417 -146 417 -171 q 395 -90 417 -110 q 349 -62 374 -71 q 302 -50 324 -53 q 279 -44 281 -47 q 277 -26 276 -37 q 279 3 278 -14 q 382 38 328 10 q 476 119 436 67 q 481 153 492 138 q 450 169 469 169 q 422 157 433 169 q 342 93 386 119 q 244 67 297 67 q 188 83 213 67 q 144 127 163 100 q 117 189 126 154 q 106 258 107 224 q 110 319 104 289 q 128 373 115 349 q 163 415 142 397 q 215 438 185 432 q 228 440 222 439 q 240 440 233 440 q 302 417 276 440 q 343 357 328 394 q 375 335 351 335 q 399 344 389 335 q 404 372 408 354 q 340 472 386 439 q 238 504 293 504 q 149 483 186 504 q 89 426 113 461 q 53 346 65 390 q 42 256 42 301 z "},"":{"ha":513,"x_min":7,"x_max":518,"o":"m 207 568 q 183 540 199 551 q 144 528 167 528 q 103 542 125 528 q 81 588 81 556 q 86 613 81 597 q 90 622 88 617 q 94 635 92 628 q 107 660 100 646 q 121 690 114 675 q 149 746 136 719 q 167 782 163 772 q 193 807 178 801 q 228 813 208 813 q 240 813 233 813 q 254 810 247 813 q 271 801 261 807 q 288 785 281 796 q 308 750 293 774 q 340 699 324 726 q 356 671 349 685 q 371 646 364 657 q 376 633 374 639 q 382 621 379 626 q 385 608 383 615 q 388 594 388 601 q 369 550 388 569 q 324 531 351 531 q 285 543 300 531 q 264 568 271 556 l 232 624 l 207 568 m 229 700 l 294 585 q 324 565 306 565 q 349 580 339 565 q 346 617 358 594 l 257 767 q 246 776 254 774 q 228 778 238 778 q 210 776 218 778 q 199 767 201 774 l 119 603 q 119 574 110 585 q 144 563 129 563 q 175 583 165 563 l 229 700 m 438 382 q 440 364 440 368 q 419 317 440 333 q 375 300 399 300 q 341 310 354 300 q 321 331 328 321 q 309 347 314 338 q 297 368 304 357 q 274 396 286 386 q 240 406 263 406 q 165 367 190 406 q 140 269 140 329 q 148 206 140 236 q 169 153 156 176 q 204 115 183 129 q 251 101 225 101 q 306 114 279 101 q 357 146 332 126 q 380 165 369 156 q 400 181 390 174 q 419 196 410 190 q 433 201 425 199 q 450 204 440 204 q 496 188 474 204 q 518 139 518 171 q 514 115 518 125 q 504 99 510 106 q 454 45 483 69 q 390 3 425 21 q 318 -25 356 -15 q 244 -35 281 -35 q 137 -8 182 -35 q 63 63 92 19 q 20 157 33 106 q 7 256 7 208 q 19 353 7 303 q 59 444 32 403 q 131 513 86 486 q 238 539 175 539 q 365 495 313 539 q 438 382 418 451 m 42 256 q 54 162 42 208 q 92 80 67 115 q 156 22 118 44 q 244 0 194 0 q 301 7 271 0 q 363 28 332 14 q 424 66 394 43 q 476 119 453 89 q 481 153 492 138 q 450 169 469 169 q 422 157 433 169 q 342 93 386 119 q 244 67 297 67 q 188 83 213 67 q 144 127 163 100 q 117 189 126 154 q 106 258 107 224 q 110 319 104 289 q 128 373 115 349 q 163 415 142 397 q 215 438 185 432 q 228 440 222 439 q 240 440 233 440 q 302 417 276 440 q 343 357 328 394 q 375 335 351 335 q 399 344 389 335 q 404 372 408 354 q 340 472 386 439 q 238 504 293 504 q 149 483 186 504 q 89 426 113 461 q 53 346 65 390 q 42 256 42 301 z "},"":{"ha":513,"x_min":7,"x_max":518,"o":"m 213 538 q 181 562 193 544 q 168 603 168 579 q 190 652 168 635 q 238 669 213 669 q 285 652 264 669 q 306 603 306 635 q 294 563 306 581 q 263 538 282 544 q 375 488 329 531 q 438 382 421 444 q 440 364 440 368 q 419 317 440 333 q 375 300 399 300 q 341 310 354 300 q 321 331 328 321 q 309 347 314 338 q 297 368 304 357 q 274 396 286 386 q 240 406 263 406 q 165 367 190 406 q 140 269 140 329 q 148 206 140 236 q 169 153 156 176 q 204 115 183 129 q 251 101 225 101 q 306 114 279 101 q 357 146 332 126 q 380 165 369 156 q 400 181 390 174 q 419 196 410 190 q 433 201 425 199 q 450 204 440 204 q 496 188 474 204 q 518 139 518 171 q 514 115 518 125 q 504 99 510 106 q 454 45 483 69 q 390 3 425 21 q 318 -25 356 -15 q 244 -35 281 -35 q 137 -8 182 -35 q 63 63 92 19 q 20 157 33 106 q 7 256 7 208 q 18 348 7 300 q 53 436 29 396 q 117 504 78 476 q 213 538 157 532 m 42 256 q 54 162 42 208 q 92 80 67 115 q 156 22 118 44 q 244 0 194 0 q 301 7 271 0 q 363 28 332 14 q 424 66 394 43 q 476 119 453 89 q 481 153 492 138 q 450 169 469 169 q 422 157 433 169 q 342 93 386 119 q 244 67 297 67 q 188 83 213 67 q 144 127 163 100 q 117 189 126 154 q 106 258 107 224 q 110 319 104 289 q 128 373 115 349 q 163 415 142 397 q 215 438 185 432 q 228 440 222 439 q 240 440 233 440 q 302 417 276 440 q 343 357 328 394 q 375 335 351 335 q 399 344 389 335 q 404 372 408 354 q 340 472 386 439 q 238 504 293 504 q 149 483 186 504 q 89 426 113 461 q 53 346 65 390 q 42 256 42 301 m 203 599 q 215 576 206 583 q 238 568 225 568 q 260 576 250 568 q 271 599 269 583 q 263 626 274 618 q 238 635 251 635 q 213 626 224 635 q 203 599 201 618 z "},"":{"ha":718,"x_min":8,"x_max":739,"o":"m 690 417 q 667 397 681 406 q 633 388 653 388 q 586 406 608 388 q 564 454 564 424 q 567 474 564 465 q 574 489 571 482 q 579 501 576 494 q 586 515 582 508 q 597 544 593 531 q 601 572 601 557 q 596 604 601 588 q 583 638 590 621 l 568 668 q 563 682 565 674 q 560 691 561 686 q 558 703 558 696 q 580 750 558 733 q 625 767 601 767 q 675 743 654 767 q 710 687 696 719 q 732 619 725 654 q 739 561 739 585 q 735 526 739 546 q 726 485 732 506 q 710 447 719 465 q 690 417 701 428 m 654 715 q 625 732 644 732 q 599 719 610 732 q 597 686 588 706 q 627 622 618 650 q 635 569 636 594 q 626 522 635 544 q 604 474 618 499 q 604 437 593 451 q 633 422 615 422 q 665 440 653 422 q 704 576 710 503 q 654 715 699 649 m 261 394 q 178 358 208 394 q 147 263 147 321 q 178 164 147 201 q 264 126 208 126 q 352 160 317 126 q 388 247 388 194 q 353 351 388 308 q 261 394 318 394 m 388 497 q 388 567 388 531 q 388 642 388 604 q 389 716 388 679 q 394 783 390 753 q 399 804 396 793 q 411 826 403 815 q 432 843 419 836 q 463 850 444 850 q 513 828 494 850 q 532 779 532 806 q 528 627 532 703 q 525 474 525 551 q 528 251 525 361 q 531 28 531 140 q 507 -20 531 -3 q 463 -37 483 -37 q 433 -31 444 -37 q 413 -16 421 -25 q 401 3 406 -7 q 394 24 397 14 q 265 -8 333 -8 q 159 13 207 -8 q 78 71 111 35 q 26 156 44 107 q 8 261 8 206 q 25 364 8 315 q 74 449 42 413 q 152 508 106 486 q 258 529 199 529 q 388 497 326 529 m 422 247 q 409 181 422 210 q 374 133 396 153 q 322 102 351 113 q 264 92 293 92 q 167 126 211 92 q 114 235 122 160 q 119 319 108 283 q 152 380 131 356 q 202 417 174 404 q 261 429 231 429 q 319 418 290 429 q 370 384 347 407 q 407 327 393 361 q 422 247 421 293 m 429 779 q 423 598 425 683 q 422 428 421 513 q 346 478 389 461 q 258 494 303 494 q 175 479 215 494 q 105 433 135 464 q 58 354 75 401 q 43 243 40 307 q 67 147 47 188 q 119 79 88 106 q 188 40 150 53 q 265 26 226 26 q 352 42 310 26 q 426 89 394 57 q 427 58 426 74 q 428 28 428 43 q 441 5 431 13 q 463 -3 451 -3 q 483 5 474 -3 q 496 28 493 13 q 493 222 494 131 q 491 404 492 314 q 492 586 490 494 q 497 779 493 678 q 485 807 496 799 q 463 815 475 815 q 441 807 451 815 q 429 779 431 799 z "},"":{"ha":606,"x_min":8,"x_max":625,"o":"m 261 394 q 178 358 208 394 q 147 263 147 321 q 178 164 147 201 q 264 126 208 126 q 352 160 317 126 q 388 247 388 194 q 353 351 388 308 q 261 394 318 394 m 390 694 q 394 783 390 740 q 399 804 396 793 q 411 826 403 815 q 432 843 419 836 q 463 850 444 850 q 513 828 494 850 q 532 779 532 806 q 531 738 532 758 q 529 697 531 717 l 558 697 q 608 674 592 697 q 625 626 625 650 q 616 592 625 606 q 592 569 607 578 q 560 558 578 561 q 525 556 542 556 l 524 486 q 527 257 524 371 q 531 28 531 143 q 507 -20 531 -3 q 463 -37 483 -37 q 433 -31 444 -37 q 413 -16 421 -25 q 401 3 406 -7 q 394 24 397 14 q 265 -8 333 -8 q 159 13 207 -8 q 78 71 111 35 q 26 156 44 107 q 8 261 8 206 q 25 364 8 315 q 74 449 42 413 q 152 508 106 486 q 258 529 199 529 q 386 497 326 529 l 386 554 l 361 554 q 312 573 333 554 q 290 624 290 592 q 299 660 290 646 q 323 681 308 674 q 355 692 338 689 q 390 694 372 694 m 422 247 q 409 181 422 210 q 374 133 396 153 q 322 102 351 113 q 264 92 293 92 q 167 126 211 92 q 114 235 122 160 q 119 319 108 283 q 152 380 131 356 q 202 417 174 404 q 261 429 231 429 q 319 418 290 429 q 370 384 347 407 q 407 327 393 361 q 422 247 421 293 m 429 779 q 426 717 426 747 q 424 658 425 688 l 360 657 q 333 646 342 657 q 325 622 325 635 q 335 599 325 610 q 361 589 344 589 l 422 590 q 422 428 421 507 q 346 478 389 461 q 258 494 303 494 q 175 479 215 494 q 105 433 135 464 q 58 354 75 401 q 43 243 40 307 q 67 147 47 188 q 119 79 88 106 q 188 40 150 53 q 265 26 226 26 q 352 42 310 26 q 426 89 394 57 q 427 58 426 74 q 428 28 428 43 q 441 5 431 13 q 463 -3 451 -3 q 483 5 474 -3 q 496 28 493 13 q 493 176 494 106 q 491 316 492 247 q 490 453 490 385 q 490 592 489 521 l 560 594 q 583 605 576 594 q 590 628 590 615 q 582 652 590 642 q 558 663 574 663 l 493 661 q 497 779 493 717 q 485 807 496 799 q 463 815 475 815 q 441 807 451 815 q 429 779 431 799 z "},"":{"ha":538,"x_min":7,"x_max":529,"o":"m 7 247 q 15 333 7 290 q 42 415 24 376 q 90 483 61 453 q 161 531 119 514 q 117 551 138 533 q 97 599 97 569 q 114 640 97 624 l 250 789 q 272 805 258 799 q 300 811 285 811 q 347 794 324 811 q 371 746 371 778 q 365 721 371 732 q 353 703 360 710 l 214 551 q 207 546 213 549 q 260 550 232 550 q 351 533 306 550 q 434 484 397 515 q 494 410 471 453 q 517 314 517 367 q 501 268 517 285 q 458 244 485 251 q 438 239 449 242 q 415 233 428 236 q 363 223 392 228 q 304 214 333 218 q 220 203 261 208 q 150 196 179 199 q 188 126 161 153 q 256 99 215 99 q 315 113 289 99 q 364 149 340 128 q 385 170 375 160 q 404 188 396 181 q 429 207 415 199 q 458 215 443 215 q 507 197 485 215 q 529 147 529 178 q 528 131 529 140 q 519 111 526 121 q 469 53 499 81 q 406 6 440 26 q 333 -26 371 -14 q 256 -37 294 -37 q 147 -12 193 -37 q 69 53 100 13 q 22 145 38 94 q 7 247 7 196 m 490 131 q 490 165 501 150 q 458 181 478 181 q 429 167 442 181 q 354 95 397 126 q 256 64 311 64 q 154 110 193 64 q 110 228 115 157 q 192 235 139 229 q 300 249 244 240 q 403 267 356 257 q 471 288 451 278 q 482 319 485 296 q 456 402 476 365 q 404 464 435 439 q 337 502 374 489 q 260 515 300 515 q 161 493 203 515 q 93 433 119 471 q 54 347 67 396 q 42 247 42 299 q 58 144 42 190 q 104 66 75 99 q 172 15 133 33 q 256 -3 211 -3 q 388 36 329 -3 q 490 131 447 75 m 113 296 q 157 406 121 364 q 264 449 193 449 q 361 417 322 449 q 411 338 400 385 q 263 308 335 321 q 113 296 192 296 m 189 575 l 328 726 q 331 760 343 743 q 300 776 319 776 q 275 765 285 776 l 139 617 q 132 599 132 608 q 137 582 132 589 q 150 570 142 575 q 168 565 158 565 q 189 575 181 565 m 156 332 q 260 343 208 335 q 364 363 311 351 q 322 400 349 386 q 264 414 296 414 q 156 332 179 414 z "},"":{"ha":538,"x_min":7,"x_max":529,"o":"m 7 247 q 17 337 7 292 q 47 422 26 382 q 100 492 68 461 q 178 538 132 522 q 107 601 133 557 q 81 693 81 644 q 100 739 81 721 q 146 757 119 757 q 181 747 167 757 q 203 724 196 738 q 213 700 210 713 q 218 679 215 693 q 227 657 224 661 q 242 653 231 653 q 261 663 253 653 q 269 703 269 672 q 285 750 269 726 q 336 774 300 774 q 387 751 372 774 q 401 696 401 728 q 378 606 401 647 q 315 543 356 565 q 390 514 354 535 q 455 464 426 493 q 500 397 483 435 q 517 314 517 358 q 501 268 517 285 q 458 244 485 251 q 438 239 449 242 q 415 233 428 236 q 363 223 392 228 q 304 214 333 218 q 220 203 261 208 q 150 196 179 199 q 188 126 161 153 q 256 99 215 99 q 315 113 289 99 q 364 149 340 128 q 385 170 375 160 q 404 188 396 181 q 429 207 415 199 q 458 215 443 215 q 507 197 485 215 q 529 147 529 178 q 528 131 529 140 q 519 111 526 121 q 469 53 499 81 q 406 6 440 26 q 333 -26 371 -14 q 256 -37 294 -37 q 147 -12 193 -37 q 69 53 100 13 q 22 145 38 94 q 7 247 7 196 m 42 247 q 58 144 42 190 q 104 66 75 99 q 172 15 133 33 q 256 -3 211 -3 q 388 36 329 -3 q 490 131 447 75 q 490 165 501 150 q 458 181 478 181 q 429 167 442 181 q 354 95 397 126 q 256 64 311 64 q 154 110 193 64 q 110 228 115 157 q 192 235 139 229 q 300 249 244 240 q 403 267 356 257 q 471 288 451 278 q 482 319 485 296 q 456 402 476 365 q 404 464 435 439 q 337 502 374 489 q 260 515 300 515 q 161 493 203 515 q 93 433 119 471 q 54 347 67 396 q 42 247 42 299 m 115 686 q 159 590 122 621 q 239 560 196 560 q 288 569 264 560 q 331 599 313 579 q 359 646 349 618 q 367 708 369 674 q 356 731 365 724 q 336 739 347 739 q 313 730 324 739 q 304 703 303 721 q 288 640 308 663 q 242 618 267 618 q 201 635 219 618 q 181 686 183 651 q 169 714 179 706 q 146 722 158 722 q 124 714 133 722 q 115 686 114 706 m 264 449 q 361 417 322 449 q 411 338 400 385 q 263 308 335 321 q 113 296 192 296 q 157 406 121 364 q 264 449 193 449 m 364 363 q 322 400 349 386 q 264 414 296 414 q 156 332 179 414 q 260 343 208 335 q 364 363 311 351 z "},"":{"ha":538,"x_min":7,"x_max":529,"o":"m 7 247 q 17 340 7 293 q 50 428 28 388 q 107 499 72 468 q 190 542 142 529 q 184 548 188 544 q 178 557 181 551 q 160 593 174 567 q 132 649 147 619 q 118 678 125 664 q 106 704 111 693 q 101 717 103 711 q 97 726 99 722 q 92 751 92 742 q 115 797 92 783 q 157 811 138 811 q 194 800 178 811 q 218 771 210 789 l 243 715 l 275 771 q 297 796 282 783 q 335 808 311 808 q 381 789 363 808 q 399 744 399 769 q 397 731 399 738 q 393 718 394 724 q 388 706 390 713 q 382 693 385 700 q 367 668 375 682 q 351 640 360 654 q 319 589 335 613 q 299 554 304 565 q 293 547 297 551 q 375 522 335 542 q 447 472 415 503 q 497 401 478 442 q 517 314 517 361 q 501 268 517 285 q 458 244 485 251 q 438 239 449 242 q 415 233 428 236 q 363 223 392 228 q 304 214 333 218 q 220 203 261 208 q 150 196 179 199 q 188 126 161 153 q 256 99 215 99 q 315 113 289 99 q 364 149 340 128 q 385 170 375 160 q 404 188 396 181 q 429 207 415 199 q 458 215 443 215 q 507 197 485 215 q 529 147 529 178 q 528 131 529 140 q 519 111 526 121 q 469 53 499 81 q 406 6 440 26 q 333 -26 371 -14 q 256 -37 294 -37 q 147 -12 193 -37 q 69 53 100 13 q 22 145 38 94 q 7 247 7 196 m 42 247 q 58 144 42 190 q 104 66 75 99 q 172 15 133 33 q 256 -3 211 -3 q 388 36 329 -3 q 490 131 447 75 q 490 165 501 150 q 458 181 478 181 q 429 167 442 181 q 354 95 397 126 q 256 64 311 64 q 154 110 193 64 q 110 228 115 157 q 192 235 139 229 q 300 249 244 240 q 403 267 356 257 q 471 288 451 278 q 482 319 485 296 q 456 402 476 365 q 404 464 435 439 q 337 502 374 489 q 260 515 300 515 q 161 493 203 515 q 93 433 119 471 q 54 347 67 396 q 42 247 42 299 m 264 449 q 361 417 322 449 q 411 338 400 385 q 263 308 335 321 q 113 296 192 296 q 157 406 121 364 q 264 449 193 449 m 131 736 l 210 572 q 239 561 217 561 q 268 572 261 561 l 357 722 q 360 759 369 744 q 335 774 350 774 q 306 754 317 774 l 240 639 l 186 757 q 174 772 182 768 q 157 776 165 776 q 131 765 142 776 q 131 736 121 754 m 364 363 q 322 400 349 386 q 264 414 296 414 q 156 332 179 414 q 260 343 208 335 q 364 363 311 351 z "},"":{"ha":538,"x_min":7,"x_max":529,"o":"m 221 585 q 197 556 213 568 q 158 544 181 544 q 117 558 139 544 q 94 604 94 572 q 100 629 94 614 q 103 639 101 633 q 108 651 106 644 q 121 677 114 663 q 135 707 128 692 q 163 763 150 736 q 181 799 176 789 q 207 824 192 818 q 242 829 222 829 q 254 829 247 829 q 268 826 261 829 q 285 818 275 824 q 301 801 294 813 q 322 767 307 790 q 354 715 338 743 q 370 688 363 701 q 385 663 378 674 q 390 649 388 656 q 396 638 393 643 q 399 625 397 632 q 401 611 401 618 q 383 567 401 586 q 338 547 365 547 q 299 560 314 547 q 278 585 285 572 l 246 640 l 221 585 m 243 717 l 308 601 q 338 582 319 582 q 363 597 353 582 q 360 633 372 611 l 271 783 q 260 792 268 790 q 242 794 251 794 q 224 792 232 794 q 213 783 215 790 l 133 619 q 133 590 124 601 q 158 579 143 579 q 189 600 179 579 l 243 717 m 364 363 q 322 400 349 386 q 264 414 296 414 q 156 332 179 414 q 260 343 208 335 q 364 363 311 351 m 256 99 q 315 113 289 99 q 364 149 340 128 q 385 170 375 160 q 404 188 396 181 q 429 207 415 199 q 458 215 443 215 q 507 197 485 215 q 529 147 529 178 q 528 131 529 140 q 519 111 526 121 q 469 53 499 81 q 406 6 440 26 q 333 -26 371 -14 q 256 -37 294 -37 q 147 -12 193 -37 q 69 53 100 13 q 22 145 38 94 q 7 247 7 196 q 21 355 7 301 q 65 452 35 408 q 144 523 96 496 q 260 550 192 550 q 351 533 306 550 q 434 484 397 515 q 494 410 471 453 q 517 314 517 367 q 501 268 517 285 q 458 244 485 251 q 438 239 449 242 q 415 233 428 236 q 363 223 392 228 q 304 214 333 218 q 220 203 261 208 q 150 196 179 199 q 188 126 161 153 q 256 99 215 99 m 264 449 q 361 417 322 449 q 411 338 400 385 q 263 308 335 321 q 113 296 192 296 q 157 406 121 364 q 264 449 193 449 m 471 288 q 482 319 485 296 q 456 402 476 365 q 404 464 435 439 q 337 502 374 489 q 260 515 300 515 q 161 493 203 515 q 93 433 119 471 q 54 347 67 396 q 42 247 42 299 q 58 144 42 190 q 104 66 75 99 q 172 15 133 33 q 256 -3 211 -3 q 388 36 329 -3 q 490 131 447 75 q 490 165 501 150 q 458 181 478 181 q 429 167 442 181 q 354 95 397 126 q 256 64 311 64 q 154 110 193 64 q 110 228 115 157 q 192 235 139 229 q 300 249 244 240 q 403 267 356 257 q 471 288 451 278 z "},"":{"ha":538,"x_min":7,"x_max":529,"o":"m 106 619 q 128 669 106 651 q 175 686 150 686 q 213 676 194 686 q 238 646 231 665 q 263 676 246 665 q 301 688 281 688 q 349 670 325 688 q 374 619 374 653 q 353 570 374 593 q 301 547 332 547 q 263 559 279 547 q 238 590 246 571 q 215 561 231 572 q 175 550 199 550 q 125 570 144 550 q 106 619 106 590 m 326 593 q 338 615 338 604 q 334 635 339 626 q 320 648 329 643 q 301 653 311 653 q 276 642 286 653 q 267 622 268 632 q 270 602 265 611 q 283 588 275 593 q 301 582 292 582 q 326 593 315 582 m 208 615 q 200 643 211 635 q 175 651 189 651 q 150 643 161 651 q 140 615 139 635 q 153 592 143 600 q 175 585 163 585 q 197 592 188 585 q 208 615 207 600 m 364 363 q 322 400 349 386 q 264 414 296 414 q 156 332 179 414 q 260 343 208 335 q 364 363 311 351 m 256 99 q 315 113 289 99 q 364 149 340 128 q 385 170 375 160 q 404 188 396 181 q 429 207 415 199 q 458 215 443 215 q 507 197 485 215 q 529 147 529 178 q 528 131 529 140 q 519 111 526 121 q 469 53 499 81 q 406 6 440 26 q 333 -26 371 -14 q 256 -37 294 -37 q 147 -12 193 -37 q 69 53 100 13 q 22 145 38 94 q 7 247 7 196 q 21 355 7 301 q 65 452 35 408 q 144 523 96 496 q 260 550 192 550 q 351 533 306 550 q 434 484 397 515 q 494 410 471 453 q 517 314 517 367 q 501 268 517 285 q 458 244 485 251 q 438 239 449 242 q 415 233 428 236 q 363 223 392 228 q 304 214 333 218 q 220 203 261 208 q 150 196 179 199 q 188 126 161 153 q 256 99 215 99 m 264 449 q 361 417 322 449 q 411 338 400 385 q 263 308 335 321 q 113 296 192 296 q 157 406 121 364 q 264 449 193 449 m 471 288 q 482 319 485 296 q 456 402 476 365 q 404 464 435 439 q 337 502 374 489 q 260 515 300 515 q 161 493 203 515 q 93 433 119 471 q 54 347 67 396 q 42 247 42 299 q 58 144 42 190 q 104 66 75 99 q 172 15 133 33 q 256 -3 211 -3 q 388 36 329 -3 q 490 131 447 75 q 490 165 501 150 q 458 181 478 181 q 429 167 442 181 q 354 95 397 126 q 256 64 311 64 q 154 110 193 64 q 110 228 115 157 q 192 235 139 229 q 300 249 244 240 q 403 267 356 257 q 471 288 451 278 z "},"":{"ha":538,"x_min":7,"x_max":529,"o":"m 182 619 q 204 669 182 651 q 251 686 226 686 q 299 669 278 686 q 319 619 319 651 q 301 571 319 592 q 251 550 283 550 q 201 570 221 550 q 182 619 182 590 m 285 615 q 276 643 288 635 q 251 651 265 651 q 226 643 238 651 q 217 615 215 635 q 229 592 219 600 q 251 585 239 585 q 274 592 264 585 q 285 615 283 600 m 364 363 q 322 400 349 386 q 264 414 296 414 q 156 332 179 414 q 260 343 208 335 q 364 363 311 351 m 256 99 q 315 113 289 99 q 364 149 340 128 q 385 170 375 160 q 404 188 396 181 q 429 207 415 199 q 458 215 443 215 q 507 197 485 215 q 529 147 529 178 q 528 131 529 140 q 519 111 526 121 q 469 53 499 81 q 406 6 440 26 q 333 -26 371 -14 q 256 -37 294 -37 q 147 -12 193 -37 q 69 53 100 13 q 22 145 38 94 q 7 247 7 196 q 21 355 7 301 q 65 452 35 408 q 144 523 96 496 q 260 550 192 550 q 351 533 306 550 q 434 484 397 515 q 494 410 471 453 q 517 314 517 367 q 501 268 517 285 q 458 244 485 251 q 438 239 449 242 q 415 233 428 236 q 363 223 392 228 q 304 214 333 218 q 220 203 261 208 q 150 196 179 199 q 188 126 161 153 q 256 99 215 99 m 264 449 q 361 417 322 449 q 411 338 400 385 q 263 308 335 321 q 113 296 192 296 q 157 406 121 364 q 264 449 193 449 m 471 288 q 482 319 485 296 q 456 402 476 365 q 404 464 435 439 q 337 502 374 489 q 260 515 300 515 q 161 493 203 515 q 93 433 119 471 q 54 347 67 396 q 42 247 42 299 q 58 144 42 190 q 104 66 75 99 q 172 15 133 33 q 256 -3 211 -3 q 388 36 329 -3 q 490 131 447 75 q 490 165 501 150 q 458 181 478 181 q 429 167 442 181 q 354 95 397 126 q 256 64 311 64 q 154 110 193 64 q 110 228 115 157 q 192 235 139 229 q 300 249 244 240 q 403 267 356 257 q 471 288 451 278 z "}}}
